<?xml version="1.0" encoding="UTF-8"?>
<svg version="1.1" xmlns="http://www.w3.org/2000/svg" width="1024" height="1024">
<path d="M0 0 C1.11743528 -0.00260775 2.23487057 -0.00521549 3.38616753 -0.00790226 C4.62408106 -0.00567154 5.86199459 -0.00344082 7.13742065 -0.0011425 C8.44445513 -0.00270249 9.7514896 -0.00426248 11.09813118 -0.00586975 C14.73826351 -0.01006246 18.37836978 -0.00797263 22.01850224 -0.00488353 C25.93947086 -0.00262942 29.86043487 -0.0061091 33.78140259 -0.00886345 C41.46740701 -0.01332002 49.15340168 -0.01234518 56.83940649 -0.00945081 C63.08362248 -0.00719633 69.32783573 -0.00688445 75.572052 -0.00797462 C76.45931917 -0.00812786 77.34658634 -0.00828109 78.2607404 -0.00843897 C80.06296587 -0.00875868 81.86519134 -0.00908289 83.66741681 -0.00941156 C100.58383699 -0.01226602 117.50025175 -0.00897986 134.41667104 -0.00361119 C148.94517232 0.00085682 163.47366561 0.00008087 178.00216675 -0.00452995 C194.85629597 -0.00987631 211.71042045 -0.01199133 228.5645504 -0.00891769 C230.36030451 -0.00859913 232.15605863 -0.00828476 233.95181274 -0.00797462 C234.83545663 -0.00782035 235.71910052 -0.00766607 236.62952149 -0.00750712 C242.86931797 -0.00664215 249.10911145 -0.00810442 255.34890747 -0.01045418 C262.94870522 -0.01325306 270.54849264 -0.01251204 278.1482892 -0.00717343 C282.02896729 -0.00453762 285.90962812 -0.00352935 289.79030609 -0.00682259 C293.98903391 -0.01033195 298.18771781 -0.00615383 302.38644409 -0.0011425 C303.62435762 -0.00337322 304.86227116 -0.00560395 306.13769722 -0.00790226 C307.81385015 -0.00399064 307.81385015 -0.00399064 309.52386475 0 C310.49410521 0.00016235 311.46434566 0.0003247 312.46398735 0.00049198 C314.76193237 0.12584114 314.76193237 0.12584114 316.76193237 1.12584114 C316.80869164 17.82444802 316.84394045 34.52303361 316.86555672 51.22169018 C316.87586113 58.9754887 316.88990547 66.7292465 316.91281128 74.48301888 C316.93277075 81.24266969 316.94565488 88.002291 316.95010936 94.76197046 C316.95271241 98.33983636 316.95881327 101.91761788 316.97339249 105.4954567 C316.98955109 109.49346442 316.98991042 113.49132624 316.98898315 117.48936653 C316.99617371 118.67044487 317.00336426 119.85152321 317.01077271 121.0683918 C316.9963416 126.81625513 316.73322723 131.70629065 314.76193237 137.12584114 C297.12216553 137.14938761 279.48240372 137.1669256 261.84262466 137.17765331 C253.64889241 137.18277071 245.45517001 137.18972448 237.26144409 137.20128059 C230.10495965 137.21136886 222.94848236 137.21772751 215.791991 137.21992964 C212.01618737 137.22121322 208.24040419 137.22414443 204.46460724 137.2315712 C200.88264689 137.238557 197.30071461 137.24041443 193.71874809 137.23894882 C191.83476774 137.23933872 189.95079016 137.2446125 188.06681824 137.25026131 C174.60360437 137.23494135 161.24579116 136.60740753 147.76193237 136.12584114 C147.76193237 185.95584114 147.76193237 235.78584114 147.76193237 287.12584114 C197.26193237 287.12584114 246.76193237 287.12584114 297.76193237 287.12584114 C299.33188011 291.83568435 300.01186434 294.06623912 300.00917053 298.70001411 C300.01336502 299.78382866 300.01755951 300.8676432 300.0218811 301.98430061 C300.0162616 303.15805244 300.01064209 304.33180428 300.00485229 305.54112434 C300.00675064 306.78885124 300.00864899 308.03657814 300.01060486 309.32211494 C300.01366798 312.73089996 300.00782251 316.139441 299.99765182 319.54819703 C299.98884906 323.11649115 299.99062914 326.68478142 299.99101257 330.25308418 C299.99007746 336.23909389 299.98141087 342.22505275 299.96774292 348.21104622 C299.95198313 355.13894656 299.94674613 362.06679139 299.94747847 368.99470836 C299.9480878 375.65824615 299.94299341 382.32176581 299.93468666 388.98529816 C299.93114973 391.82300839 299.92932284 394.6607122 299.92879295 397.49842453 C299.92760619 401.45148002 299.91791203 405.40448888 299.90719604 409.35753059 C299.90787582 411.13334007 299.90787582 411.13334007 299.90856934 412.94502449 C299.90430435 414.01473991 299.90003937 415.08445534 299.89564514 416.18658638 C299.8939693 417.12178769 299.89229345 418.056989 299.89056683 419.02052975 C299.76193237 421.12584114 299.76193237 421.12584114 298.76193237 422.12584114 C290.49946073 423.26205065 282.1478349 423.27006139 273.82418823 423.25523567 C272.5916481 423.25698799 271.35910797 423.25874031 270.08921814 423.26054573 C266.74629942 423.2641629 263.40344356 423.26335735 260.06052852 423.26016665 C256.53965476 423.25761015 253.01878343 423.2599896 249.49790955 423.26155281 C243.5897372 423.26336475 237.68157741 423.26099366 231.77340698 423.25621223 C224.96941527 423.25076898 218.16545352 423.25253669 211.36146253 423.25803864 C205.48933245 423.26259466 199.61721133 423.26320826 193.74508005 423.26059997 C190.25113437 423.25905117 186.75720273 423.25880478 183.26325798 423.26213646 C179.3655877 423.26559451 175.4679503 423.26078493 171.57028198 423.25523567 C169.86254105 423.25827202 169.86254105 423.25827202 168.12030029 423.26136971 C167.04550919 423.25854988 165.97071808 423.25573006 164.86335754 423.25282478 C163.94516707 423.25244776 163.0269766 423.25207073 162.08096218 423.25168228 C157.29026262 423.07004273 152.53224967 422.59223212 147.76193237 422.12584114 C147.76269181 422.72352139 147.76345125 423.32120165 147.76423371 423.93699342 C147.80895816 459.33473232 147.84328944 494.73246638 147.86406303 530.13022764 C147.86656454 534.37738206 147.86915318 538.62453642 147.87179565 542.87169075 C147.87232028 543.7172478 147.8728449 544.56280485 147.87338541 545.43398484 C147.88209577 559.13776985 147.89786921 572.84153814 147.91623797 586.54531322 C147.93491948 600.59929088 147.94604539 614.65325977 147.95010936 628.70724934 C147.95285806 637.38422067 147.96154973 646.06114473 147.97776531 654.7381015 C147.98831063 660.6825356 147.99153858 666.62694515 147.98893513 672.57138792 C147.98765 676.00461878 147.989665 679.43776686 148.00034332 682.87098312 C148.01022702 686.58782362 148.00792533 690.30445837 148.00244141 694.02130318 C148.00826709 695.11370302 148.01409277 696.20610286 148.02009499 697.33160573 C148.01611289 698.32337983 148.0121308 699.31515392 148.00802803 700.33698177 C148.00878747 701.19552944 148.00954691 702.05407711 148.01032937 702.93864137 C147.76193237 705.12584114 147.76193237 705.12584114 145.76193237 708.12584114 C143.33816528 708.91955757 143.33816528 708.91955757 140.17697144 709.53038216 C138.95145569 709.77465446 137.72593994 710.01892677 136.46328735 710.27060127 C135.45094151 710.46324971 135.45094151 710.46324971 134.41814423 710.65979004 C132.20992074 711.08012192 130.0049963 711.51505709 127.80032349 711.95361519 C125.30375033 712.44980499 122.80695672 712.94466407 120.30926132 713.4351778 C109.40499997 715.57736793 98.52462276 717.83559841 87.64064026 720.07806206 C80.12306164 721.62468617 72.60312638 723.15980204 65.08351898 724.69652557 C58.59692759 726.02242757 52.11078167 727.35042991 45.6257019 728.68370247 C39.25284236 729.99389788 32.87874829 731.29797064 26.50385284 732.59822464 C24.09689085 733.09018644 21.69034393 733.5841838 19.28423309 734.08029175 C15.94943772 734.76752059 12.61322918 735.4474309 9.27658081 736.125597 C8.29493454 736.32966667 7.31328827 736.53373634 6.30189514 736.74398994 C5.39198318 736.92739937 4.48207123 737.11080879 3.54458618 737.29977608 C2.36917078 737.54055335 2.36917078 737.54055335 1.17000961 737.7861948 C-1.23806763 738.12584114 -1.23806763 738.12584114 -7.23806763 738.12584114 C-7.23806763 494.91584114 -7.23806763 251.70584114 -7.23806763 1.12584114 C-4.67543118 -0.15547708 -2.87058799 0.00048034 0 0 Z " fill="#E2212A" transform="translate(357.2380676269531,142.87415885925293)"/>
<path d="M0 0 C40.73206385 -0.022868 81.46412686 -0.04049906 122.19619583 -0.05106533 C127.00042614 -0.0523161 131.80465643 -0.05361042 136.60888672 -0.05493164 C137.56535882 -0.05519395 138.52183093 -0.05545626 139.50728704 -0.05572652 C155.01266831 -0.06008279 170.51804589 -0.0679701 186.02342497 -0.0771528 C201.92270887 -0.08649053 217.82199083 -0.09205587 233.72127736 -0.09408849 C243.53909217 -0.09546347 253.35689654 -0.0998127 263.17470814 -0.10791647 C269.89891674 -0.1131854 276.62311992 -0.11480396 283.34733044 -0.11350138 C287.23204653 -0.11285823 291.11674434 -0.1138729 295.00145721 -0.11920547 C299.2046681 -0.12493341 303.4078396 -0.12299925 307.61105347 -0.12025452 C308.85033124 -0.12316736 310.08960901 -0.1260802 311.36644065 -0.12908131 C312.48510934 -0.12709026 313.60377802 -0.12509921 314.75634575 -0.12304783 C315.72767035 -0.12342755 316.69899496 -0.12380727 317.69975364 -0.1241985 C320 0 320 0 322 1 C322.04675927 17.69860688 322.08200808 34.39719247 322.10362434 51.09584904 C322.11392875 58.84964756 322.1279731 66.60340535 322.15087891 74.35717773 C322.17083838 81.11682855 322.18372251 87.87644986 322.18817699 94.63612932 C322.19078004 98.21399522 322.1968809 101.79177674 322.21146011 105.36961555 C322.22761872 109.36762328 322.22797804 113.3654851 322.22705078 117.36352539 C322.23424133 118.54460373 322.24143188 119.72568207 322.24884033 120.94255066 C322.23440922 126.69041399 321.97129486 131.58044951 320 137 C302.36023316 137.02354646 284.72047134 137.04108446 267.08069229 137.05181217 C258.88696003 137.05692957 250.69323764 137.06388333 242.49951172 137.07543945 C235.34302727 137.08552772 228.18654998 137.09188637 221.03005862 137.09408849 C217.254255 137.09537207 213.47847181 137.09830329 209.70267487 137.10573006 C206.12071451 137.11271586 202.53878224 137.11457329 198.95681572 137.11310768 C197.07283537 137.11349758 195.18885779 137.11877136 193.30488586 137.12442017 C179.841672 137.10910021 166.48385879 136.48156639 153 136 C153 185.83 153 235.66 153 287 C202.5 287 252 287 303 287 C304.56994774 291.70984321 305.24993197 293.94039798 305.24723816 298.57417297 C305.25143265 299.65798752 305.25562714 300.74180206 305.25994873 301.85845947 C305.25432922 303.0322113 305.24870972 304.20596313 305.24291992 305.4152832 C305.24481827 306.6630101 305.24671661 307.910737 305.24867249 309.1962738 C305.25173561 312.60505882 305.24589014 316.01359986 305.23571944 319.42235589 C305.22691668 322.99065001 305.22869676 326.55894028 305.2290802 330.12724304 C305.22814508 336.11325275 305.2194785 342.09921161 305.20581055 348.08520508 C305.19005075 355.01310542 305.18481375 361.94095025 305.1855461 368.86886722 C305.18615543 375.53240501 305.18106103 382.19592467 305.17275429 388.85945702 C305.16921736 391.69716724 305.16739047 394.53487106 305.16686058 397.37258339 C305.16567381 401.32563888 305.15597966 405.27864774 305.14526367 409.23168945 C305.14594345 411.00749893 305.14594345 411.00749893 305.14663696 412.81918335 C305.14237198 413.88889877 305.13810699 414.9586142 305.13371277 416.06074524 C305.13203692 416.99594655 305.13036108 417.93114786 305.12863445 418.89468861 C305 421 305 421 304 422 C295.73752835 423.13620951 287.38590252 423.14422025 279.06225586 423.12939453 C277.82971573 423.13114685 276.5971756 423.13289917 275.32728577 423.13470459 C271.98436704 423.13832176 268.64151119 423.13751621 265.29859614 423.1343255 C261.77772238 423.13176901 258.25685105 423.13414846 254.73597717 423.13571167 C248.82780483 423.13752361 242.91964504 423.13515252 237.01147461 423.13037109 C230.2074829 423.12492784 223.40352115 423.12669554 216.59953016 423.1321975 C210.72740008 423.13675352 204.85527896 423.13736712 198.98314768 423.13475883 C195.489202 423.13321003 191.99527035 423.13296364 188.50132561 423.13629532 C184.60365533 423.13975337 180.70601792 423.13494379 176.80834961 423.12939453 C175.10060867 423.13243088 175.10060867 423.13243088 173.35836792 423.13552856 C172.28357681 423.13270874 171.20878571 423.12988892 170.10142517 423.12698364 C169.1832347 423.12660662 168.26504423 423.12622959 167.31902981 423.12584114 C162.52833024 422.94420159 157.7703173 422.46639098 153 422 C153.00075944 422.59768025 153.00151888 423.1953605 153.00230134 423.81115228 C153.04702579 459.20889118 153.08135707 494.60662524 153.10213066 530.0043865 C153.10463217 534.25154092 153.10722081 538.49869528 153.10986328 542.74584961 C153.1103879 543.59140666 153.11091252 544.43696371 153.11145304 545.3081437 C153.1201634 559.01192871 153.13593683 572.715697 153.15430559 586.41947208 C153.17298711 600.47344974 153.18411301 614.52741863 153.18817699 628.5814082 C153.19092569 637.25837953 153.19961736 645.93530358 153.21583293 654.61226036 C153.22637825 660.55669446 153.22960621 666.50110401 153.22700275 672.44554678 C153.22571762 675.87877764 153.22773262 679.31192572 153.23841095 682.74514198 C153.24829465 686.46198248 153.24599296 690.17861723 153.24050903 693.89546204 C153.24633472 694.98786188 153.2521604 696.08026172 153.25816262 697.20576459 C153.25418052 698.19753869 153.25019842 699.18931278 153.24609566 700.21114063 C153.2468551 701.0696883 153.24761454 701.92823597 153.24839699 702.81280023 C153 705 153 705 151 708 C148.6171875 708.51171875 148.6171875 708.51171875 145.875 708.6875 C144.96492187 708.75324219 144.05484375 708.81898438 143.1171875 708.88671875 C142.41851562 708.92410156 141.71984375 708.96148438 141 709 C144.16789693 707.24005726 146.24364431 706.75127114 150 706 C150.33 611.62 150.66 517.24 151 420 C181.69 420 212.38 420 244 420 C237.8095468 399.08516555 237.8095468 399.08516555 231.5625 378.1875 C231.19471436 376.96160156 230.82692871 375.73570312 230.44799805 374.47265625 C228.71554234 368.69854103 226.97885652 362.92576157 225.23103333 357.15628052 C221.34357076 344.3217163 217.49958234 331.4854373 214.03979492 318.52758789 C212.32049955 312.09624001 210.47067896 305.71239419 208.47167969 299.36206055 C207.32957558 295.62181163 207 293.01268249 207 289 C188.52 289 170.04 289 151 289 C150.97745432 268.93816382 150.95902161 248.87633784 150.94818783 228.81449223 C150.94302453 219.50010284 150.93598119 210.18572187 150.92456055 200.87133789 C150.91461474 192.7559464 150.90814682 184.640561 150.90591151 176.52516359 C150.90460422 172.22540212 150.90151726 167.92565808 150.89426994 163.62590218 C150.88751135 159.58357158 150.88538271 155.54126568 150.88689232 151.49892998 C150.88661592 150.01095826 150.88460984 148.52298577 150.88079453 147.03501892 C150.87585986 145.01224862 150.87760184 142.98946524 150.87974548 140.96669006 C150.87836279 139.26459932 150.87836279 139.26459932 150.87695217 137.5281229 C151 135 151 135 152 134 C153.70772358 133.91286169 155.41898649 133.89299993 157.12890625 133.90234375 C158.68061523 133.90717773 158.68061523 133.90717773 160.26367188 133.91210938 C161.35228516 133.92048828 162.44089844 133.92886719 163.5625 133.9375 C165.2012207 133.94426758 165.2012207 133.94426758 166.87304688 133.95117188 C169.58208495 133.96300174 172.29101599 133.97948457 175 134 C174.64808594 132.78570312 174.29617188 131.57140625 173.93359375 130.3203125 C171.38078167 121.46752176 168.88112083 112.60725623 166.53198242 103.69799805 C163.46822381 92.09575056 160.08490701 80.6316781 156.48388672 69.18530273 C150.76434829 50.96351763 145.49524294 32.60346284 140.4375 14.1875 C140.18589111 13.27427979 139.93428223 12.36105957 139.67504883 11.42016602 C139.33896606 10.18157837 139.33896606 10.18157837 138.99609375 8.91796875 C138.70496704 7.84712036 138.70496704 7.84712036 138.40795898 6.75463867 C138 5 138 5 138 3 C69.69 2.505 69.69 2.505 0 2 C0 1.34 0 0.68 0 0 Z " fill="#C61721" transform="translate(352,143)"/>
<path d="M0 0 C0.99 0.495 0.99 0.495 2 1 C2.02332961 16.23763064 2.04097948 31.47526046 2.05181217 46.71290493 C2.056975 53.78753187 2.06401744 60.86214774 2.07543945 67.93676758 C2.08644681 74.75778878 2.09227618 81.57879844 2.09487724 88.39982796 C2.09673205 91.00866948 2.1003537 93.61751033 2.10573006 96.22634697 C2.11293643 99.86632552 2.11399111 103.50625575 2.11352539 107.14624023 C2.11712067 108.23668137 2.12071594 109.3271225 2.12442017 110.4506073 C2.1230455 111.43643799 2.12167084 112.42226868 2.12025452 113.43797302 C2.12163721 114.73078768 2.12163721 114.73078768 2.12304783 116.04971981 C2 118 2 118 1 119 C-7.26247165 120.13620951 -15.61409748 120.14422025 -23.93774414 120.12939453 C-25.17028427 120.13114685 -26.4028244 120.13289917 -27.67271423 120.13470459 C-31.01563296 120.13832176 -34.35848881 120.13751621 -37.70140386 120.1343255 C-41.22227762 120.13176901 -44.74314895 120.13414846 -48.26402283 120.13571167 C-54.17219517 120.13752361 -60.08035496 120.13515252 -65.98852539 120.13037109 C-72.7925171 120.12492784 -79.59647885 120.12669554 -86.40046984 120.1321975 C-92.27259992 120.13675352 -98.14472104 120.13736712 -104.01685232 120.13475883 C-107.510798 120.13321003 -111.00472965 120.13296364 -114.49867439 120.13629532 C-118.39634467 120.13975337 -122.29398208 120.13494379 -126.19165039 120.12939453 C-127.89939133 120.13243088 -127.89939133 120.13243088 -129.64163208 120.13552856 C-130.71642319 120.13270874 -131.79121429 120.12988892 -132.89857483 120.12698364 C-133.8167653 120.12660662 -134.73495577 120.12622959 -135.68097019 120.12584114 C-140.47166976 119.94420159 -145.2296827 119.46639098 -150 119 C-149.99924056 119.59768025 -149.99848112 120.1953605 -149.99769866 120.81115228 C-149.95297421 156.20889118 -149.91864293 191.60662524 -149.89786934 227.0043865 C-149.89536783 231.25154092 -149.89277919 235.49869528 -149.89013672 239.74584961 C-149.8896121 240.59140666 -149.88908748 241.43696371 -149.88854696 242.3081437 C-149.8798366 256.01192871 -149.86406317 269.715697 -149.84569441 283.41947208 C-149.82701289 297.47344974 -149.81588699 311.52741863 -149.81182301 325.5814082 C-149.80907431 334.25837953 -149.80038264 342.93530358 -149.78416707 351.61226036 C-149.77362175 357.55669446 -149.77039379 363.50110401 -149.77299725 369.44554678 C-149.77428238 372.87877764 -149.77226738 376.31192572 -149.76158905 379.74514198 C-149.75170535 383.46198248 -149.75400704 387.17861723 -149.75949097 390.89546204 C-149.75366528 391.98786188 -149.7478396 393.08026172 -149.74183738 394.20576459 C-149.74581948 395.19753869 -149.74980158 396.18931278 -149.75390434 397.21114063 C-149.7531449 398.0696883 -149.75238546 398.92823597 -149.75160301 399.81280023 C-150 402 -150 402 -152 405 C-154.3828125 405.51171875 -154.3828125 405.51171875 -157.125 405.6875 C-158.03507812 405.75324219 -158.94515625 405.81898438 -159.8828125 405.88671875 C-160.58148438 405.92410156 -161.28015625 405.96148438 -162 406 C-158.83210307 404.24005726 -156.75635569 403.75127114 -153 403 C-152.67 308.62 -152.34 214.24 -152 117 C-101.84 117 -51.68 117 0 117 C0 78.39 0 39.78 0 0 Z " fill="#B61C22" transform="translate(655,446)"/>
<path d="M0 0 C3 1 3 1 3 1 Z " fill="#D6383A" transform="translate(485,855)"/>
<path d="" fill="#DC4041" transform="translate(0,0)"/>
<path d="" fill="#DF4243" transform="translate(0,0)"/>
<path d="" fill="#E14245" transform="translate(0,0)"/>
<path d="M0 0 C2 1 2 1 2 1 Z " fill="#DC3C3F" transform="translate(377,877)"/>
<path d="M0 0 C2 1 2 1 2 1 Z " fill="#D7383A" transform="translate(406,871)"/>
<path d="M0 0 C2 1 2 1 2 1 Z " fill="#DE393F" transform="translate(412,870)"/>
<path d="M0 0 C2 1 2 1 2 1 Z " fill="#DC393E" transform="translate(417,869)"/>
<path d="M0 0 C2 1 2 1 2 1 Z " fill="#D7373A" transform="translate(444,863)"/>
<path d="M0 0 C2 1 2 1 2 1 Z " fill="#DA3A3E" transform="translate(457,861)"/>
<path d="" fill="#E04344" transform="translate(0,0)"/>
<path d="" fill="#DF4545" transform="translate(0,0)"/>
<path d="" fill="#DF4545" transform="translate(0,0)"/>
<path d="M0 0 C2 1 2 1 2 1 Z " fill="#C23335" transform="translate(651,566)"/>
<path d="M0 0 C2 1 2 1 2 1 Z " fill="#CA2E34" transform="translate(602,566)"/>
<path d="" fill="#DF4546" transform="translate(0,0)"/>
<path d="" fill="#9C5F57" transform="translate(0,0)"/>
<path d="" fill="#D83F41" transform="translate(0,0)"/>
<path d="" fill="#DA3B41" transform="translate(0,0)"/>
<path d="" fill="#D7393B" transform="translate(0,0)"/>
<path d="" fill="#D73A3E" transform="translate(0,0)"/>
<path d="" fill="#D94242" transform="translate(0,0)"/>
<path d="" fill="#D63A3F" transform="translate(0,0)"/>
<path d="" fill="#D23E41" transform="translate(0,0)"/>
<path d="" fill="#D14041" transform="translate(0,0)"/>
<path d="" fill="#DE4243" transform="translate(0,0)"/>
<path d="" fill="#DE4143" transform="translate(0,0)"/>
<path d="" fill="#DF4142" transform="translate(0,0)"/>
<path d="" fill="#E24444" transform="translate(0,0)"/>
<path d="" fill="#E04343" transform="translate(0,0)"/>
<path d="" fill="#E04345" transform="translate(0,0)"/>
<path d="" fill="#DF4345" transform="translate(0,0)"/>
<path d="" fill="#E04344" transform="translate(0,0)"/>
<path d="" fill="#E04545" transform="translate(0,0)"/>
<path d="" fill="#E14243" transform="translate(0,0)"/>
<path d="" fill="#E24343" transform="translate(0,0)"/>
<path d="" fill="#E14644" transform="translate(0,0)"/>
<path d="" fill="#E04446" transform="translate(0,0)"/>
<path d="" fill="#DF4545" transform="translate(0,0)"/>
<path d="" fill="#E14445" transform="translate(0,0)"/>
<path d="" fill="#E04545" transform="translate(0,0)"/>
<path d="" fill="#DF4445" transform="translate(0,0)"/>
<path d="" fill="#DF4646" transform="translate(0,0)"/>
<path d="" fill="#E04545" transform="translate(0,0)"/>
<path d="" fill="#E04546" transform="translate(0,0)"/>
<path d="" fill="#E24446" transform="translate(0,0)"/>
<path d="" fill="#E14446" transform="translate(0,0)"/>
<path d="" fill="#E24646" transform="translate(0,0)"/>
<path d="" fill="#E04645" transform="translate(0,0)"/>
<path d="" fill="#E04547" transform="translate(0,0)"/>
<path d="" fill="#E14646" transform="translate(0,0)"/>
<path d="" fill="#E24545" transform="translate(0,0)"/>
<path d="" fill="#E14747" transform="translate(0,0)"/>
<path d="" fill="#DF4545" transform="translate(0,0)"/>
<path d="" fill="#E14545" transform="translate(0,0)"/>
<path d="" fill="#DF4545" transform="translate(0,0)"/>
<path d="" fill="#CF3037" transform="translate(0,0)"/>
<path d="" fill="#C33033" transform="translate(0,0)"/>
<path d="" fill="#C52D33" transform="translate(0,0)"/>
<path d="" fill="#DD3438" transform="translate(0,0)"/>
<path d="" fill="#DC3439" transform="translate(0,0)"/>
<path d="" fill="#E2363A" transform="translate(0,0)"/>
<path d="" fill="#E2373B" transform="translate(0,0)"/>
<path d="" fill="#E04646" transform="translate(0,0)"/>
<path d="" fill="#E24746" transform="translate(0,0)"/>
<path d="" fill="#E04446" transform="translate(0,0)"/>
<path d="" fill="#E14546" transform="translate(0,0)"/>
<path d="" fill="#DF4545" transform="translate(0,0)"/>
<path d="" fill="#E14346" transform="translate(0,0)"/>
<path d="" fill="#E14446" transform="translate(0,0)"/>
<path d="" fill="#E24343" transform="translate(0,0)"/>
<path d="" fill="#E04547" transform="translate(0,0)"/>
<path d="" fill="#E14446" transform="translate(0,0)"/>
<path d="" fill="#E14646" transform="translate(0,0)"/>
<path d="" fill="#E14545" transform="translate(0,0)"/>
<path d="" fill="#DF3B3F" transform="translate(0,0)"/>
<path d="" fill="#E24646" transform="translate(0,0)"/>
<path d="" fill="#E14646" transform="translate(0,0)"/>
<path d="" fill="#E14847" transform="translate(0,0)"/>
<path d="" fill="#E24646" transform="translate(0,0)"/>
<path d="" fill="#E04645" transform="translate(0,0)"/>
<path d="" fill="#E24547" transform="translate(0,0)"/>
<path d="" fill="#E14346" transform="translate(0,0)"/>
<path d="" fill="#E14647" transform="translate(0,0)"/>
<path d="" fill="#E34746" transform="translate(0,0)"/>
<path d="" fill="#BC3A3A" transform="translate(0,0)"/>
<path d="" fill="#E34545" transform="translate(0,0)"/>
<path d="" fill="#E04345" transform="translate(0,0)"/>
<path d="" fill="#E04445" transform="translate(0,0)"/>
<path d="" fill="#E14245" transform="translate(0,0)"/>
<path d="" fill="#E24443" transform="translate(0,0)"/>
<path d="" fill="#DD4647" transform="translate(0,0)"/>
</svg>
