<?xml version="1.0" encoding="UTF-8"?>
<svg version="1.1" xmlns="http://www.w3.org/2000/svg" width="1024" height="1024">
<path d="M0 0 C-0.31525635 0.72550049 -0.6305127 1.45100098 -0.95532227 2.19848633 C-7.46276755 17.18020116 -13.94457462 32.17255275 -20.375 47.1875 C-20.68390167 47.90875061 -20.99280334 48.63000122 -21.31106567 49.37310791 C-23.54157423 54.58170233 -25.77087173 59.79081475 -28 65 C-30.34495916 70.4796729 -32.69044243 75.95912067 -35.03692627 81.43814087 C-35.96312011 83.60136318 -36.88856835 85.7649033 -37.81396484 87.9284668 C-38.25051895 88.94696465 -38.25051895 88.94696465 -38.69589233 89.98603821 C-39.26922142 91.32618509 -39.84008345 92.66739035 -40.40835571 94.00968933 C-41.8771979 97.46290249 -43.40288978 100.87325827 -45.02734375 104.25634766 C-50.00045474 114.25019584 -50.00045474 114.25019584 -49 125 C-48.70851074 125.87269531 -48.41702148 126.74539063 -48.11669922 127.64453125 C-46.97213592 130.8009273 -45.71775147 133.89619517 -44.4375 137 C-43.69240552 138.85143183 -42.94737397 140.70288965 -42.20410156 142.55505371 C-41.66738971 143.89097441 -41.12926577 145.22632854 -40.58984375 146.56115723 C-36.41689303 156.89023717 -32.40488589 167.28307134 -28.36523438 177.66479492 C-27.67969221 179.42627136 -26.99414528 181.18774595 -26.30859375 182.94921875 C-25.96412201 183.83481979 -25.61965027 184.72042084 -25.26473999 185.63285828 C-22.98638842 191.48473845 -20.68953154 197.3290773 -18.3828125 203.16983032 C-16.78130806 207.22999426 -15.18875252 211.29363396 -13.59771729 215.35791016 C-12.82752841 217.31926021 -12.05342979 219.27907972 -11.27532959 221.23730469 C-10.19289654 223.96292191 -9.12425884 226.69357301 -8.05859375 229.42578125 C-7.73238541 230.23739212 -7.40617706 231.04900299 -7.07008362 231.88520813 C-6.78068405 232.63505478 -6.49128448 233.38490143 -6.19311523 234.1574707 C-5.93715073 234.80657913 -5.68118622 235.45568756 -5.41746521 236.12446594 C-4.91471656 238.38315048 -5.28927579 239.82313226 -6 242 C-12.37206172 242.02529825 -18.74411054 242.04284496 -25.11621094 242.05493164 C-27.28516117 242.05996891 -29.454108 242.06679891 -31.62304688 242.07543945 C-34.73568563 242.08753151 -37.8482796 242.09323428 -40.9609375 242.09765625 C-41.934935 242.10281754 -42.9089325 242.10797882 -43.91244507 242.11329651 C-44.81322784 242.11337204 -45.71401062 242.11344757 -46.64208984 242.11352539 C-47.43706879 242.115746 -48.23204773 242.11796661 -49.05111694 242.12025452 C-51 242 -51 242 -53 241 C-53.83430735 239.18150236 -54.57574164 237.32017039 -55.27490234 235.44555664 C-55.72231781 234.25664322 -56.16973328 233.0677298 -56.63070679 231.8427887 C-57.11589588 230.53195273 -57.60096981 229.22107414 -58.0859375 227.91015625 C-58.58851116 226.5676628 -59.09174559 225.22541654 -59.59561157 223.88340759 C-60.9253136 220.33687901 -62.24664987 216.78729143 -63.56610107 213.23693848 C-65.1570099 208.96034316 -66.75692333 204.68711141 -68.35622597 200.41364956 C-69.60397414 197.07933681 -70.85019645 193.74448523 -72.09140015 190.4077301 C-74.39827415 184.21862777 -76.7423083 178.06319062 -79.31314087 171.97825623 C-80 170 -80 170 -80 167 C-80.66 167 -81.32 167 -82 167 C-82.10111084 167.6496875 -82.20222168 168.299375 -82.30639648 168.96875 C-83.21978019 172.96050362 -84.64405989 176.67702877 -86.09765625 180.5 C-86.40771606 181.32511581 -86.71777588 182.15023163 -87.03723145 183.00035095 C-88.04118875 185.66861137 -89.05102548 188.3345807 -90.0625 191 C-91.43782432 194.62617926 -92.8128785 198.2524605 -94.1875 201.87890625 C-94.52318497 202.76300674 -94.85886993 203.64710724 -95.20472717 204.55799866 C-97.05437226 209.44428482 -98.84699206 214.34238968 -100.5625 219.27734375 C-100.91175537 220.26283203 -101.26101074 221.24832031 -101.62084961 222.26367188 C-102.23013983 223.99375913 -102.82082447 225.73055992 -103.38891602 227.47460938 C-104.19140625 229.71484375 -104.19140625 229.71484375 -106 233 C-111.15402345 234.44106718 -116.60635534 234.1447238 -121.921875 234.1328125 C-123.33367035 234.13424759 -123.33367035 234.13424759 -124.77398682 234.13571167 C-126.75411038 234.13638975 -128.73423622 234.13456148 -130.71435547 234.13037109 C-133.75363093 234.12499358 -136.79276022 234.13034094 -139.83203125 234.13671875 C-141.75781283 234.13605837 -143.68359431 234.13477805 -145.609375 234.1328125 C-146.97651642 234.13584885 -146.97651642 234.13584885 -148.37127686 234.13894653 C-149.21265198 234.13579437 -150.0540271 234.13264221 -150.92089844 234.12939453 C-152.03292633 234.12820114 -152.03292633 234.12820114 -153.16741943 234.12698364 C-155 234 -155 234 -157 233 C-154.94283445 226.45393275 -152.48044154 220.1672978 -149.75 213.875 C-149.39292969 213.0396875 -149.03585937 212.204375 -148.66796875 211.34375 C-146.40659653 206.09610575 -144.03495292 200.90600855 -141.60546875 195.734375 C-138.13164282 188.33580478 -134.82055338 180.87112143 -131.5625 173.375 C-131.27462616 172.71277435 -130.98675232 172.05054871 -130.69015503 171.36825562 C-130.39400299 170.68687531 -130.09785095 170.005495 -129.79272461 169.3034668 C-129.48958847 168.60608902 -129.18645233 167.90871124 -128.87413025 167.19020081 C-128.24610728 165.74521493 -127.61839469 164.30009412 -126.99098206 162.85484314 C-124.89750131 158.03962944 -122.77721296 153.23696346 -120.64198303 148.44012451 C-119.13922988 145.05949716 -117.64721172 141.67418987 -116.15670776 138.28814697 C-115.43020349 136.64442978 -114.69905498 135.00275705 -113.96316528 133.36322021 C-112.93312815 131.06639894 -111.9199486 128.76280994 -110.91015625 126.45703125 C-110.5994519 125.77507187 -110.28874756 125.09311249 -109.96862793 124.39048767 C-108.28345913 120.48964195 -107.67221815 118.067399 -109 114 C-109.309375 112.7625 -109.61875 111.525 -109.9375 110.25 C-110.288125 109.1775 -110.63875 108.105 -111 107 C-111.99 106.505 -111.99 106.505 -113 106 C-113.69359097 103.96066807 -114.37786895 101.91788569 -115.02636719 99.86376953 C-117.04582809 93.92388078 -119.65116372 88.199745 -122.125 82.4375 C-122.73896314 81.00031495 -123.35256068 79.56297367 -123.96582031 78.12548828 C-125.28015121 75.04545029 -126.59618274 71.966146 -127.91308594 68.88720703 C-130.06848543 63.84408088 -132.21101429 58.79553803 -134.3515625 53.74609375 C-144.19914555 30.47529319 -144.19914555 30.47529319 -154.30957031 7.31787109 C-154.85436035 6.08157959 -154.85436035 6.08157959 -155.41015625 4.8203125 C-155.72090088 4.12180176 -156.03164551 3.42329102 -156.35180664 2.70361328 C-157 1 -157 1 -157 -1 C-139.51 -1 -122.02 -1 -104 -1 C-102.1025 4.259375 -100.205 9.51875 -98.25 14.9375 C-91.86188154 32.63540823 -85.43923671 50.32063397 -79 68 C-75.0916588 60.7099735 -72.29052529 53.05701582 -69.4375 45.3125 C-68.64932787 43.18858353 -67.8595256 41.0652776 -67.06967163 38.94198608 C-66.52914 37.4885838 -65.9891248 36.03498935 -65.44961548 34.58120728 C-62.58765121 26.87306779 -59.67178159 19.18562189 -56.75 11.5 C-56.26745821 10.2295882 -55.78495387 8.95916218 -55.30249023 7.6887207 C-54.20223156 4.79226274 -53.10143003 1.89601269 -52 -1 C-44.91616971 -1.19327149 -37.83207185 -1.3707563 -30.74755859 -1.53710938 C-28.33600854 -1.59561847 -25.92454435 -1.65778248 -23.51318359 -1.72363281 C-20.05321889 -1.81749129 -16.59316136 -1.89833247 -13.1328125 -1.9765625 C-11.50776291 -2.02485703 -11.50776291 -2.02485703 -9.84988403 -2.0741272 C-8.8489975 -2.09429901 -7.84811096 -2.11447083 -6.81689453 -2.13525391 C-5.93309113 -2.15746002 -5.04928772 -2.17966614 -4.13870239 -2.20254517 C-2 -2 -2 -2 0 0 Z " fill="#E9131F" transform="translate(903,381)"/>
<path d="M0 0 C1.0635672 -0.00315216 2.1271344 -0.00630432 3.22293091 -0.009552 C4.38412445 -0.00752777 5.54531799 -0.00550354 6.74169922 -0.00341797 C7.94712372 -0.00437469 9.15254822 -0.00533142 10.39450073 -0.00631714 C12.96531221 -0.0069998 15.53612539 -0.00513956 18.10693359 -0.00097656 C21.95398098 0.00426854 25.80090601 -0.00086445 29.64794922 -0.00732422 C41.49170564 -0.0117313 53.32692479 0.07868935 65.16357422 0.51220703 C66.58200119 0.55775223 66.58200119 0.55775223 68.02908325 0.60421753 C83.37652232 1.25692213 97.35023932 5.66852215 108.92138672 16.12939453 C124.19754563 32.92604204 127.80487716 54.77239026 127.05761719 76.76318359 C126.10645653 93.28406012 122.18234056 107.90471859 111.92138672 121.12939453 C111.32326172 122.01626953 110.72513672 122.90314453 110.10888672 123.81689453 C96.07700579 138.65059723 76.51785102 141.33941694 57.19482422 142.01611328 C53.32618325 142.11566557 49.46166855 142.14130653 45.59179688 142.13647461 C43.99254868 142.13494133 43.99254868 142.13494133 42.36099243 142.13337708 C41.55592255 142.13206284 40.75085266 142.1307486 39.92138672 142.12939453 C39.91107925 143.12942001 39.90077179 144.1294455 39.89015198 145.15977478 C39.79258868 154.56314226 39.68987126 163.96644103 39.58204746 173.36969662 C39.52677545 178.2045299 39.47334875 183.03936918 39.42407227 187.87426758 C39.37649164 192.53621937 39.32415139 197.1980952 39.26844597 201.85995674 C39.24799376 203.64261558 39.22928552 205.42529528 39.2123127 207.20799065 C39.18833186 209.69611054 39.15826912 212.18408552 39.12670898 214.67211914 C39.12095352 215.41658295 39.11519806 216.16104675 39.10926819 216.92807007 C39.03543888 222.01534237 39.03543888 222.01534237 37.92138672 223.12939453 C23.07138672 223.12939453 8.22138672 223.12939453 -7.07861328 223.12939453 C-7.07861328 149.86939453 -7.07861328 76.60939453 -7.07861328 1.12939453 C-4.55678732 -0.13151845 -2.82266923 0.00239984 0 0 Z M38.92138672 38.12939453 C38.92138672 58.91939453 38.92138672 79.70939453 38.92138672 101.12939453 C44.00324 102.14576519 48.17928859 102.14079428 53.29638672 101.87939453 C54.53388672 101.83878906 54.53388672 101.83878906 55.79638672 101.79736328 C62.59072887 101.46303851 67.65071311 100.34846192 72.67138672 95.44189453 C80.2421448 85.43056313 79.64974925 72.03642496 78.92138672 60.12939453 C77.93719665 53.73603386 75.64657529 47.69667191 70.92138672 43.12939453 C60.88611907 36.45278644 51.31111061 38.12939453 38.92138672 38.12939453 Z " fill="#E9131F" transform="translate(388.07861328125,385.87060546875)"/>
<path d="M0 0 C4.2330188 0.00582416 8.46597593 0.00231822 12.69899273 -0.00357246 C15.99396745 -0.00716905 19.28892721 -0.00604586 22.58390236 -0.00344467 C24.14804911 -0.00277937 25.71219724 -0.00358991 27.27634239 -0.00592422 C29.43296386 -0.0084493 31.58948019 -0.00461814 33.74609375 0.00097656 C34.96878464 0.00177216 36.19147552 0.00256775 37.45121765 0.00338745 C40.3059082 0.13037109 40.3059082 0.13037109 42.3059082 1.13037109 C42.3552603 6.64793586 42.39160482 12.1653728 42.41577148 17.68310547 C42.42584355 19.56105791 42.43950182 21.43899463 42.45678711 23.31689453 C42.48098274 26.012572 42.49237903 28.70804255 42.5012207 31.40380859 C42.51154327 32.24656342 42.52186584 33.08931824 42.53250122 33.95761108 C42.53289964 36.01658357 42.42848408 38.07505044 42.3059082 40.13037109 C40.3059082 42.13037109 40.3059082 42.13037109 37.82553101 42.37088013 C36.78184357 42.3664389 35.73815613 42.36199768 34.6628418 42.35742188 C33.48176849 42.35727081 32.30069519 42.35711975 31.08383179 42.35696411 C29.80360138 42.34664154 28.52337097 42.33631897 27.2043457 42.32568359 C25.24424057 42.32143875 25.24424057 42.32143875 23.24453735 42.31710815 C19.76908739 42.30946885 16.29380437 42.289818 12.81842041 42.2677002 C9.27260598 42.24724805 5.7267646 42.2381078 2.1809082 42.22802734 C-4.77749375 42.20657226 -11.73578476 42.17243282 -18.6940918 42.13037109 C-19.48880827 44.95358475 -19.83765196 47.51065333 -19.89941406 50.43994141 C-19.91935928 51.28051086 -19.9393045 52.12108032 -19.95985413 52.98712158 C-19.98492287 54.33420197 -19.98492287 54.33420197 -20.01049805 55.70849609 C-20.03127914 56.63507019 -20.05206024 57.56164429 -20.07347107 58.51629639 C-20.13876141 61.47091382 -20.19775611 64.42561877 -20.2565918 67.38037109 C-20.29979653 69.38558841 -20.34341145 71.39079694 -20.38745117 73.39599609 C-20.49442179 78.30736513 -20.59574698 83.21882206 -20.6940918 88.13037109 C-20.10971344 88.12370926 -19.52533508 88.11704742 -18.92324829 88.11018372 C-12.85668423 88.04396 -6.79022234 87.99862473 -0.72338867 87.96557617 C1.54260425 87.95046305 3.80856781 87.92997197 6.07446289 87.90405273 C9.32616409 87.86778048 12.57747956 87.85067019 15.8293457 87.83740234 C17.35596329 87.81417656 17.35596329 87.81417656 18.91342163 87.79048157 C19.85424591 87.79025497 20.79507019 87.79002838 21.7644043 87.78979492 C23.01016739 87.77980217 23.01016739 87.77980217 24.28109741 87.76960754 C24.94928497 87.88865952 25.61747253 88.00771149 26.3059082 88.13037109 C28.59739924 91.56760764 28.55245815 92.83081724 28.53637695 96.87255859 C28.53444336 98.02240234 28.53250977 99.17224609 28.53051758 100.35693359 C28.51827148 101.56091797 28.50602539 102.76490234 28.4934082 104.00537109 C28.49244141 105.75333984 28.49244141 105.75333984 28.49145508 107.53662109 C28.45177818 115.48963562 27.9202682 123.14369117 27.3059082 131.13037109 C11.4659082 131.13037109 -4.3740918 131.13037109 -20.6940918 131.13037109 C-20.6940918 146.64037109 -20.6940918 162.15037109 -20.6940918 178.13037109 C-19.7040918 177.80037109 -18.7140918 177.47037109 -17.6940918 177.13037109 C-15.16930182 177.11404188 -12.67969962 177.15621883 -10.15893555 177.25146484 C-9.4068129 177.27507584 -8.65469025 177.29868683 -7.879776 177.32301331 C-5.46351525 177.39949825 -3.04757716 177.48316319 -0.6315918 177.56787109 C2.50501446 177.67446581 5.64172058 177.77711295 8.77856445 177.87646484 C9.94556381 177.91445694 9.94556381 177.91445694 11.13613892 177.95321655 C17.62724527 178.14825991 24.11194679 178.16101552 30.60523987 178.07115173 C33.78987576 178.04332829 36.25929109 178.11483206 39.3059082 179.13037109 C40.89702029 182.31259526 40.44774924 185.74985435 40.4387207 189.24365234 C40.43967743 190.05021774 40.44063416 190.85678314 40.44161987 191.68778992 C40.44230106 193.39675982 40.44045103 195.10573231 40.4362793 196.81469727 C40.43095099 199.42193481 40.43621552 202.02899845 40.44262695 204.63623047 C40.44196575 206.29703814 40.44068372 207.9578457 40.4387207 209.61865234 C40.44074493 210.39590164 40.44276917 211.17315094 40.44485474 211.97395325 C40.4283501 215.81681893 40.2391888 219.39493172 39.3059082 223.13037109 C35.01772021 224.33385531 30.83326433 224.2780048 26.40991211 224.27563477 C25.06286949 224.28067268 25.06286949 224.28067268 23.68861389 224.28581238 C20.71988542 224.29531135 17.75121342 224.29726496 14.7824707 224.29833984 C12.7174782 224.30155315 10.65248592 224.30491728 8.5874939 224.3084259 C4.25827507 224.31441453 -0.07092381 224.31626607 -4.40014648 224.31567383 C-9.9439736 224.31557222 -15.48767259 224.32922427 -21.03146935 224.34644604 C-25.29687079 224.35757159 -29.56224132 224.35959286 -33.82765579 224.3590641 C-35.87135891 224.36024338 -37.91506285 224.36466225 -39.95875168 224.37239647 C-42.81902762 224.38220745 -45.67902612 224.37931387 -48.53930664 224.37329102 C-49.38106949 224.37891052 -50.22283234 224.38453003 -51.09010315 224.39031982 C-55.68862356 224.36574805 -59.36462585 223.88656531 -63.6940918 222.13037109 C-63.68885498 221.45047119 -63.68361816 220.77057129 -63.67822266 220.07006836 C-63.65724109 216.9443456 -63.64436492 213.81863775 -63.6315918 210.69287109 C-63.62321289 209.62359375 -63.61483398 208.55431641 -63.60620117 207.45263672 C-63.59153559 202.65699188 -63.63850041 197.9795451 -64.26049805 193.22021484 C-64.72463632 189.61615079 -64.3455425 186.72239789 -63.6940918 183.13037109 C-63.58874005 179.58791844 -63.64515124 176.04866744 -63.6940918 172.50537109 C-63.7196689 170.63824255 -63.74067785 168.7710445 -63.7565918 166.90380859 C-63.77399414 165.67283447 -63.77399414 165.67283447 -63.79174805 164.41699219 C-63.69630508 162.18219508 -63.318489 160.27212726 -62.6940918 158.13037109 C-63.3540918 157.80037109 -64.0140918 157.47037109 -64.6940918 157.13037109 C-64.5084668 156.18162109 -64.3228418 155.23287109 -64.1315918 154.25537109 C-63.40722547 151.23168316 -63.40722547 151.23168316 -64.6940918 149.13037109 C-64.79066437 147.38769166 -64.82484679 145.6413481 -64.8269043 143.89599609 C-64.82819336 142.84669922 -64.82948242 141.79740234 -64.83081055 140.71630859 C-64.82694336 139.61544922 -64.82307617 138.51458984 -64.8190918 137.38037109 C-64.82295898 136.29498047 -64.82682617 135.20958984 -64.83081055 134.09130859 C-64.82887695 132.50962891 -64.82887695 132.50962891 -64.8269043 130.89599609 C-64.82577637 129.93467773 -64.82464844 128.97335937 -64.82348633 127.98291016 C-64.6940918 125.13037109 -64.6940918 125.13037109 -64.17602539 122.03955078 C-63.75076629 119.47248524 -63.64908389 117.39300244 -63.8503418 114.81787109 C-63.90319336 114.05216797 -63.95604492 113.28646484 -64.01049805 112.49755859 C-64.07108398 111.71638672 -64.13166992 110.93521484 -64.1940918 110.13037109 C-64.60251049 104.86437682 -64.57345482 100.35845909 -63.6940918 95.13037109 C-63.74117999 91.53627449 -64.07745668 87.9588069 -64.37768555 84.37841797 C-64.69450386 79.92364339 -64.61917172 75.67686495 -64.20776367 71.22705078 C-63.62358909 64.00182206 -63.58391126 56.83244199 -63.6315918 49.58740234 C-63.63601142 48.24314046 -63.63982419 46.89887645 -63.64306641 45.55461121 C-63.65433905 41.35066627 -63.67365296 37.14678009 -63.6940918 32.94287109 C-63.71775104 28.02759422 -63.73805269 23.11234751 -63.75003052 18.19702721 C-63.75650284 16.23930992 -63.76907806 14.28161589 -63.78173828 12.32392883 C-63.7850415 11.14477402 -63.78834473 9.9656192 -63.79174805 8.75073242 C-63.79698486 7.71072586 -63.80222168 6.6707193 -63.80761719 5.59919739 C-63.6940918 3.13037109 -63.6940918 3.13037109 -62.6940918 1.13037109 C-41.78934503 0.21368886 -20.92199622 -0.02919937 0 0 Z " fill="#E9131F" transform="translate(312.694091796875,385.86962890625)"/>
<path d="M0 0 C1.17113799 0.00138269 1.17113799 0.00138269 2.36593533 0.00279331 C3.70584782 0.00073132 3.70584782 0.00073132 5.07282925 -0.00137234 C6.55420376 0.00402058 6.55420376 0.00402058 8.06550503 0.00952244 C9.09952953 0.00937641 10.13355404 0.00923038 11.19891262 0.00907993 C14.63485175 0.00977956 18.07073742 0.01757425 21.50666714 0.02539158 C23.88178382 0.02725558 26.25690089 0.02867957 28.63201809 0.0296793 C34.89727233 0.03350586 41.16250356 0.04333732 47.42774868 0.05438328 C53.81537979 0.06459443 60.2030146 0.06917628 66.59065151 0.0742197 C79.13428115 0.08495947 91.6778948 0.10184656 104.22151089 0.12304783 C105.00813877 4.57743377 105.3501677 8.75078739 105.35432339 13.27929783 C105.35528011 13.94465549 105.35623684 14.61001316 105.35722256 15.29553318 C105.35789916 16.69393096 105.35608136 18.09233197 105.35188198 19.49072361 C105.34652628 21.61693549 105.35184464 23.74293617 105.35822964 25.86914158 C105.35756876 27.23502746 105.35628741 28.6009132 105.35432339 29.96679783 C105.35319546 31.19591892 105.35206753 32.42504002 105.35090542 33.6914072 C105.2289901 36.92469347 104.83277628 39.94956671 104.22151089 43.12304783 C83.54090236 44.05787697 62.91860004 44.24575038 42.22151089 44.12304783 C42.38449673 45.24195408 42.54748257 46.36086033 42.71540737 47.51367283 C43.3124613 52.31169327 43.34830144 57.04374586 43.31916714 61.87304783 C43.31775219 62.77176609 43.31633724 63.67048435 43.31487942 64.5964365 C43.30932672 67.43867558 43.29678326 70.28083296 43.28401089 73.12304783 C43.27898977 75.06184877 43.27442793 77.00065095 43.27033901 78.93945408 C43.25937283 83.66734966 43.24214133 88.39518494 43.22151089 93.12304783 C43.80810986 93.13335529 44.39470882 93.14366276 44.99908352 93.15428257 C51.08188959 93.26211977 57.16454063 93.37673539 63.24714565 93.49536228 C65.51989925 93.53878448 67.79268701 93.58045399 70.06550503 93.62036228 C73.32464321 93.67788902 76.5836082 93.74163335 79.84260464 93.80664158 C80.86551098 93.82335407 81.88841732 93.84006657 82.94232082 93.8572855 C84.35367054 93.88720333 84.35367054 93.88720333 85.79353237 93.91772556 C86.62626171 93.93326984 87.45899105 93.94881413 88.31695461 93.96482944 C90.22151089 94.12304783 90.22151089 94.12304783 91.22151089 95.12304783 C91.41903799 97.97041243 91.55454957 100.7950587 91.64338589 103.64648533 C91.68523006 104.932159 91.68523006 104.932159 91.72791958 106.24380589 C91.78441722 108.0612155 91.83802238 109.87871695 91.88899136 111.69629002 C91.97097506 114.47985521 92.07450701 117.26210651 92.17854214 120.04492283 C92.2306626 121.80790458 92.28148656 123.57092523 92.33088589 125.33398533 C92.36510647 126.16844181 92.39932705 127.00289829 92.43458462 127.86264133 C92.48615932 130.21826267 92.48615932 130.21826267 92.22151089 134.12304783 C91.23151089 135.11304783 90.24151089 136.10304783 89.22151089 137.12304783 C74.04151089 137.12304783 58.86151089 137.12304783 43.22151089 137.12304783 C43.22151089 170.45304783 43.22151089 203.78304783 43.22151089 238.12304783 C43.88151089 238.45304783 44.54151089 238.78304783 45.22151089 239.12304783 C44.56151089 239.12304783 43.90151089 239.12304783 43.22151089 239.12304783 C42.89151089 240.11304783 42.56151089 241.10304783 42.22151089 242.12304783 C37.71199444 243.21626394 32.50150443 244.2630446 28.22151089 242.12304783 C27.89151089 242.78304783 27.56151089 243.44304783 27.22151089 244.12304783 C27.22151089 243.46304783 27.22151089 242.80304783 27.22151089 242.12304783 C26.68526089 242.19523533 26.14901089 242.26742283 25.59651089 242.34179783 C20.01112755 243.0032248 14.46561259 243.25937204 8.84651089 243.31054783 C8.15686245 243.32343845 7.46721401 243.33632908 6.75666714 243.34961033 C2.9739794 243.35701285 0.5059739 242.94289098 -2.77848911 241.12304783 C-2.80127903 210.56548949 -2.81898705 180.00793309 -2.82955444 149.45036829 C-2.83080522 145.84655117 -2.83209953 142.24273406 -2.83342075 138.63891697 C-2.83368306 137.92143173 -2.83394537 137.2039465 -2.83421563 136.46471929 C-2.83857242 124.83211115 -2.84646002 113.19950792 -2.85564191 101.5669027 C-2.8649782 89.6396173 -2.87054467 77.71233448 -2.87257761 65.78504556 C-2.87382917 59.08195885 -2.87685091 52.3788824 -2.88421917 45.67579937 C-2.89097518 39.37469604 -2.89310693 33.07360855 -2.89159679 26.77250195 C-2.89187331 24.45245115 -2.89388091 22.13239986 -2.89769459 19.81235218 C-2.90262529 16.6597584 -2.90148972 13.50722548 -2.89874363 10.35463047 C-2.90165647 9.42371572 -2.90456931 8.49280097 -2.90757042 7.53367668 C-2.89014598 0.19995972 -2.89014598 0.19995972 0 0 Z " fill="#EA141F" transform="translate(122.778489112854,379.8769521713257)"/>
<path d="M0 0 C0 57.75 0 115.5 0 175 C19.47 174.67 38.94 174.34 59 174 C62 176 62 176 62.41891479 177.85276794 C62.43906647 178.60316849 62.45921814 179.35356903 62.47998047 180.12670898 C62.5094577 180.97776718 62.53893494 181.82882538 62.56930542 182.70567322 C62.58510651 183.62651199 62.60090759 184.54735077 62.6171875 185.49609375 C62.64225372 186.44057877 62.66731995 187.38506378 62.69314575 188.35816956 C62.74217161 190.35783632 62.7837029 192.35769861 62.81835938 194.35766602 C62.87472179 197.42237236 62.96306074 200.48499674 63.0546875 203.54882812 C63.09828642 205.48954089 63.14001548 207.43029674 63.1796875 209.37109375 C63.20763397 210.28990829 63.23558044 211.20872284 63.26437378 212.15538025 C63.28022018 213.43669579 63.28022018 213.43669579 63.29638672 214.74389648 C63.31176483 215.49509262 63.32714294 216.24628876 63.34298706 217.02024841 C62.90306059 219.55954283 62.01942622 220.448804 60 222 C59.34 222 58.68 222 58 222 C58 221.34 58 220.68 58 220 C33.25 220 8.5 220 -17 220 C-17.33 220.66 -17.66 221.32 -18 222 C-18 221.34 -18 220.68 -18 220 C-27.24 220 -36.48 220 -46 220 C-47.1250632 210.99949439 -47.1250632 210.99949439 -47.16494751 206.78269958 C-47.17618149 205.82677917 -47.18741547 204.87085876 -47.19898987 203.88597107 C-47.20631638 202.86326614 -47.21364288 201.84056122 -47.22119141 200.78686523 C-47.2326973 199.68766754 -47.24420319 198.58846985 -47.25605774 197.45596313 C-47.29269336 193.82353458 -47.32242804 190.19108969 -47.3515625 186.55859375 C-47.37473666 183.99544586 -47.39812725 181.43229993 -47.42172241 178.86915588 C-47.47018294 173.47830292 -47.51513301 168.08743614 -47.55761719 162.6965332 C-47.60064637 157.24595178 -47.64911752 151.79545432 -47.703125 146.3449707 C-47.97256123 119.06234605 -48.17150112 91.81655397 -47.30555534 64.54384422 C-47.28254923 63.8174103 -47.25954311 63.09097637 -47.23583984 62.3425293 C-47.21335238 61.63445948 -47.19086491 60.92638966 -47.167696 60.19686317 C-46.81500645 48.53018704 -46.92826147 36.85782124 -47 25.1875 C-47.02029286 21.68963959 -47.03878072 18.1918223 -47.05102539 14.69392395 C-47.05848266 12.56490421 -47.0704381 10.43589379 -47.08764648 8.30693054 C-47.09094971 7.37186172 -47.09425293 6.43679291 -47.09765625 5.47338867 C-47.10551147 4.24418953 -47.10551147 4.24418953 -47.11352539 2.99015808 C-47 1 -47 1 -46 -1 C-40.25287037 -1.19270079 -34.50553835 -1.37135351 -28.75756836 -1.53710938 C-26.80302276 -1.59543951 -24.84858694 -1.65757934 -22.89428711 -1.72363281 C-20.08207183 -1.81801685 -17.26974403 -1.89860718 -14.45703125 -1.9765625 C-13.58601273 -2.00875885 -12.7149942 -2.0409552 -11.81758118 -2.0741272 C-10.58687141 -2.10438492 -10.58687141 -2.10438492 -9.33129883 -2.13525391 C-8.61404129 -2.15746002 -7.89678375 -2.17966614 -7.15779114 -2.20254517 C-5 -2 -5 -2 0 0 Z " fill="#EB1320" transform="translate(582,386)"/>
<path d="M0 0 C14.19 0 28.38 0 43 0 C43 73.92 43 147.84 43 224 C28.48 224 13.96 224 -1 224 C-1.33 218.39 -1.66 212.78 -2 207 C-2.33 206.01 -2.66 205.02 -3 204 C-2.84375 201.984375 -2.84375 201.984375 -2.5 199.75 C-1.96478426 195.62883878 -2.36693725 192.11490789 -3 188 C-2.69595322 186.32774271 -2.36871088 184.65919896 -2 183 C-2.33 182.01 -2.66 181.02 -3 180 C-2.835 179.360625 -2.67 178.72125 -2.5 178.0625 C-1.83304476 176.01837811 -1.83304476 176.01837811 -2.5 174.0625 C-3.13195701 171.45567731 -2.52191857 169.60959283 -2 167 C-2.36856864 164.76832815 -2.36856864 164.76832815 -3 163 C-2.34 163 -1.68 163 -1 163 C-1.350625 161.9275 -1.70125 160.855 -2.0625 159.75 C-2.98325832 156.06696671 -3.01896794 155.3625942 -2 152 C-1.80171795 148.5937976 -1.66087076 145.24347388 -2.5625 141.9375 C-3.09760575 139.56774596 -2.66207632 137.63979057 -2.25390625 135.2734375 C-1.79083258 131.12714714 -1.98580165 126.95864781 -2.0625 122.79296875 C-2 120 -2 120 -1 118 C-1.66 118 -2.32 118 -3 118 C-3.0269501 115.06243881 -3.04681474 112.12512445 -3.0625 109.1875 C-3.07087891 108.35412109 -3.07925781 107.52074219 -3.08789062 106.66210938 C-3.09111328 105.85966797 -3.09433594 105.05722656 -3.09765625 104.23046875 C-3.10289307 103.49207764 -3.10812988 102.75368652 -3.11352539 101.99291992 C-3 100 -3 100 -2 97 C-2.13457391 94.97557037 -2.13457391 94.97557037 -2.5 92.8125 C-2.91573394 89.62174198 -2.97674765 86.86979057 -2.5 83.6875 C-2.05120803 80.37765919 -2.15897953 79.0486992 -3 76 C-2.67449498 74.33178677 -2.34153937 72.66500443 -2 71 C-2.33 70.01 -2.66 69.02 -3 68 C-3.09267588 66.29367352 -3.12998202 64.58383413 -3.125 62.875 C-3.12757813 61.98554688 -3.13015625 61.09609375 -3.1328125 60.1796875 C-3 58 -3 58 -2 57 C-1.99550193 55.49389756 -2.06083436 53.98745872 -2.15625 52.484375 C-2.20910156 51.56269531 -2.26195312 50.64101563 -2.31640625 49.69140625 C-2.43783062 47.74603287 -2.56021081 45.80071889 -2.68359375 43.85546875 C-2.73644531 42.92863281 -2.78929687 42.00179687 -2.84375 41.046875 C-2.89724609 40.19963867 -2.95074219 39.35240234 -3.00585938 38.47949219 C-3 36 -3 36 -2.51147461 33.59130859 C-1.90080964 30.49746708 -1.922432 27.64482873 -1.97265625 24.4921875 C-1.99102539 22.64173828 -1.99102539 22.64173828 -2.00976562 20.75390625 C-2.04502883 18.16010181 -2.0841144 15.56634663 -2.12695312 12.97265625 C-2.13791016 11.74160156 -2.14886719 10.51054687 -2.16015625 9.2421875 C-2.17699463 8.1166748 -2.19383301 6.99116211 -2.21118164 5.83154297 C-2 3 -2 3 0 0 Z " fill="#EB131F" transform="translate(678,385)"/>
<path d="M0 0 C0 58.41 0 116.82 0 177 C-0.33 177 -0.66 177 -1 177 C-1 119.25 -1 61.5 -1 2 C-14.86 2 -28.72 2 -43 2 C-42.98839844 5.93421875 -42.97679687 9.8684375 -42.96484375 13.921875 C-42.9521187 19.86457985 -42.94385162 25.80728509 -42.9375 31.75 C-42.93664398 32.54470577 -42.93578796 33.33941154 -42.93490601 34.15819931 C-42.89737934 74.04409965 -43.20319229 113.92800725 -43.5 153.8125 C-43.50597372 154.61615431 -43.51194743 155.41980862 -43.51810217 156.24781609 C-43.55991025 161.86866316 -43.60198486 167.48950819 -43.64428711 173.11035156 C-43.64960862 173.81756017 -43.65493014 174.52476878 -43.66041291 175.25340796 C-43.77035873 189.83563114 -43.88574189 204.41780926 -44 219 C-9.02 219 25.96 219 62 219 C62 219.33 62 219.66 62 220 C26.69 220 -8.62 220 -45 220 C-45.61002979 215.72979147 -46.12522133 212.1077553 -46.16494751 207.9029541 C-46.17618149 206.94840836 -46.18741547 205.99386261 -46.19898987 205.01039124 C-46.20631638 203.98409103 -46.21364288 202.95779083 -46.22119141 201.90039062 C-46.2326973 200.80133896 -46.24420319 199.70228729 -46.25605774 198.56993103 C-46.29274117 194.93206544 -46.32244712 191.29418351 -46.3515625 187.65625 C-46.37473268 185.09167284 -46.39812327 182.52709766 -46.42172241 179.96252441 C-46.47020932 174.56569521 -46.51515607 169.16885219 -46.55761719 163.77197266 C-46.6006292 158.31455513 -46.64909302 152.85722181 -46.703125 147.39990234 C-46.97253835 120.09810702 -47.17228381 92.8330118 -46.30555534 65.54113865 C-46.28254923 64.81487247 -46.25954311 64.08860628 -46.23583984 63.34033203 C-46.21335238 62.63245765 -46.19086491 61.92458326 -46.167696 61.19525814 C-45.81492237 49.52912201 -45.92826478 37.85728284 -46 26.1875 C-46.02029286 22.68963959 -46.03878072 19.1918223 -46.05102539 15.69392395 C-46.05848266 13.56490421 -46.0704381 11.43589379 -46.08764648 9.30693054 C-46.09094971 8.37186172 -46.09425293 7.43679291 -46.09765625 6.47338867 C-46.10551147 5.24418953 -46.10551147 5.24418953 -46.11352539 3.99015808 C-46 2 -46 2 -45 0 C-39.23438773 -0.16776425 -33.46863657 -0.32830841 -27.70263672 -0.48217773 C-25.74131873 -0.53553259 -23.78005328 -0.59085676 -21.81884766 -0.64819336 C-18.99913866 -0.73028615 -16.17931632 -0.80528481 -13.359375 -0.87890625 C-12.48319519 -0.90594131 -11.60701538 -0.93297638 -10.70428467 -0.96083069 C-9.88373596 -0.98092697 -9.06318726 -1.00102325 -8.21777344 -1.02172852 C-7.49829529 -1.04171402 -6.77881714 -1.06169952 -6.03753662 -1.08229065 C-4 -1 -4 -1 0 0 Z " fill="#BA0D14" transform="translate(581,385)"/>
<path d="M0 0 C0.33 0 0.66 0 1 0 C1.73713306 5.77466071 2.14530506 11.43059685 2.12698364 17.25022888 C2.12932363 18.41877642 2.12932363 18.41877642 2.13171089 19.61093098 C2.13566626 22.19433516 2.13255249 24.77767948 2.12939453 27.36108398 C2.1307511 29.22480809 2.13253247 31.08853192 2.13470459 32.95225525 C2.13925137 37.99823122 2.13749994 43.04418667 2.1343255 48.09016299 C2.13178427 53.39084346 2.13414466 58.69152222 2.13571167 63.99220276 C2.13752965 72.90195021 2.13513828 81.81168936 2.13037109 90.72143555 C2.12494423 100.9817285 2.12668114 111.24200154 2.1321975 121.502294 C2.13675722 130.34090196 2.1373648 139.17950397 2.13475883 148.01811272 C2.13320978 153.28352151 2.13296398 158.54892098 2.13629532 163.81432915 C2.13921521 168.77610375 2.13712386 173.7378531 2.13140106 178.69962502 C2.13009465 180.50619846 2.1304308 182.31277408 2.13266373 184.11934662 C2.1457323 195.78135354 1.76674482 207.36267099 1 219 C1.66 218.67 2.32 218.34 3 218 C16.2 218 29.4 218 43 218 C43 147.05 43 76.1 43 3 C43.33 3 43.66 3 44 3 C44 74.61 44 146.22 44 220 C29.48 220 14.96 220 0 220 C-0.33 214.39 -0.66 208.78 -1 203 C-1.33 202.01 -1.66 201.02 -2 200 C-1.84375 197.984375 -1.84375 197.984375 -1.5 195.75 C-0.96478426 191.62883878 -1.36693725 188.11490789 -2 184 C-1.69595322 182.32774271 -1.36871088 180.65919896 -1 179 C-1.33 178.01 -1.66 177.02 -2 176 C-1.835 175.360625 -1.67 174.72125 -1.5 174.0625 C-0.83304476 172.01837811 -0.83304476 172.01837811 -1.5 170.0625 C-2.13195701 167.45567731 -1.52191857 165.60959283 -1 163 C-1.36856864 160.76832815 -1.36856864 160.76832815 -2 159 C-1.34 159 -0.68 159 0 159 C-0.350625 157.9275 -0.70125 156.855 -1.0625 155.75 C-1.98325832 152.06696671 -2.01896794 151.3625942 -1 148 C-0.80171795 144.5937976 -0.66087076 141.24347388 -1.5625 137.9375 C-2.09760575 135.56774596 -1.66207632 133.63979057 -1.25390625 131.2734375 C-0.79083258 127.12714714 -0.98580165 122.95864781 -1.0625 118.79296875 C-1 116 -1 116 0 114 C-0.66 114 -1.32 114 -2 114 C-2.0269501 111.06243881 -2.04681474 108.12512445 -2.0625 105.1875 C-2.07087891 104.35412109 -2.07925781 103.52074219 -2.08789062 102.66210938 C-2.09111328 101.85966797 -2.09433594 101.05722656 -2.09765625 100.23046875 C-2.10289307 99.49207764 -2.10812988 98.75368652 -2.11352539 97.99291992 C-2 96 -2 96 -1 93 C-1.13457391 90.97557037 -1.13457391 90.97557037 -1.5 88.8125 C-1.91573394 85.62174198 -1.97674765 82.86979057 -1.5 79.6875 C-1.05120803 76.37765919 -1.15897953 75.0486992 -2 72 C-1.67449498 70.33178677 -1.34153937 68.66500443 -1 67 C-1.33 66.01 -1.66 65.02 -2 64 C-2.09267588 62.29367352 -2.12998202 60.58383413 -2.125 58.875 C-2.12757813 57.98554688 -2.13015625 57.09609375 -2.1328125 56.1796875 C-2 54 -2 54 -1 53 C-0.99550193 51.49389756 -1.06083436 49.98745872 -1.15625 48.484375 C-1.20910156 47.56269531 -1.26195312 46.64101563 -1.31640625 45.69140625 C-1.43783062 43.74603287 -1.56021081 41.80071889 -1.68359375 39.85546875 C-1.73644531 38.92863281 -1.78929687 38.00179687 -1.84375 37.046875 C-1.89724609 36.19963867 -1.95074219 35.35240234 -2.00585938 34.47949219 C-1.99965548 31.85421193 -1.53934946 29.56344802 -1 27 C-0.93566344 25.63156146 -0.91380426 24.26037014 -0.9375 22.890625 C-0.94587891 22.13958496 -0.95425781 21.38854492 -0.96289062 20.61474609 C-0.98125977 19.44419678 -0.98125977 19.44419678 -1 18.25 C-1.05472627 12.07712527 -0.9066868 6.12013593 0 0 Z " fill="#BD0D15" transform="translate(677,389)"/>
<path d="M0 0 C-0.31525635 0.72550049 -0.6305127 1.45100098 -0.95532227 2.19848633 C-7.46276755 17.18020116 -13.94457462 32.17255275 -20.375 47.1875 C-20.68390167 47.90875061 -20.99280334 48.63000122 -21.31106567 49.37310791 C-23.54157423 54.58170233 -25.77087173 59.79081475 -28 65 C-30.34495916 70.4796729 -32.69044243 75.95912067 -35.03692627 81.43814087 C-35.96312011 83.60136318 -36.88856835 85.7649033 -37.81396484 87.9284668 C-38.10500092 88.60746536 -38.39603699 89.28646393 -38.69589233 89.98603821 C-39.26922142 91.32618509 -39.84008345 92.66739035 -40.40835571 94.00968933 C-41.8771979 97.46290249 -43.40288978 100.87325827 -45.02734375 104.25634766 C-50.00045474 114.25019584 -50.00045474 114.25019584 -49 125 C-48.70851074 125.87269531 -48.41702148 126.74539063 -48.11669922 127.64453125 C-46.97214264 130.80090878 -45.71784832 133.89626298 -44.4375 137 C-43.70397167 138.8219456 -42.97051132 140.64391928 -42.23884583 142.46661377 C-41.70715899 143.78971305 -41.17406811 145.11224883 -40.63969421 146.43426514 C-37.26792121 154.78065639 -34.00521795 163.16964773 -30.73733521 171.55712891 C-29.7134717 174.18338152 -28.68700752 176.80860366 -27.65991211 179.43359375 C-26.06754592 183.50550264 -24.48577037 187.58140727 -22.90911865 191.65942383 C-21.99811639 194.00484947 -21.07486707 196.34521167 -20.15087891 198.68554688 C-19.58577136 200.13913187 -19.02113128 201.59289871 -18.45703125 203.046875 C-18.19202316 203.7089093 -17.92701508 204.3709436 -17.65397644 205.05303955 C-15.88626594 209.65879783 -15.88626594 209.65879783 -17 213 C-22.56048441 199.15813734 -28.09798808 185.3076343 -33.51391602 171.40844727 C-35.96647132 165.12547238 -38.45552236 158.86066648 -41.00752258 152.61732483 C-42.41691871 149.16480698 -43.81378842 145.70727903 -45.20986938 142.24935913 C-45.89861627 140.55296402 -46.59318549 138.85892022 -47.29379272 137.16738892 C-48.27861772 134.78797743 -49.24272918 132.40107519 -50.203125 130.01171875 C-50.50146744 129.30554413 -50.79980988 128.59936951 -51.10719299 127.87179565 C-54.04348962 120.44586933 -52.24058777 114.99155978 -49.3125 107.875 C-49.04268311 107.21669189 -48.77286621 106.55838379 -48.49487305 105.88012695 C-46.86142151 101.93654221 -45.12612619 98.05199999 -43.3125 94.1875 C-39.99316049 87.10850044 -36.98138784 79.91032857 -33.95361328 72.70263672 C-30.76693966 65.13573536 -27.53536568 57.58947581 -24.2734375 50.0546875 C-23.85670273 49.09182327 -23.43996796 48.12895905 -23.01060486 47.13691711 C-20.91866097 42.30539221 -18.8237367 37.47517876 -16.72583008 32.64624023 C-15.93565103 30.8227793 -15.14552834 28.99929394 -14.35546875 27.17578125 C-14.00571991 26.37320892 -13.65597107 25.5706366 -13.29562378 24.7437439 C-10.03799444 17.21644038 -7.05072091 9.62680228 -4 2 C-19.51 1.67 -35.02 1.34 -51 1 C-51.99 4.3 -52.98 7.6 -54 11 C-55.22102474 14.30738439 -56.46386327 17.59366611 -57.75 20.875 C-60.89800599 29.0009415 -63.86500537 37.17078972 -66.65332031 45.42724609 C-68.15091808 49.80630932 -69.81072655 53.90415208 -72 58 C-73.29674472 54.39949744 -72.70007379 52.44270005 -71.296875 48.94140625 C-70.89839355 47.92868652 -70.49991211 46.9159668 -70.08935547 45.87255859 C-69.64736816 44.78023926 -69.20538086 43.68791992 -68.75 42.5625 C-67.8297569 40.23345684 -66.91052632 37.90401342 -65.9921875 35.57421875 C-65.50588867 34.34880371 -65.01958984 33.12338867 -64.51855469 31.86083984 C-62.15417595 25.87563535 -59.8875731 19.85301254 -57.61437988 13.83273315 C-56.87921454 11.88615927 -56.14251981 9.94017134 -55.40527344 7.99438477 C-54.2694525 4.99653199 -53.13440269 1.99838966 -52 -1 C-44.91616971 -1.19327149 -37.83207185 -1.3707563 -30.74755859 -1.53710938 C-28.33600854 -1.59561847 -25.92454435 -1.65778248 -23.51318359 -1.72363281 C-20.05321889 -1.81749129 -16.59316136 -1.89833247 -13.1328125 -1.9765625 C-11.50776291 -2.02485703 -11.50776291 -2.02485703 -9.84988403 -2.0741272 C-8.8489975 -2.09429901 -7.84811096 -2.11447083 -6.81689453 -2.13525391 C-5.49118942 -2.16856308 -5.49118942 -2.16856308 -4.13870239 -2.20254517 C-2 -2 -2 -2 0 0 Z " fill="#B20D14" transform="translate(903,381)"/>
<path d="M0 0 C0.33 0 0.66 0 1 0 C1 57.75 1 115.5 1 175 C20.47 174.67 39.94 174.34 60 174 C63 176 63 176 63.41891479 177.85276794 C63.43906647 178.60316849 63.45921814 179.35356903 63.47998047 180.12670898 C63.5094577 180.97776718 63.53893494 181.82882538 63.56930542 182.70567322 C63.58510651 183.62651199 63.60090759 184.54735077 63.6171875 185.49609375 C63.64225372 186.44057877 63.66731995 187.38506378 63.69314575 188.35816956 C63.74217161 190.35783632 63.7837029 192.35769861 63.81835938 194.35766602 C63.87472179 197.42237236 63.96306074 200.48499674 64.0546875 203.54882812 C64.09828642 205.48954089 64.14001548 207.43029674 64.1796875 209.37109375 C64.20763397 210.28990829 64.23558044 211.20872284 64.26437378 212.15538025 C64.28022018 213.43669579 64.28022018 213.43669579 64.29638672 214.74389648 C64.31176483 215.49509262 64.32714294 216.24628876 64.34298706 217.02024841 C63.90306059 219.55954283 63.01942622 220.448804 61 222 C60.34 222 59.68 222 59 222 C59 221.34 59 220.68 59 220 C34.25 220 9.5 220 -16 220 C-16.33 220.66 -16.66 221.32 -17 222 C-17 221.34 -17 220.68 -17 220 C-26.24 220 -35.48 220 -45 220 C-45 219.67 -45 219.34 -45 219 C-10.02 218.67 24.96 218.34 61 218 C61 206.12 61 194.24 61 182 C61.33 180.35 61.66 178.7 62 177 C41.54 177 21.08 177 0 177 C0 118.59 0 60.18 0 0 Z " fill="#D0161E" transform="translate(581,386)"/>
<path d="M0 0 C1.17113799 0.00138269 1.17113799 0.00138269 2.36593533 0.00279331 C3.70584782 0.00073132 3.70584782 0.00073132 5.07282925 -0.00137234 C6.55420376 0.00402058 6.55420376 0.00402058 8.06550503 0.00952244 C9.09952953 0.00937641 10.13355404 0.00923038 11.19891262 0.00907993 C14.63485175 0.00977956 18.07073742 0.01757425 21.50666714 0.02539158 C23.88178382 0.02725558 26.25690089 0.02867957 28.63201809 0.0296793 C34.89727233 0.03350586 41.16250356 0.04333732 47.42774868 0.05438328 C53.81537979 0.06459443 60.2030146 0.06917628 66.59065151 0.0742197 C79.13428115 0.08495947 91.6778948 0.10184656 104.22151089 0.12304783 C105.00813877 4.57743377 105.3501677 8.75078739 105.35432339 13.27929783 C105.35528011 13.94465549 105.35623684 14.61001316 105.35722256 15.29553318 C105.35789916 16.69393096 105.35608136 18.09233197 105.35188198 19.49072361 C105.34652628 21.61693549 105.35184464 23.74293617 105.35822964 25.86914158 C105.35756876 27.23502746 105.35628741 28.6009132 105.35432339 29.96679783 C105.35319546 31.19591892 105.35206753 32.42504002 105.35090542 33.6914072 C105.2289901 36.92469347 104.83277628 39.94956671 104.22151089 43.12304783 C59.70785376 44.91158545 59.70785376 44.91158545 44.22151089 42.12304783 C44.22151089 41.79304783 44.22151089 41.46304783 44.22151089 41.12304783 C63.69151089 41.12304783 83.16151089 41.12304783 103.22151089 41.12304783 C102.89151089 28.25304783 102.56151089 15.38304783 102.22151089 2.12304783 C68.23151089 2.12304783 34.24151089 2.12304783 -0.77848911 2.12304783 C-0.77848911 10.70304783 -0.77848911 19.28304783 -0.77848911 28.12304783 C-1.43848911 28.12304783 -2.09848911 28.12304783 -2.77848911 28.12304783 C-2.8073525 23.64389455 -2.82524099 19.16476492 -2.84098911 14.68554783 C-2.84936802 13.4061533 -2.85774693 12.12675877 -2.86637974 10.8085947 C-2.86960239 9.5936533 -2.87282505 8.37871189 -2.87614536 7.12695408 C-2.88138218 6.00103855 -2.886619 4.87512302 -2.8920145 3.71508884 C-2.73759774 0.18940541 -2.73759774 0.18940541 0 0 Z " fill="#BD0E15" transform="translate(122.778489112854,379.8769521713257)"/>
<path d="M0 0 C4.64497554 4.64497554 3.24769119 14.73161004 3.2512207 21.06567383 C2.9605319 39.08252655 -0.80124559 55.56665391 -12 70 C-12.598125 70.886875 -13.19625 71.77375 -13.8125 72.6875 C-27.84438093 87.52120269 -47.4035357 90.21002241 -66.7265625 90.88671875 C-72.48317077 91.01037922 -78.24206368 91 -84 91 C-84.33 116.41 -84.66 141.82 -85 168 C-85.66 168 -86.32 168 -87 168 C-87.02312392 157.84733849 -87.04091534 147.6946832 -87.05181217 137.54200077 C-87.05704089 132.82820267 -87.06413834 128.11442253 -87.07543945 123.40063477 C-87.08626873 118.85544596 -87.09227692 114.31027448 -87.09487724 109.76507378 C-87.09673142 108.02705042 -87.10035189 106.28902806 -87.10573006 104.55101204 C-87.11294103 102.12521405 -87.11399092 99.69948854 -87.11352539 97.27368164 C-87.11712067 96.54791931 -87.12071594 95.82215698 -87.12442017 95.07440186 C-87.11405216 90.11405216 -87.11405216 90.11405216 -86 89 C-83.52443297 88.81721182 -81.06927912 88.69365275 -78.58984375 88.60546875 C-77.02535993 88.53650002 -75.46090766 88.4668127 -73.89648438 88.39648438 C-71.4421515 88.29063779 -68.98800011 88.18930998 -66.53295898 88.10131836 C-47.94257278 87.41631901 -30.35404582 84.80051355 -16.32421875 71.51953125 C-1.10463737 55.02099346 0.21202244 34.14820234 0.0625 12.8125 C0.05798828 11.57435547 0.05347656 10.33621094 0.04882812 9.06054688 C0.03716699 6.04031215 0.02080236 3.02018323 0 0 Z " fill="#BB1017" transform="translate(512,437)"/>
<path d="M0 0 C0.72453369 0.00410889 1.44906738 0.00821777 2.19555664 0.01245117 C2.98768555 0.01438477 3.77981445 0.01631836 4.59594727 0.01831055 C5.42416992 0.03055664 6.25239258 0.04280273 7.10571289 0.05541992 C7.93006836 0.05606445 8.75442383 0.05670898 9.60375977 0.05737305 C13.11309733 0.08303027 15.8077659 0.12277093 19.16821289 1.24291992 C20.75932497 4.42514409 20.31005393 7.86240318 20.30102539 11.35620117 C20.30198212 12.16276657 20.30293884 12.96933197 20.30392456 13.80033875 C20.30460575 15.50930865 20.30275571 17.21828114 20.29858398 18.92724609 C20.29325568 21.53448364 20.29852021 24.14154728 20.30493164 26.7487793 C20.30427044 28.40958697 20.30298841 30.07039453 20.30102539 31.73120117 C20.30304962 32.50845047 20.30507385 33.28569977 20.30715942 34.08650208 C20.29065478 37.92936776 20.10149349 41.50748055 19.16821289 45.24291992 C14.8800249 46.44640413 10.69556902 46.39055363 6.2722168 46.38818359 C5.37418839 46.39154221 4.47615997 46.39490082 3.55091858 46.39836121 C0.58219011 46.40786017 -2.38648189 46.40981379 -5.35522461 46.41088867 C-7.42021712 46.41410198 -9.48520939 46.41746611 -11.55020142 46.42097473 C-15.87942025 46.42696336 -20.20861912 46.4288149 -24.5378418 46.42822266 C-30.08166891 46.42812105 -35.62536791 46.4417731 -41.16916466 46.45899487 C-45.4345661 46.47012042 -49.69993663 46.47214169 -53.9653511 46.47161293 C-56.00905423 46.47279221 -58.05275817 46.47721108 -60.09644699 46.4849453 C-62.95672293 46.49475628 -65.81672143 46.4918627 -68.67700195 46.48583984 C-69.5187648 46.49145935 -70.36052765 46.49707886 -71.22779846 46.50286865 C-72.40527397 46.49657692 -72.40527397 46.49657692 -73.60653687 46.49015808 C-74.28162481 46.49070285 -74.95671276 46.49124762 -75.65225792 46.49180889 C-77.83178711 46.24291992 -77.83178711 46.24291992 -83.83178711 44.24291992 C-83.83178711 37.64291992 -83.83178711 31.04291992 -83.83178711 24.24291992 C-83.17178711 23.91291992 -82.51178711 23.58291992 -81.83178711 23.24291992 C-81.83178711 29.84291992 -81.83178711 36.44291992 -81.83178711 43.24291992 C-48.83178711 43.24291992 -15.83178711 43.24291992 18.16821289 43.24291992 C17.67321289 39.77791992 17.67321289 39.77791992 17.16821289 36.24291992 C17.07951486 33.70632368 17.03761753 31.16778424 17.03540039 28.62963867 C17.03444366 27.93401321 17.03348694 27.23838776 17.03250122 26.52168274 C17.03182579 25.06539824 17.03363524 23.60911061 17.0378418 22.15283203 C17.0432402 19.91912173 17.03785449 17.68560877 17.03149414 15.4519043 C17.03215424 14.03198198 17.03343398 12.61205978 17.03540039 11.19213867 C17.03652832 9.90654053 17.03765625 8.62094238 17.03881836 7.29638672 C17.16821289 4.24291992 17.16821289 4.24291992 18.16821289 2.24291992 C10.90821289 2.24291992 3.64821289 2.24291992 -3.83178711 2.24291992 C-1.83178711 0.24291992 -1.83178711 0.24291992 0 0 Z " fill="#BF0D15" transform="translate(332.831787109375,563.757080078125)"/>
<path d="M0 0 C0.21700021 5.49873202 0.41386992 10.99767537 0.59204102 16.49780273 C0.65550484 18.36909282 0.72448516 20.24020424 0.79907227 22.11108398 C0.90527889 24.79903823 0.9916863 27.48700897 1.07421875 30.17578125 C1.11157639 31.01337479 1.14893402 31.85096832 1.18742371 32.71394348 C1.2487793 35.0793457 1.2487793 35.0793457 1 39 C0.01 39.99 -0.98 40.98 -2 42 C-17.18 42 -32.36 42 -48 42 C-48 75.33 -48 108.66 -48 143 C-47.34 143.33 -46.68 143.66 -46 144 C-46.66 144 -47.32 144 -48 144 C-48.33 144.99 -48.66 145.98 -49 147 C-53.50951645 148.09321611 -58.72000646 149.13999677 -63 147 C-63.33 147.66 -63.66 148.32 -64 149 C-64 148.34 -64 147.68 -64 147 C-64.58265625 147.08378906 -65.1653125 147.16757812 -65.765625 147.25390625 C-72.64981275 148.10901762 -79.1183299 147.7685714 -86 147 C-86 146.67 -86 146.34 -86 146 C-74.12 146 -62.24 146 -50 146 C-50.00523682 142.8244751 -50.01047363 139.6489502 -50.01586914 136.37719727 C-50.03240281 125.91177229 -50.04347033 115.44634676 -50.05181217 104.98091221 C-50.05704164 98.63269424 -50.06414044 92.2844896 -50.07543945 85.9362793 C-50.08626606 79.81551418 -50.09227635 73.69476191 -50.09487724 67.57398796 C-50.0967319 65.23309057 -50.10035329 62.89219391 -50.10573006 60.55130196 C-50.11293748 57.28491798 -50.11399107 54.01858785 -50.11352539 50.75219727 C-50.11712067 49.773965 -50.12071594 48.79573273 -50.12442017 47.78785706 C-50.1230455 46.90299622 -50.12167084 46.01813538 -50.12025452 45.10646057 C-50.12117631 44.33307626 -50.1220981 43.55969194 -50.12304783 42.76287174 C-50 41 -50 41 -49 40 C-47.52645652 39.90695982 -46.04849409 39.88253735 -44.57202148 39.88647461 C-43.63112167 39.88655014 -42.69022186 39.88662567 -41.72080994 39.88670349 C-40.69790359 39.89186478 -39.67499725 39.89702606 -38.62109375 39.90234375 C-37.57929459 39.9037587 -36.53749542 39.90517365 -35.46412659 39.90663147 C-32.12188906 39.9122492 -28.77971743 39.9248047 -25.4375 39.9375 C-23.17773534 39.94251272 -20.91796963 39.94707602 -18.65820312 39.95117188 C-13.10542266 39.96137544 -7.55278548 39.98094736 -2 40 C-2 27.13 -2 14.26 -2 1 C-17.51 1 -33.02 1 -49 1 C-49 0.67 -49 0.34 -49 0 C-42.34326276 -0.16800441 -35.68636714 -0.32793562 -29.02929688 -0.48217773 C-26.76330137 -0.53564249 -24.49734915 -0.59097521 -22.23144531 -0.64819336 C-18.97991269 -0.7299795 -15.72828503 -0.80511006 -12.4765625 -0.87890625 C-11.45881744 -0.90594131 -10.44107239 -0.93297638 -9.39248657 -0.96083069 C-8.45166229 -0.98092697 -7.51083801 -1.00102325 -6.54150391 -1.02172852 C-5.29574081 -1.05170677 -5.29574081 -1.05170677 -4.02481079 -1.08229065 C-2 -1 -2 -1 0 0 Z " fill="#A3080E" transform="translate(214,475)"/>
<path d="M0 0 C3.96812206 3.31792375 6.029695 6.18072972 6.62109375 11.35546875 C4.54484188 9.48684207 3.34598734 7.87657982 1.93359375 5.41796875 C-2.09380834 0.08438219 -6.96046136 -1.36084227 -13.37890625 -2.64453125 C-19.64890625 -2.97453125 -25.91890625 -3.30453125 -32.37890625 -3.64453125 C-32.37890625 17.14546875 -32.37890625 37.93546875 -32.37890625 59.35546875 C-14.5911308 60.37763032 -14.5911308 60.37763032 0.87109375 53.16796875 C5.08840806 46.39014218 6.75952433 39.34943255 6.71875 31.3984375 C6.71552734 30.28662109 6.71230469 29.17480469 6.70898438 28.02929688 C6.70060547 26.87880859 6.69222656 25.72832031 6.68359375 24.54296875 C6.67908203 23.37314453 6.67457031 22.20332031 6.66992188 20.99804688 C6.65816305 18.11713517 6.64172801 15.23632831 6.62109375 12.35546875 C11.00217722 16.73655222 9.92962101 25.187828 9.93579102 31.078125 C9.74674595 40.83240303 7.32138498 49.36850494 0.79296875 56.76953125 C-6.24834773 61.91121199 -13.43243707 61.76660209 -21.81640625 61.60546875 C-23.46672852 61.59773438 -23.46672852 61.59773438 -25.15039062 61.58984375 C-33.22432305 61.51005195 -33.22432305 61.51005195 -34.37890625 60.35546875 C-34.47300104 58.33052644 -34.49633747 56.30227005 -34.49243164 54.27514648 C-34.49235611 52.97387314 -34.49228058 51.67259979 -34.49220276 50.33189392 C-34.48709534 48.90094973 -34.48187933 47.47000593 -34.4765625 46.0390625 C-34.47469828 44.58317615 -34.4732744 43.12728918 -34.47227478 41.67140198 C-34.4684499 37.83267496 -34.45861989 33.99398556 -34.4475708 30.15527344 C-34.43735603 26.24089059 -34.43277702 22.32650169 -34.42773438 18.41210938 C-34.41699759 10.72654532 -34.39992154 3.0410123 -34.37890625 -4.64453125 C-22.84184359 -6.3250115 -9.96532665 -7.06481577 0 0 Z " fill="#BA0F16" transform="translate(459.37890625,427.64453125)"/>
<path d="M0 0 C17.49 0 34.98 0 53 0 C56 8 56 8 55 12 C52 5.375 52 5.375 52 2 C35.83 2 19.66 2 3 2 C4.53269531 5.59648437 6.06539062 9.19296875 7.64453125 12.8984375 C8.90274123 15.85136942 10.16088414 18.8043299 11.41898346 21.75730896 C12.72698728 24.82737367 14.03513349 27.89737748 15.34350586 30.96728516 C17.87805694 36.91434501 20.41079692 42.86216211 22.93994141 48.81152344 C24.74987031 53.06825784 26.5656376 57.32236721 28.39065647 61.57264519 C29.66348495 64.5392026 30.93066648 67.50817451 32.19921875 70.4765625 C32.66834183 71.5639975 33.1374649 72.6514325 33.62080383 73.77182007 C34.05104355 74.78120636 34.48128326 75.79059265 34.92456055 76.83056641 C35.30259323 77.71144928 35.68062592 78.59233215 36.07011414 79.49990845 C36.99725274 81.99261373 37.55468742 84.3820017 38 87 C34.93733876 84.42295801 33.78744498 81.57775201 32.28515625 77.91015625 C32.03352722 77.30251938 31.78189819 76.69488251 31.52264404 76.0688324 C30.97991751 74.75604753 30.4405548 73.44186799 29.90420532 72.12646484 C28.75991683 69.32052889 27.59922643 66.52147545 26.4394989 63.72189331 C25.84142512 62.27767892 25.24419406 60.83311527 24.64778137 59.38821411 C21.76151902 52.40000706 18.79780752 45.44651523 15.8125 38.5 C15.32563721 37.36457764 14.83877441 36.22915527 14.3371582 35.05932617 C11.92112827 29.43405776 9.48658451 23.8174547 7.02734375 18.2109375 C6.55901123 17.14166016 6.09067871 16.07238281 5.6081543 14.97070312 C4.72375787 12.95485796 3.83606569 10.94045447 2.94458008 8.92773438 C2.5555249 8.04150391 2.16646973 7.15527344 1.765625 6.2421875 C1.42305664 5.4672998 1.08048828 4.69241211 0.72753906 3.89404297 C0 2 0 2 0 0 Z " fill="#B50C12" transform="translate(746,380)"/>
<path d="M0 0 C0.66 0 1.32 0 2 0 C2.0493521 5.51756476 2.08569662 11.03500171 2.10986328 16.55273438 C2.11993534 18.43068682 2.13359362 20.30862353 2.15087891 22.18652344 C2.17507453 24.8822009 2.18647083 27.57767146 2.1953125 30.2734375 C2.20563507 31.11619232 2.21595764 31.95894714 2.22659302 32.82723999 C2.22699144 34.88621247 2.12257588 36.94467935 2 39 C0 41 0 41 -2.4803772 41.24050903 C-3.52406464 41.23606781 -4.56775208 41.23162659 -5.64306641 41.22705078 C-6.82413971 41.22689972 -8.00521301 41.22674866 -9.22207642 41.22659302 C-10.50230682 41.21627045 -11.78253723 41.20594788 -13.1015625 41.1953125 C-15.06166763 41.19106766 -15.06166763 41.19106766 -17.06137085 41.18673706 C-20.53682081 41.17909776 -24.01210383 41.1594469 -27.48748779 41.1373291 C-31.03330222 41.11687696 -34.5791436 41.10773671 -38.125 41.09765625 C-45.08340195 41.07620116 -52.04169296 41.04206173 -59 41 C-59.90847566 44.39026894 -60.16586176 47.4546049 -60.24609375 50.97265625 C-60.27896484 52.11927734 -60.31183594 53.26589844 -60.34570312 54.44726562 C-60.40699773 56.8612298 -60.46427693 59.27529922 -60.51757812 61.68945312 C-60.55173828 62.83478516 -60.58589844 63.98011719 -60.62109375 65.16015625 C-60.6461499 66.20824463 -60.67120605 67.25633301 -60.69702148 68.33618164 C-61 71 -61 71 -63 74 C-63.0246519 69.17619198 -63.04283693 64.35242033 -63.05493164 59.52856445 C-63.05997174 57.88630536 -63.06680378 56.24405077 -63.07543945 54.60180664 C-63.08751926 52.24624521 -63.09323139 49.89074291 -63.09765625 47.53515625 C-63.10281754 46.79660904 -63.10797882 46.05806183 -63.11329651 45.2971344 C-63.1134925 43.53101912 -63.06194719 41.76502854 -63 40 C-61.23246465 38.23246465 -58.68441194 38.82913939 -56.28686523 38.79467773 C-55.0656749 38.77473251 -53.84448456 38.75478729 -52.58628845 38.73423767 C-51.24372487 38.71725209 -49.90115993 38.70037333 -48.55859375 38.68359375 C-47.19238139 38.66303053 -45.82617549 38.64203423 -44.4599762 38.62062073 C-40.85805476 38.56533465 -37.25607529 38.51595437 -33.65405273 38.46777344 C-29.98090438 38.41760597 -26.30783958 38.36194894 -22.63476562 38.30664062 C-15.42324065 38.19845754 -8.21167128 38.09948593 -1 38 C-0.67 25.46 -0.34 12.92 0 0 Z " fill="#A70C12" transform="translate(353,387)"/>
<path d="M0 0 C0.33 0 0.66 0 1 0 C1 24.09 1 48.18 1 73 C-1.23551759 69.64672361 -1.17283528 69.09256343 -0.625 65.3125 C-0.51414063 64.50425781 -0.40328125 63.69601562 -0.2890625 62.86328125 C-0.19367188 62.24839844 -0.09828125 61.63351562 0 61 C-0.66 60.67 -1.32 60.34 -2 60 C-1.7215625 58.576875 -1.7215625 58.576875 -1.4375 57.125 C-0.71313368 54.10131207 -0.71313368 54.10131207 -2 52 C-2.09657257 50.25732057 -2.130755 48.51097701 -2.1328125 46.765625 C-2.13410156 45.71632813 -2.13539063 44.66703125 -2.13671875 43.5859375 C-2.13285156 42.48507812 -2.12898437 41.38421875 -2.125 40.25 C-2.12886719 39.16460938 -2.13273438 38.07921875 -2.13671875 36.9609375 C-2.13478516 35.37925781 -2.13478516 35.37925781 -2.1328125 33.765625 C-2.13168457 32.80430664 -2.13055664 31.84298828 -2.12939453 30.85253906 C-2 28 -2 28 -1.47973633 24.91357422 C-1.05146676 22.31257219 -0.96755557 20.22446047 -1.19140625 17.6171875 C-1.24876953 16.84246094 -1.30613281 16.06773437 -1.36523438 15.26953125 C-1.49741066 13.66509434 -1.63286037 12.06092394 -1.77148438 10.45703125 C-2.29628179 3.2305105 -2.29628179 3.2305105 0 0 Z " fill="#C21018" transform="translate(250,483)"/>
<path d="M0 0 C2.27604049 3.61703471 2.21217207 6.5729706 2.13525391 10.78808594 C2.12106163 11.79845665 2.12106163 11.79845665 2.10658264 12.82923889 C2.07299839 15.04789938 2.02485885 17.2659901 1.9765625 19.484375 C1.95038567 21.02564012 1.92511943 22.56692095 1.90072632 24.10821533 C1.83417025 28.15915861 1.7552572 32.2097703 1.67376709 36.26043701 C1.59275417 40.39615174 1.5234319 44.53206062 1.453125 48.66796875 C1.3135232 56.77888151 1.16086616 64.88948125 1 73 C0.34 72.67 -0.32 72.34 -1 72 C-1.19906607 69.27126363 -1.38430521 66.54262024 -1.5625 63.8125 C-1.64661133 62.68811523 -1.64661133 62.68811523 -1.73242188 61.54101562 C-2.01742206 57.00001265 -1.93712087 52.64612444 -1.52734375 48.11328125 C-0.75404808 39.20635077 -0.92883128 30.30667416 -1 21.375 C-1.0266069 17.96614935 -1.04653179 14.55735259 -1.0625 11.1484375 C-1.07079834 10.37349945 -1.07909668 9.5985614 -1.08764648 8.80014038 C-1.10239576 5.59149929 -1.02260727 3.0678218 0 0 Z " fill="#C20F17" transform="translate(250,409)"/>
<path d="M0 0 C10.18995467 0.17568887 21.01371795 5.15513986 28.421875 12.2265625 C37.13646477 22.0196906 44.25282295 33.60038374 44 47 C42.30647508 43.85914541 41.23406384 40.7193993 40.1875 37.3125 C35.78160094 24.04656304 28.11756168 13.74553701 15.99609375 6.47265625 C10.87575187 3.95587804 5.51364134 2.41128181 0 1 C0 0.67 0 0.34 0 0 Z " fill="#B50E15" transform="translate(468,389)"/>
<path d="M0 0 C0.79622772 0.02361099 1.59245544 0.04722198 2.41281128 0.07154846 C4.96028279 0.14822836 7.5074536 0.23223386 10.0546875 0.31640625 C11.77993312 0.36962262 13.50519348 0.42236305 15.23046875 0.47460938 C19.46373272 0.60384932 23.69674132 0.73966044 27.9296875 0.87890625 C27.9296875 1.20890625 27.9296875 1.53890625 27.9296875 1.87890625 C33.5396875 2.20890625 39.1496875 2.53890625 44.9296875 2.87890625 C44.9296875 3.20890625 44.9296875 3.53890625 44.9296875 3.87890625 C37.41835985 3.95477535 29.90713046 4.00742949 22.39550781 4.04370117 C19.83850411 4.05881695 17.28152644 4.07930991 14.72460938 4.10522461 C11.05592433 4.14148487 7.3875811 4.15860461 3.71875 4.171875 C2.56976227 4.18735886 1.42077454 4.20284271 0.23696899 4.21879578 C-1.35445419 4.21913567 -1.35445419 4.21913567 -2.97802734 4.21948242 C-4.38367447 4.22947517 -4.38367447 4.22947517 -5.81771851 4.2396698 C-6.93275253 4.06109184 -6.93275253 4.06109184 -8.0703125 3.87890625 C-8.7303125 2.88890625 -9.3903125 1.89890625 -10.0703125 0.87890625 C-6.88745554 -0.71252223 -3.4832683 -0.12117659 0 0 Z " fill="#DB151E" transform="translate(302.0703125,563.12109375)"/>
<path d="M0 0 C2.80567494 1.40283747 2.91602505 2.93702221 3.98828125 5.85546875 C4.55011108 7.36947266 4.55011108 7.36947266 5.12329102 8.9140625 C5.51572998 9.99429687 5.90816895 11.07453125 6.3125 12.1875 C6.71331787 13.27417969 7.11413574 14.36085938 7.52709961 15.48046875 C8.69346925 18.65054113 9.84929916 21.8242103 11 25 C11.29970703 25.82709473 11.59941406 26.65418945 11.90820312 27.50634766 C13.28987324 31.33140123 14.65526855 35.16177153 16 39 C17.65 36.03 19.3 33.06 21 30 C22.305239 33.91571701 21.32239848 35.03892997 19.5625 38.6875 C19.08941406 39.68136719 18.61632812 40.67523438 18.12890625 41.69921875 C17.75636719 42.45847656 17.38382813 43.21773438 17 44 C14.13827564 41.55860735 13.13834856 39.22089716 11.9140625 35.6953125 C11.54273193 34.64230957 11.17140137 33.58930664 10.78881836 32.50439453 C10.4047583 31.38919434 10.02069824 30.27399414 9.625 29.125 C8.82800529 26.85375142 8.02983879 24.58291367 7.23046875 22.3125 C6.6569165 20.67667969 6.6569165 20.67667969 6.07177734 19.0078125 C4.42174154 14.37718811 2.62119112 9.81466089 0.77734375 5.2578125 C0 3 0 3 0 0 Z " fill="#B40D14" transform="translate(808,410)"/>
<path d="M0 0 C0.33 0 0.66 0 1 0 C1.14304115 6.33543524 1.28538579 12.67088586 1.42724609 19.00634766 C1.47558815 21.1616247 1.52408968 23.31689817 1.57275391 25.47216797 C1.64267223 28.56997772 1.71201714 31.66779986 1.78125 34.765625 C1.80312378 35.72929993 1.82499756 36.69297485 1.84753418 37.68585205 C1.86755493 38.58648376 1.88757568 39.48711548 1.90820312 40.41503906 C1.92596802 41.20557678 1.94373291 41.9961145 1.96203613 42.81060791 C1.99780593 44.87346732 2 46.93683049 2 49 C-12.19 48.67 -26.38 48.34 -41 48 C-41 47.67 -41 47.34 -41 47 C-27.47 47 -13.94 47 0 47 C0 31.49 0 15.98 0 0 Z " fill="#D80F19" transform="translate(424,560)"/>
<path d="M0 0 C2.83727325 -0.26667539 5.45383045 -0.34791234 8.2890625 -0.29296875 C9.10748627 -0.28872391 9.92591003 -0.28447906 10.76913452 -0.28010559 C13.38808836 -0.26328679 16.00627802 -0.22562974 18.625 -0.1875 C20.3984264 -0.17245726 22.17186484 -0.15876814 23.9453125 -0.14648438 C28.2971703 -0.11337292 32.64845551 -0.06156952 37 0 C37 0.33 37 0.66 37 1 C39.475 1.495 39.475 1.495 42 2 C42 2.33 42 2.66 42 3 C28.47 3 14.94 3 1 3 C1 6.3 1 9.6 1 13 C0.67 13 0.34 13 0 13 C0 10.03 0 7.06 0 4 C-0.66 3.67 -1.32 3.34 -2 3 C-1.34 2.01 -0.68 1.02 0 0 Z " fill="#E01B24" transform="translate(678,385)"/>
<path d="M0 0 C-1 1 -1 1 -2.75270081 1.12025452 C-3.51437057 1.11803391 -4.27604034 1.11581329 -5.06079102 1.11352539 C-5.92160782 1.11344986 -6.78242462 1.11337433 -7.66932678 1.11329651 C-8.60473801 1.10813522 -9.54014923 1.10297394 -10.50390625 1.09765625 C-11.45692123 1.0962413 -12.40993622 1.09482635 -13.39183044 1.09336853 C-16.44875165 1.08775152 -19.50560077 1.07519616 -22.5625 1.0625 C-24.62955624 1.05748719 -26.69661362 1.05292391 -28.76367188 1.04882812 C-33.84247588 1.03777656 -38.9212257 1.02050055 -44 1 C-44.33 2.32 -44.66 3.64 -45 5 C-45 3.02 -45 1.04 -45 -1 C-39.23455425 -1.19248585 -33.4689078 -1.37117352 -27.70263672 -1.53710938 C-25.7412572 -1.59549342 -23.77998594 -1.65764082 -21.81884766 -1.72363281 C-18.99922393 -1.81785821 -16.17948743 -1.89852438 -13.359375 -1.9765625 C-12.48319519 -2.00875885 -11.60701538 -2.0409552 -10.70428467 -2.0741272 C-9.88373596 -2.09429901 -9.06318726 -2.11447083 -8.21777344 -2.13525391 C-7.49829529 -2.15746002 -6.77881714 -2.17966614 -6.03753662 -2.20254517 C-3.65780548 -1.96598351 -2.06282245 -1.1779529 0 0 Z " fill="#BF1318" transform="translate(581,386)"/>
<path d="M0 0 C0.66 0 1.32 0 2 0 C2.69937202 1.4317616 3.38412718 2.87067032 4.0625 4.3125 C4.44535156 5.11300781 4.82820312 5.91351562 5.22265625 6.73828125 C6 9 6 9 5 12 C2 6.375 2 6.375 2 3 C1.34 3 0.68 3 0 3 C-0.11029541 3.6712793 -0.22059082 4.34255859 -0.33422852 5.03417969 C-1.14099564 8.62809497 -2.36453455 12.01101148 -3.65234375 15.453125 C-3.91253799 16.15395203 -4.17273224 16.85477905 -4.44081116 17.57684326 C-4.98938619 19.05002115 -5.53999747 20.52244221 -6.0925293 21.99414062 C-6.93885318 24.25361265 -7.7733713 26.51722328 -8.60742188 28.78125 C-9.14251521 30.21380855 -9.67829837 31.64610966 -10.21484375 33.078125 C-10.46386948 33.75723938 -10.7128952 34.43635376 -10.96946716 35.13604736 C-12.77107276 39.88553638 -12.77107276 39.88553638 -15 41 C-13.70079472 34.37072176 -11.77441886 28.41786438 -9.1875 22.1875 C-8.65672852 20.88570801 -8.65672852 20.88570801 -8.11523438 19.55761719 C-7.08447826 17.03517486 -6.04398266 14.51699224 -5 12 C-4.57388428 10.96770264 -4.57388428 10.96770264 -4.13916016 9.91455078 C-2.77250828 6.60413978 -1.39458872 3.29873871 0 0 Z " fill="#B60D14" transform="translate(821,545)"/>
<path d="M0 0 C4.10748575 3.60759039 5.36725172 8.4381309 7.25 13.4375 C7.62640625 14.39205078 8.0028125 15.34660156 8.390625 16.33007812 C8.74125 17.25111328 9.091875 18.17214844 9.453125 19.12109375 C9.77442383 19.9608374 10.09572266 20.80058105 10.42675781 21.66577148 C11.05058751 24.20599115 10.85857957 25.56091737 10 28 C0.9280648 28.09471858 -7.98185679 28.14516104 -17 27 C-17 26.67 -17 26.34 -17 26 C-8.42 26 0.16 26 9 26 C6.04168514 18.19028364 6.04168514 18.19028364 3.07617188 10.38330078 C2.71072266 9.41376465 2.34527344 8.44422852 1.96875 7.4453125 C1.59169922 6.45031738 1.21464844 5.45532227 0.82617188 4.43017578 C0 2 0 2 0 0 Z " fill="#B21116" transform="translate(887,595)"/>
<path d="M0 0 C1.93395001 3.86790003 2.23289353 5.1500459 2.125 9.25 C2.10695312 10.14203125 2.08890625 11.0340625 2.0703125 11.953125 C2.04710937 12.62859375 2.02390625 13.3040625 2 14 C2.66 14.33 3.32 14.66 4 15 C3.34 15 2.68 15 2 15 C1.67 15.99 1.34 16.98 1 18 C-3.50951645 19.09321611 -8.72000646 20.13999677 -13 18 C-13.33 18.66 -13.66 19.32 -14 20 C-14 19.34 -14 18.68 -14 18 C-14.87398437 18.12568359 -14.87398437 18.12568359 -15.765625 18.25390625 C-22.64981275 19.10901762 -29.1183299 18.7685714 -36 18 C-36 17.67 -36 17.34 -36 17 C-24.12 17 -12.24 17 0 17 C0 11.39 0 5.78 0 0 Z " fill="#B51115" transform="translate(164,604)"/>
<path d="M0 0 C0.9583374 0.04713135 1.9166748 0.0942627 2.90405273 0.14282227 C3.93852539 0.19116211 4.97299805 0.23950195 6.03881836 0.28930664 C7.12743164 0.34538086 8.21604492 0.40145508 9.33764648 0.45922852 C10.43012695 0.51143555 11.52260742 0.56364258 12.64819336 0.61743164 C15.35743724 0.74756999 18.06635442 0.88254906 20.77514648 1.02172852 C20.77514648 1.35172852 20.77514648 1.68172852 20.77514648 2.02172852 C13.51514648 2.02172852 6.25514648 2.02172852 -1.22485352 2.02172852 C-1.22485352 10.60172852 -1.22485352 19.18172852 -1.22485352 28.02172852 C-1.88485352 28.02172852 -2.54485352 28.02172852 -3.22485352 28.02172852 C-3.2537169 23.54257523 -3.27160539 19.0634456 -3.28735352 14.58422852 C-3.29573242 13.30483398 -3.30411133 12.02543945 -3.31274414 10.70727539 C-3.3159668 9.49233398 -3.31918945 8.27739258 -3.32250977 7.02563477 C-3.32774658 5.89971924 -3.3329834 4.77380371 -3.33837891 3.61376953 C-3.18146501 0.03107104 -3.18146501 0.03107104 0 0 Z " fill="#C6131B" transform="translate(123.224853515625,379.978271484375)"/>
<path d="M0 0 C1.67542976 0.28604898 3.34385343 0.61781233 5 1 C4.01 1.495 4.01 1.495 3 2 C1.82163198 5.26516955 1.83243837 8.52914167 1.75390625 11.97265625 C1.72103516 13.11927734 1.68816406 14.26589844 1.65429688 15.44726562 C1.59300227 17.8612298 1.53572307 20.27529922 1.48242188 22.68945312 C1.44826172 23.83478516 1.41410156 24.98011719 1.37890625 26.16015625 C1.3538501 27.20824463 1.32879395 28.25633301 1.30297852 29.33618164 C1 32 1 32 -1 35 C-1.0246519 30.17619198 -1.04283693 25.35242033 -1.05493164 20.52856445 C-1.05997174 18.88630536 -1.06680378 17.24405077 -1.07543945 15.60180664 C-1.08751926 13.24624521 -1.09323139 10.89074291 -1.09765625 8.53515625 C-1.10281754 7.79660904 -1.10797882 7.05806183 -1.11329651 6.2971344 C-1.1134925 4.53101912 -1.06194719 2.76502854 -1 1 C-0.67 0.67 -0.34 0.34 0 0 Z " fill="#BB0D15" transform="translate(291,426)"/>
<path d="M0 0 C0.33 0 0.66 0 1 0 C1 5.28 1 10.56 1 16 C11.23 16 21.46 16 32 16 C32 16.33 32 16.66 32 17 C27.46122739 17.16725986 22.92228756 17.32785453 18.38305664 17.48217773 C16.8377441 17.5356662 15.29249433 17.59100068 13.74731445 17.64819336 C11.53089949 17.72991433 9.31434616 17.8050717 7.09765625 17.87890625 C6.05545677 17.91945885 6.05545677 17.91945885 4.99220276 17.96083069 C3.32890224 18.01301108 1.66407661 18.01185107 0 18 C-1 17 -1 17 -1.1328125 13.9453125 C-1.13023437 12.68460937 -1.12765625 11.42390625 -1.125 10.125 C-1.12757813 8.86945313 -1.13015625 7.61390625 -1.1328125 6.3203125 C-1 3 -1 3 0 0 Z " fill="#D5171F" transform="translate(291,458)"/>
<path d="M0 0 C0.33 0 0.66 0 1 0 C1 10.89 1 21.78 1 33 C0.67 32.34 0.34 31.68 0 31 C-0.66 31 -1.32 31 -2 31 C-2.02683987 28.02077407 -2.04676037 25.04178705 -2.0625 22.0625 C-2.07087891 21.21236328 -2.07925781 20.36222656 -2.08789062 19.48632812 C-2.09111328 18.67744141 -2.09433594 17.86855469 -2.09765625 17.03515625 C-2.10289307 16.2862915 -2.10812988 15.53742676 -2.11352539 14.76586914 C-2 13 -2 13 -1 12 C-0.76572222 9.98405418 -0.58663876 7.961526 -0.4375 5.9375 C-0.35371094 4.83277344 -0.26992188 3.72804688 -0.18359375 2.58984375 C-0.12300781 1.73519531 -0.06242188 0.88054687 0 0 Z " fill="#C01219" transform="translate(677,472)"/>
<path d="M0 0 C0.33 0 0.66 0 1 0 C1 9.57 1 19.14 1 29 C-2.0999289 25.9000711 -1.84057952 22.25362821 -2 18 C-1.70131344 15.99453311 -1.36628677 13.99422795 -1 12 C-0.96354148 9.3871391 -0.99917268 6.78412713 -1.0625 4.171875 C-1 2 -1 2 0 0 Z " fill="#C21018" transform="translate(250,557)"/>
<path d="M0 0 C0.33 0 0.66 0 1 0 C1 6.6 1 13.2 1 20 C2.65 20.33 4.3 20.66 6 21 C5.67 21.66 5.34 22.32 5 23 C3.02 22.34 1.04 21.68 -1 21 C-1.02888146 17.68751813 -1.04675799 14.37506833 -1.0625 11.0625 C-1.07087891 10.11697266 -1.07925781 9.17144531 -1.08789062 8.19726562 C-1.09111328 7.29814453 -1.09433594 6.39902344 -1.09765625 5.47265625 C-1.10289307 4.64000244 -1.10812988 3.80734863 -1.11352539 2.94946289 C-1 1 -1 1 0 0 Z " fill="#C0121A" transform="translate(250,587)"/>
<path d="M0 0 C13.2 0 26.4 0 40 0 C40 0.33 40 0.66 40 1 C38.99098633 1.02505615 37.98197266 1.0501123 36.94238281 1.07592773 C33.19258304 1.17022409 29.44295892 1.27039021 25.69335938 1.37231445 C24.07165643 1.41557931 22.44991042 1.45726028 20.828125 1.49731445 C18.49465973 1.55522214 16.16140957 1.61885698 13.828125 1.68359375 C13.10506165 1.70030624 12.38199829 1.71701874 11.63702393 1.73423767 C8.26988941 1.83294123 5.2532313 2.16921213 2 3 C1.34 2.67 0.68 2.34 0 2 C0 1.34 0 0.68 0 0 Z " fill="#D9111A" transform="translate(122,620)"/>
<path d="M0 0 C0.78052734 -0.00386719 1.56105469 -0.00773437 2.36523438 -0.01171875 C6.31423908 -0.00501984 9.9573216 0.15154814 13.8125 1.125 C13.8125 1.455 13.8125 1.785 13.8125 2.125 C3.34930693 3.32660344 -6.71400256 2.88905986 -17.1875 2.125 C-17.1875 1.795 -17.1875 1.465 -17.1875 1.125 C-11.41487503 0.29563769 -5.82811475 -0.02931156 0 0 Z " fill="#AF0A11" transform="translate(297.1875,385.875)"/>
<path d="M0 0 C0.33 0 0.66 0 1 0 C1 9.9 1 19.8 1 30 C0.67 30 0.34 30 0 30 C-1.39371948 23.63035643 -2.17871269 18.48291981 -1 12 C-0.96022733 9.37500371 -0.99819699 6.76108533 -1.0625 4.13671875 C-1 2 -1 2 0 0 Z " fill="#B61016" transform="translate(677,506)"/>
<path d="M0 0 C0.33 0 0.66 0 1 0 C2.18997719 9.0735761 2.60780383 17.95610345 1 27 C0.34 27 -0.32 27 -1 27 C-1.18451025 7.99544419 -1.18451025 7.99544419 0 0 Z " fill="#B90F16" transform="translate(677,389)"/>
<path d="M0 0 C0.33 0 0.66 0 1 0 C1 7.59 1 15.18 1 23 C0.01 21.68 -0.98 20.36 -2 19 C-1.625 17 -1.625 17 -1 15 C-1.165 14.360625 -1.33 13.72125 -1.5 13.0625 C-2.13195701 10.45567731 -1.52191857 8.60959283 -1 6 C-1.36856864 3.76832815 -1.36856864 3.76832815 -2 2 C-1.34 2 -0.68 2 0 2 C0 1.34 0 0.68 0 0 Z " fill="#BC1218" transform="translate(677,546)"/>
<path d="M0 0 C1.67542976 0.28604898 3.34385343 0.61781233 5 1 C4.01 1.495 4.01 1.495 3 2 C2.04010594 4.66637238 1.8535853 7.38705864 1.5625 10.1875 C1.376875 11.445625 1.19125 12.70375 1 14 C0.01 14.495 0.01 14.495 -1 15 C-1.02685412 12.68756208 -1.04632841 10.3750373 -1.0625 8.0625 C-1.07410156 6.77472656 -1.08570313 5.48695313 -1.09765625 4.16015625 C-1 1 -1 1 0 0 Z " fill="#CB131B" transform="translate(291,426)"/>
<path d="M0 0 C1.07765625 0.10183594 2.1553125 0.20367187 3.265625 0.30859375 C4.08546875 0.39238281 4.9053125 0.47617187 5.75 0.5625 C5.75 0.8925 5.75 1.2225 5.75 1.5625 C-2.17 2.0575 -2.17 2.0575 -10.25 2.5625 C-10.25 1.9025 -10.25 1.2425 -10.25 0.5625 C-6.70049966 -0.60056443 -3.69176052 -0.36115049 0 0 Z " fill="#B30810" transform="translate(346.25,386.4375)"/>
<path d="M0 0 C0.33 0 0.66 0 1 0 C2.03590199 5.05002222 2.10251672 9.87416389 2 15 C0.4375 13.25 0.4375 13.25 -1 11 C-0.6875 9.1875 -0.6875 9.1875 0 7 C0.03888349 4.66699067 0.0448635 2.33290199 0 0 Z " fill="#CE181F" transform="translate(676,530)"/>
<path d="M0 0 C1.81325551 0.11351517 3.62563357 0.24112961 5.4375 0.375 C6.95150391 0.47941406 6.95150391 0.47941406 8.49609375 0.5859375 C9.73552734 0.79089844 9.73552734 0.79089844 11 1 C11.33 1.66 11.66 2.32 12 3 C8.04 3 4.08 3 0 3 C0 2.01 0 1.02 0 0 Z " fill="#CE141B" transform="translate(164,421)"/>
<path d="M0 0 C0.99 0 1.98 0 3 0 C3.66 2.64 4.32 5.28 5 8 C4.01 8.495 4.01 8.495 3 9 C2.01 6.03 1.02 3.06 0 0 Z " fill="#BC1319" transform="translate(746,380)"/>
<path d="M0 0 C1.98 0 3.96 0 6 0 C6 0.33 6 0.66 6 1 C4.02 1 2.04 1 0 1 C0 0.67 0 0.34 0 0 Z " fill="#EA252B" transform="translate(580,607)"/>
<path d="M0 0 C0.66 0.33 1.32 0.66 2 1 C2 1.66 2 2.32 2 3 C1.01 2.67 0.02 2.34 -1 2 C-0.67 1.34 -0.34 0.68 0 0 Z " fill="#EC242B" transform="translate(769,440)"/>
<path d="M0 0 C0 3 0 3 0 3 Z " fill="#EF232C" transform="translate(778,459)"/>
<path d="M0 0 C3 1 3 1 3 1 Z " fill="#E9292F" transform="translate(636,607)"/>
<path d="M0 0 C3 1 3 1 3 1 Z " fill="#EC272B" transform="translate(621,607)"/>
<path d="" fill="#E92B31" transform="translate(0,0)"/>
<path d="" fill="#EC222A" transform="translate(0,0)"/>
<path d="" fill="#ED2028" transform="translate(0,0)"/>
<path d="" fill="#EC3237" transform="translate(0,0)"/>
<path d="M0 0 C2 1 2 1 2 1 Z " fill="#E9282E" transform="translate(632,607)"/>
<path d="M0 0 C2 1 2 1 2 1 Z " fill="#EA262D" transform="translate(628,607)"/>
<path d="M0 0 C2 1 2 1 2 1 Z " fill="#EC252C" transform="translate(613,607)"/>
<path d="M0 0 C2 1 2 1 2 1 Z " fill="#EC262B" transform="translate(604,607)"/>
<path d="M0 0 C2 1 2 1 2 1 Z " fill="#EA262C" transform="translate(596,607)"/>
<path d="M0 0 C2 1 2 1 2 1 Z " fill="#E9272D" transform="translate(592,607)"/>
<path d="M0 0 C2 1 2 1 2 1 Z " fill="#EC232A" transform="translate(572,607)"/>
<path d="M0 0 C2 1 2 1 2 1 Z " fill="#EB272C" transform="translate(567,607)"/>
<path d="" fill="#F0272F" transform="translate(0,0)"/>
<path d="" fill="#EC2329" transform="translate(0,0)"/>
<path d="" fill="#EE232A" transform="translate(0,0)"/>
<path d="" fill="#ED1F29" transform="translate(0,0)"/>
<path d="" fill="#ED2028" transform="translate(0,0)"/>
<path d="" fill="#ED1F29" transform="translate(0,0)"/>
<path d="" fill="#EE1E28" transform="translate(0,0)"/>
<path d="" fill="#EC1E28" transform="translate(0,0)"/>
<path d="" fill="#EC1F29" transform="translate(0,0)"/>
<path d="M0 0 C2 1 2 1 2 1 Z " fill="#EE2029" transform="translate(456,482)"/>
<path d="" fill="#EB2229" transform="translate(0,0)"/>
<path d="" fill="#EE222A" transform="translate(0,0)"/>
<path d="" fill="#E92E33" transform="translate(0,0)"/>
<path d="M0 0 C2 1 2 1 2 1 Z " fill="#EC2F34" transform="translate(471,387)"/>
<path d="M0 0 C2 1 2 1 2 1 Z " fill="#E83F44" transform="translate(896,378)"/>
<path d="M0 0 C2 1 2 1 2 1 Z " fill="#E9363D" transform="translate(224,378)"/>
<path d="" fill="#C5C6C5" transform="translate(0,0)"/>
<path d="" fill="#EA3338" transform="translate(0,0)"/>
<path d="" fill="#E7323A" transform="translate(0,0)"/>
<path d="" fill="#E73539" transform="translate(0,0)"/>
<path d="" fill="#E73839" transform="translate(0,0)"/>
<path d="" fill="#EA2A2E" transform="translate(0,0)"/>
<path d="" fill="#E9353A" transform="translate(0,0)"/>
<path d="" fill="#EB282C" transform="translate(0,0)"/>
<path d="" fill="#ED252D" transform="translate(0,0)"/>
<path d="" fill="#E9252D" transform="translate(0,0)"/>
<path d="" fill="#EB262D" transform="translate(0,0)"/>
<path d="" fill="#EC282D" transform="translate(0,0)"/>
<path d="" fill="#EA2A2D" transform="translate(0,0)"/>
<path d="" fill="#E92F32" transform="translate(0,0)"/>
<path d="" fill="#E92F33" transform="translate(0,0)"/>
<path d="" fill="#EB2B30" transform="translate(0,0)"/>
<path d="" fill="#EC252D" transform="translate(0,0)"/>
<path d="" fill="#E82A2F" transform="translate(0,0)"/>
<path d="" fill="#EA2C31" transform="translate(0,0)"/>
<path d="" fill="#EA262C" transform="translate(0,0)"/>
<path d="" fill="#E9252C" transform="translate(0,0)"/>
<path d="" fill="#EB252A" transform="translate(0,0)"/>
<path d="" fill="#ED242B" transform="translate(0,0)"/>
<path d="" fill="#EA232A" transform="translate(0,0)"/>
<path d="" fill="#E9242A" transform="translate(0,0)"/>
<path d="" fill="#EE222A" transform="translate(0,0)"/>
<path d="" fill="#EB2329" transform="translate(0,0)"/>
<path d="" fill="#EA2D31" transform="translate(0,0)"/>
<path d="" fill="#ED262E" transform="translate(0,0)"/>
<path d="" fill="#EF242D" transform="translate(0,0)"/>
<path d="" fill="#EF202A" transform="translate(0,0)"/>
<path d="" fill="#E92027" transform="translate(0,0)"/>
<path d="" fill="#EC2129" transform="translate(0,0)"/>
<path d="" fill="#EB292E" transform="translate(0,0)"/>
<path d="" fill="#EC232B" transform="translate(0,0)"/>
<path d="" fill="#EA252D" transform="translate(0,0)"/>
<path d="" fill="#F0222C" transform="translate(0,0)"/>
<path d="" fill="#EE212A" transform="translate(0,0)"/>
<path d="" fill="#EE2028" transform="translate(0,0)"/>
<path d="" fill="#EE202B" transform="translate(0,0)"/>
<path d="" fill="#EC2B31" transform="translate(0,0)"/>
<path d="" fill="#EE1E26" transform="translate(0,0)"/>
<path d="" fill="#F0272D" transform="translate(0,0)"/>
<path d="" fill="#EE1E29" transform="translate(0,0)"/>
<path d="" fill="#EC2229" transform="translate(0,0)"/>
<path d="" fill="#EE2129" transform="translate(0,0)"/>
<path d="" fill="#ED2228" transform="translate(0,0)"/>
<path d="" fill="#F02129" transform="translate(0,0)"/>
<path d="" fill="#EC262D" transform="translate(0,0)"/>
<path d="" fill="#EE282D" transform="translate(0,0)"/>
<path d="" fill="#ED232B" transform="translate(0,0)"/>
<path d="" fill="#EC1F27" transform="translate(0,0)"/>
<path d="" fill="#F0222A" transform="translate(0,0)"/>
<path d="" fill="#ED2129" transform="translate(0,0)"/>
<path d="" fill="#EB2930" transform="translate(0,0)"/>
<path d="" fill="#F0262B" transform="translate(0,0)"/>
<path d="" fill="#EE222A" transform="translate(0,0)"/>
<path d="" fill="#EF282D" transform="translate(0,0)"/>
<path d="" fill="#F2252C" transform="translate(0,0)"/>
<path d="" fill="#ED2229" transform="translate(0,0)"/>
<path d="" fill="#F0232B" transform="translate(0,0)"/>
<path d="" fill="#EE242E" transform="translate(0,0)"/>
<path d="" fill="#EE2127" transform="translate(0,0)"/>
<path d="" fill="#EF2028" transform="translate(0,0)"/>
<path d="" fill="#EC2A32" transform="translate(0,0)"/>
<path d="" fill="#EB2932" transform="translate(0,0)"/>
<path d="" fill="#E81C25" transform="translate(0,0)"/>
<path d="" fill="#EE2029" transform="translate(0,0)"/>
<path d="" fill="#EC2228" transform="translate(0,0)"/>
<path d="" fill="#EF2A30" transform="translate(0,0)"/>
<path d="" fill="#EC242B" transform="translate(0,0)"/>
<path d="" fill="#EE1F28" transform="translate(0,0)"/>
<path d="" fill="#EC242C" transform="translate(0,0)"/>
<path d="" fill="#EC2127" transform="translate(0,0)"/>
<path d="" fill="#ED1F29" transform="translate(0,0)"/>
<path d="" fill="#EC2029" transform="translate(0,0)"/>
<path d="" fill="#E31C26" transform="translate(0,0)"/>
<path d="" fill="#EA262D" transform="translate(0,0)"/>
<path d="" fill="#EE2329" transform="translate(0,0)"/>
<path d="" fill="#ED292C" transform="translate(0,0)"/>
<path d="" fill="#EE2028" transform="translate(0,0)"/>
<path d="" fill="#ED2028" transform="translate(0,0)"/>
<path d="" fill="#EF262B" transform="translate(0,0)"/>
<path d="" fill="#EE232A" transform="translate(0,0)"/>
<path d="" fill="#F1212C" transform="translate(0,0)"/>
<path d="" fill="#EC1E28" transform="translate(0,0)"/>
<path d="" fill="#EC1F28" transform="translate(0,0)"/>
<path d="" fill="#EB272B" transform="translate(0,0)"/>
<path d="" fill="#EC262A" transform="translate(0,0)"/>
<path d="" fill="#EC232B" transform="translate(0,0)"/>
<path d="" fill="#ED232A" transform="translate(0,0)"/>
<path d="" fill="#EE2028" transform="translate(0,0)"/>
<path d="" fill="#F01D2A" transform="translate(0,0)"/>
<path d="" fill="#EF1F28" transform="translate(0,0)"/>
<path d="" fill="#EB1F28" transform="translate(0,0)"/>
<path d="" fill="#ED202B" transform="translate(0,0)"/>
<path d="" fill="#EE2029" transform="translate(0,0)"/>
<path d="" fill="#EE2028" transform="translate(0,0)"/>
<path d="" fill="#EC2029" transform="translate(0,0)"/>
<path d="" fill="#ED2328" transform="translate(0,0)"/>
<path d="" fill="#EC2028" transform="translate(0,0)"/>
<path d="" fill="#EE242D" transform="translate(0,0)"/>
<path d="" fill="#ED242B" transform="translate(0,0)"/>
<path d="" fill="#F1222C" transform="translate(0,0)"/>
<path d="" fill="#EE212A" transform="translate(0,0)"/>
<path d="" fill="#EB242A" transform="translate(0,0)"/>
<path d="" fill="#EB282D" transform="translate(0,0)"/>
<path d="" fill="#EC222C" transform="translate(0,0)"/>
<path d="" fill="#EC2429" transform="translate(0,0)"/>
<path d="" fill="#ED252D" transform="translate(0,0)"/>
<path d="" fill="#EB2529" transform="translate(0,0)"/>
<path d="" fill="#F1242D" transform="translate(0,0)"/>
<path d="" fill="#EE242D" transform="translate(0,0)"/>
<path d="" fill="#EB252D" transform="translate(0,0)"/>
<path d="" fill="#EE2A32" transform="translate(0,0)"/>
<path d="" fill="#E8242C" transform="translate(0,0)"/>
<path d="" fill="#E92D31" transform="translate(0,0)"/>
<path d="" fill="#E9272D" transform="translate(0,0)"/>
<path d="" fill="#E92E33" transform="translate(0,0)"/>
<path d="" fill="#EC2A31" transform="translate(0,0)"/>
<path d="" fill="#EA2D35" transform="translate(0,0)"/>
<path d="" fill="#EC3133" transform="translate(0,0)"/>
<path d="" fill="#EE3035" transform="translate(0,0)"/>
<path d="" fill="#E83338" transform="translate(0,0)"/>
<path d="" fill="#EC2D33" transform="translate(0,0)"/>
<path d="" fill="#E73336" transform="translate(0,0)"/>
<path d="" fill="#E94042" transform="translate(0,0)"/>
<path d="" fill="#E63839" transform="translate(0,0)"/>
<path d="" fill="#E83639" transform="translate(0,0)"/>
<path d="" fill="#E94647" transform="translate(0,0)"/>
<path d="" fill="#E93233" transform="translate(0,0)"/>
<path d="" fill="#EA3239" transform="translate(0,0)"/>
<path d="" fill="#E4756F" transform="translate(0,0)"/>
</svg>
