<?xml version="1.0" encoding="UTF-8"?>
<svg version="1.1" xmlns="http://www.w3.org/2000/svg" width="782" height="245">
<path d="M0 0 C1.12152953 4.48611813 0.7981627 5.23402211 -1 9.28515625 C-1.46704346 10.35451416 -1.93408691 11.42387207 -2.4152832 12.52563477 C-3.19971802 14.27638306 -3.19971802 14.27638306 -4 16.0625 C-4.54707787 17.30665665 -5.09286444 18.55138179 -5.63745117 19.79663086 C-6.80775545 22.47055672 -7.9832007 25.14214178 -9.16162109 27.8125 C-11.9499218 34.14619826 -14.66067202 40.51316212 -17.37866211 46.8772583 C-18.95363114 50.56278878 -20.53380508 54.24608696 -22.11328125 57.9296875 C-24.42050219 63.31247051 -26.72626256 68.69587655 -29.03056335 74.07991028 C-30.36603423 77.20012852 -31.7019685 80.32014826 -33.03793335 83.44015503 C-33.66529901 84.90565335 -34.29244574 86.37124542 -34.91934204 87.83694458 C-35.51095087 89.22011055 -36.10308024 90.60305399 -36.695755 91.98576355 C-37.26913982 93.32601006 -37.84005312 94.6673169 -38.40837097 96.00971985 C-39.87720539 99.46292405 -41.40289469 102.87326849 -43.02734375 106.25634766 C-48.00045474 116.25019584 -48.00045474 116.25019584 -47 127 C-46.70851074 127.87269531 -46.41702148 128.74539062 -46.11669922 129.64453125 C-44.97213592 132.8009273 -43.71775147 135.89619517 -42.4375 139 C-41.69240552 140.85143183 -40.94737397 142.70288965 -40.20410156 144.55505371 C-39.66738971 145.89097441 -39.12926577 147.22632854 -38.58984375 148.56115723 C-34.41689303 158.89023717 -30.40488589 169.28307134 -26.36523438 179.66479492 C-25.67969221 181.42627136 -24.99414528 183.18774595 -24.30859375 184.94921875 C-23.96412201 185.83481979 -23.61965027 186.72042084 -23.26473999 187.63285828 C-20.98638842 193.48473845 -18.68953154 199.3290773 -16.3828125 205.16983032 C-14.78130806 209.22999426 -13.18875252 213.29363396 -11.59771729 217.35791016 C-10.82752841 219.31926021 -10.05342979 221.27907972 -9.27532959 223.23730469 C-8.19289654 225.96292191 -7.12425884 228.69357301 -6.05859375 231.42578125 C-5.73238541 232.23739212 -5.40617706 233.04900299 -5.07008362 233.88520813 C-4.78068405 234.63505478 -4.49128448 235.38490143 -4.19311523 236.1574707 C-3.93715073 236.80657913 -3.68118622 237.45568756 -3.41746521 238.12446594 C-2.91471656 240.38315048 -3.28927579 241.82313226 -4 244 C-10.37206172 244.02529825 -16.74411054 244.04284496 -23.11621094 244.05493164 C-25.28516117 244.05996891 -27.454108 244.06679891 -29.62304688 244.07543945 C-32.73568563 244.08753151 -35.8482796 244.09323428 -38.9609375 244.09765625 C-39.934935 244.10281754 -40.9089325 244.10797882 -41.91244507 244.11329651 C-42.81322784 244.11337204 -43.71401062 244.11344757 -44.64208984 244.11352539 C-45.43706879 244.115746 -46.23204773 244.11796661 -47.05111694 244.12025452 C-49 244 -49 244 -51 243 C-51.83430735 241.18150236 -52.57574164 239.32017039 -53.27490234 237.44555664 C-53.72231781 236.25664322 -54.16973328 235.0677298 -54.63070679 233.8427887 C-55.11589588 232.53195273 -55.60096981 231.22107414 -56.0859375 229.91015625 C-56.58851116 228.5676628 -57.09174559 227.22541654 -57.59561157 225.88340759 C-58.9253136 222.33687901 -60.24664987 218.78729143 -61.56610107 215.23693848 C-63.1570099 210.96034316 -64.75692333 206.68711141 -66.35622597 202.41364956 C-67.60397414 199.07933681 -68.85019645 195.74448523 -70.09140015 192.4077301 C-72.39827415 186.21862777 -74.7423083 180.06319062 -77.31314087 173.97825623 C-78 172 -78 172 -78 169 C-78.66 169 -79.32 169 -80 169 C-80.10111084 169.6496875 -80.20222168 170.299375 -80.30639648 170.96875 C-81.21978019 174.96050362 -82.64405989 178.67702877 -84.09765625 182.5 C-84.40771606 183.32511581 -84.71777588 184.15023163 -85.03723145 185.00035095 C-86.04118875 187.66861137 -87.05102548 190.3345807 -88.0625 193 C-89.43782432 196.62617926 -90.8128785 200.2524605 -92.1875 203.87890625 C-92.52318497 204.76300674 -92.85886993 205.64710724 -93.20472717 206.55799866 C-95.05437226 211.44428482 -96.84699206 216.34238968 -98.5625 221.27734375 C-98.91175537 222.26283203 -99.26101074 223.24832031 -99.62084961 224.26367188 C-100.23013983 225.99375913 -100.82082447 227.73055992 -101.38891602 229.47460938 C-102.19140625 231.71484375 -102.19140625 231.71484375 -104 235 C-109.15402345 236.44106718 -114.60635534 236.1447238 -119.921875 236.1328125 C-121.33367035 236.13424759 -121.33367035 236.13424759 -122.77398682 236.13571167 C-124.75411038 236.13638975 -126.73423622 236.13456148 -128.71435547 236.13037109 C-131.75363093 236.12499358 -134.79276022 236.13034094 -137.83203125 236.13671875 C-139.75781283 236.13605837 -141.68359431 236.13477805 -143.609375 236.1328125 C-144.97651642 236.13584885 -144.97651642 236.13584885 -146.37127686 236.13894653 C-147.21265198 236.13579437 -148.0540271 236.13264221 -148.92089844 236.12939453 C-150.03292633 236.12820114 -150.03292633 236.12820114 -151.16741943 236.12698364 C-153 236 -153 236 -155 235 C-152.94283445 228.45393275 -150.48044154 222.1672978 -147.75 215.875 C-147.39292969 215.0396875 -147.03585937 214.204375 -146.66796875 213.34375 C-144.40659653 208.09610575 -142.03495292 202.90600855 -139.60546875 197.734375 C-136.13164282 190.33580478 -132.82055338 182.87112143 -129.5625 175.375 C-129.27462616 174.71277435 -128.98675232 174.05054871 -128.69015503 173.36825562 C-128.39400299 172.68687531 -128.09785095 172.005495 -127.79272461 171.3034668 C-127.48958847 170.60608902 -127.18645233 169.90871124 -126.87413025 169.19020081 C-126.24610728 167.74521493 -125.61839469 166.30009412 -124.99098206 164.85484314 C-122.89750131 160.03962944 -120.77721296 155.23696346 -118.64198303 150.44012451 C-117.13922988 147.05949716 -115.64721172 143.67418987 -114.15670776 140.28814697 C-113.43020349 138.64442978 -112.69905498 137.00275705 -111.96316528 135.36322021 C-110.93312815 133.06639894 -109.9199486 130.76280994 -108.91015625 128.45703125 C-108.5994519 127.77507187 -108.28874756 127.09311249 -107.96862793 126.39048767 C-106.28345913 122.48964195 -105.67221815 120.067399 -107 116 C-107.309375 114.7625 -107.61875 113.525 -107.9375 112.25 C-108.288125 111.1775 -108.63875 110.105 -109 109 C-109.99 108.505 -109.99 108.505 -111 108 C-111.69359097 105.96066807 -112.37786895 103.91788569 -113.02636719 101.86376953 C-115.04582809 95.92388078 -117.65116372 90.199745 -120.125 84.4375 C-120.73896314 83.00031495 -121.35256068 81.56297367 -121.96582031 80.12548828 C-123.28015121 77.04545029 -124.59618274 73.966146 -125.91308594 70.88720703 C-128.06848543 65.84408088 -130.21101429 60.79553803 -132.3515625 55.74609375 C-142.19914555 32.47529319 -142.19914555 32.47529319 -152.30957031 9.31787109 C-152.85436035 8.08157959 -152.85436035 8.08157959 -153.41015625 6.8203125 C-153.72090088 6.12180176 -154.03164551 5.42329102 -154.35180664 4.70361328 C-155 3 -155 3 -155 1 C-137.51 1 -120.02 1 -102 1 C-100.1025 6.259375 -98.205 11.51875 -96.25 16.9375 C-89.86188154 34.63540823 -83.43923671 52.32063397 -77 70 C-73.0916588 62.7099735 -70.29052529 55.05701582 -67.4375 47.3125 C-66.64932787 45.18858353 -65.8595256 43.0652776 -65.06967163 40.94198608 C-64.52914 39.4885838 -63.9891248 38.03498935 -63.44961548 36.58120728 C-60.58763987 28.87303724 -57.6716529 21.18572954 -54.75 13.5 C-53.1825 9.375 -51.615 5.25 -50 1 C-33.5 0.67 -17 0.34 0 0 Z " fill="#E8131F" transform="translate(781,0)"/>
<path d="M0 0 C1.0635672 -0.00315216 2.1271344 -0.00630432 3.22293091 -0.009552 C4.38412445 -0.00752777 5.54531799 -0.00550354 6.74169922 -0.00341797 C7.94712372 -0.00437469 9.15254822 -0.00533142 10.39450073 -0.00631714 C12.96531221 -0.0069998 15.53612539 -0.00513956 18.10693359 -0.00097656 C21.95398098 0.00426854 25.80090601 -0.00086445 29.64794922 -0.00732422 C41.49170564 -0.0117313 53.32692479 0.07868935 65.16357422 0.51220703 C66.58200119 0.55775223 66.58200119 0.55775223 68.02908325 0.60421753 C83.37652232 1.25692213 97.35023932 5.66852215 108.92138672 16.12939453 C124.19754563 32.92604204 127.80487716 54.77239026 127.05761719 76.76318359 C126.10645653 93.28406012 122.18234056 107.90471859 111.92138672 121.12939453 C111.32326172 122.01626953 110.72513672 122.90314453 110.10888672 123.81689453 C96.07700579 138.65059723 76.51785102 141.33941694 57.19482422 142.01611328 C53.32618325 142.11566557 49.46166855 142.14130653 45.59179688 142.13647461 C43.99254868 142.13494133 43.99254868 142.13494133 42.36099243 142.13337708 C41.55592255 142.13206284 40.75085266 142.1307486 39.92138672 142.12939453 C39.91107925 143.12942001 39.90077179 144.1294455 39.89015198 145.15977478 C39.79258868 154.56314226 39.68987126 163.96644103 39.58204746 173.36969662 C39.52677545 178.2045299 39.47334875 183.03936918 39.42407227 187.87426758 C39.37649164 192.53621937 39.32415139 197.1980952 39.26844597 201.85995674 C39.24799376 203.64261558 39.22928552 205.42529528 39.2123127 207.20799065 C39.18833186 209.69611054 39.15826912 212.18408552 39.12670898 214.67211914 C39.12095352 215.41658295 39.11519806 216.16104675 39.10926819 216.92807007 C39.03543888 222.01534237 39.03543888 222.01534237 37.92138672 223.12939453 C23.07138672 223.12939453 8.22138672 223.12939453 -7.07861328 223.12939453 C-7.07861328 149.86939453 -7.07861328 76.60939453 -7.07861328 1.12939453 C-4.55678732 -0.13151845 -2.82266923 0.00239984 0 0 Z M38.92138672 38.12939453 C38.92138672 58.91939453 38.92138672 79.70939453 38.92138672 101.12939453 C44.00324 102.14576519 48.17928859 102.14079428 53.29638672 101.87939453 C54.53388672 101.83878906 54.53388672 101.83878906 55.79638672 101.79736328 C62.59072887 101.46303851 67.65071311 100.34846192 72.67138672 95.44189453 C80.2421448 85.43056313 79.64974925 72.03642496 78.92138672 60.12939453 C77.93719665 53.73603386 75.64657529 47.69667191 70.92138672 43.12939453 C60.88611907 36.45278644 51.31111061 38.12939453 38.92138672 38.12939453 Z " fill="#E9131F" transform="translate(268.07861328125,6.87060546875)"/>
<path d="M0 0 C4.2330188 0.00582416 8.46597593 0.00231822 12.69899273 -0.00357246 C15.99396745 -0.00716905 19.28892721 -0.00604586 22.58390236 -0.00344467 C24.14804911 -0.00277937 25.71219724 -0.00358991 27.27634239 -0.00592422 C29.43296386 -0.0084493 31.58948019 -0.00461814 33.74609375 0.00097656 C34.96878464 0.00177216 36.19147552 0.00256775 37.45121765 0.00338745 C40.3059082 0.13037109 40.3059082 0.13037109 42.3059082 1.13037109 C42.3552603 6.64793586 42.39160482 12.1653728 42.41577148 17.68310547 C42.42584355 19.56105791 42.43950182 21.43899463 42.45678711 23.31689453 C42.48098274 26.012572 42.49237903 28.70804255 42.5012207 31.40380859 C42.51154327 32.24656342 42.52186584 33.08931824 42.53250122 33.95761108 C42.53289964 36.01658357 42.42848408 38.07505044 42.3059082 40.13037109 C40.3059082 42.13037109 40.3059082 42.13037109 37.82553101 42.37088013 C36.78184357 42.3664389 35.73815613 42.36199768 34.6628418 42.35742188 C33.48176849 42.35727081 32.30069519 42.35711975 31.08383179 42.35696411 C29.80360138 42.34664154 28.52337097 42.33631897 27.2043457 42.32568359 C25.24424057 42.32143875 25.24424057 42.32143875 23.24453735 42.31710815 C19.76908739 42.30946885 16.29380437 42.289818 12.81842041 42.2677002 C9.27260598 42.24724805 5.7267646 42.2381078 2.1809082 42.22802734 C-4.77749375 42.20657226 -11.73578476 42.17243282 -18.6940918 42.13037109 C-19.48880827 44.95358475 -19.83765196 47.51065333 -19.89941406 50.43994141 C-19.91935928 51.28051086 -19.9393045 52.12108032 -19.95985413 52.98712158 C-19.98492287 54.33420197 -19.98492287 54.33420197 -20.01049805 55.70849609 C-20.03127914 56.63507019 -20.05206024 57.56164429 -20.07347107 58.51629639 C-20.13876141 61.47091382 -20.19775611 64.42561877 -20.2565918 67.38037109 C-20.29979653 69.38558841 -20.34341145 71.39079694 -20.38745117 73.39599609 C-20.49442179 78.30736513 -20.59574698 83.21882206 -20.6940918 88.13037109 C-20.10971344 88.12370926 -19.52533508 88.11704742 -18.92324829 88.11018372 C-12.85668423 88.04396 -6.79022234 87.99862473 -0.72338867 87.96557617 C1.54260425 87.95046305 3.80856781 87.92997197 6.07446289 87.90405273 C9.32616409 87.86778048 12.57747956 87.85067019 15.8293457 87.83740234 C17.35596329 87.81417656 17.35596329 87.81417656 18.91342163 87.79048157 C19.85424591 87.79025497 20.79507019 87.79002838 21.7644043 87.78979492 C23.01016739 87.77980217 23.01016739 87.77980217 24.28109741 87.76960754 C24.94928497 87.88865952 25.61747253 88.00771149 26.3059082 88.13037109 C28.59739924 91.56760764 28.55245815 92.83081724 28.53637695 96.87255859 C28.53444336 98.02240234 28.53250977 99.17224609 28.53051758 100.35693359 C28.51827148 101.56091797 28.50602539 102.76490234 28.4934082 104.00537109 C28.49244141 105.75333984 28.49244141 105.75333984 28.49145508 107.53662109 C28.45177818 115.48963562 27.9202682 123.14369117 27.3059082 131.13037109 C11.4659082 131.13037109 -4.3740918 131.13037109 -20.6940918 131.13037109 C-20.6940918 146.64037109 -20.6940918 162.15037109 -20.6940918 178.13037109 C-19.7040918 177.80037109 -18.7140918 177.47037109 -17.6940918 177.13037109 C-15.16930182 177.11404188 -12.67969962 177.15621883 -10.15893555 177.25146484 C-9.4068129 177.27507584 -8.65469025 177.29868683 -7.879776 177.32301331 C-5.46351525 177.39949825 -3.04757716 177.48316319 -0.6315918 177.56787109 C2.50501446 177.67446581 5.64172058 177.77711295 8.77856445 177.87646484 C9.94556381 177.91445694 9.94556381 177.91445694 11.13613892 177.95321655 C17.62724527 178.14825991 24.11194679 178.16101552 30.60523987 178.07115173 C33.78987576 178.04332829 36.25929109 178.11483206 39.3059082 179.13037109 C40.89702029 182.31259526 40.44774924 185.74985435 40.4387207 189.24365234 C40.43967743 190.05021774 40.44063416 190.85678314 40.44161987 191.68778992 C40.44230106 193.39675982 40.44045103 195.10573231 40.4362793 196.81469727 C40.43095099 199.42193481 40.43621552 202.02899845 40.44262695 204.63623047 C40.44196575 206.29703814 40.44068372 207.9578457 40.4387207 209.61865234 C40.44074493 210.39590164 40.44276917 211.17315094 40.44485474 211.97395325 C40.4283501 215.81681893 40.2391888 219.39493172 39.3059082 223.13037109 C35.01772021 224.33385531 30.83326433 224.2780048 26.40991211 224.27563477 C25.06286949 224.28067268 25.06286949 224.28067268 23.68861389 224.28581238 C20.71988542 224.29531135 17.75121342 224.29726496 14.7824707 224.29833984 C12.7174782 224.30155315 10.65248592 224.30491728 8.5874939 224.3084259 C4.25827507 224.31441453 -0.07092381 224.31626607 -4.40014648 224.31567383 C-9.9439736 224.31557222 -15.48767259 224.32922427 -21.03146935 224.34644604 C-25.29687079 224.35757159 -29.56224132 224.35959286 -33.82765579 224.3590641 C-35.87135891 224.36024338 -37.91506285 224.36466225 -39.95875168 224.37239647 C-42.81902762 224.38220745 -45.67902612 224.37931387 -48.53930664 224.37329102 C-49.38106949 224.37891052 -50.22283234 224.38453003 -51.09010315 224.39031982 C-55.68862356 224.36574805 -59.36462585 223.88656531 -63.6940918 222.13037109 C-63.68885498 221.45047119 -63.68361816 220.77057129 -63.67822266 220.07006836 C-63.65724109 216.9443456 -63.64436492 213.81863775 -63.6315918 210.69287109 C-63.62321289 209.62359375 -63.61483398 208.55431641 -63.60620117 207.45263672 C-63.59153559 202.65699188 -63.63850041 197.9795451 -64.26049805 193.22021484 C-64.72463632 189.61615079 -64.3455425 186.72239789 -63.6940918 183.13037109 C-63.58874005 179.58791844 -63.64515124 176.04866744 -63.6940918 172.50537109 C-63.7196689 170.63824255 -63.74067785 168.7710445 -63.7565918 166.90380859 C-63.77399414 165.67283447 -63.77399414 165.67283447 -63.79174805 164.41699219 C-63.69630508 162.18219508 -63.318489 160.27212726 -62.6940918 158.13037109 C-63.3540918 157.80037109 -64.0140918 157.47037109 -64.6940918 157.13037109 C-64.5084668 156.18162109 -64.3228418 155.23287109 -64.1315918 154.25537109 C-63.40722547 151.23168316 -63.40722547 151.23168316 -64.6940918 149.13037109 C-64.79066437 147.38769166 -64.82484679 145.6413481 -64.8269043 143.89599609 C-64.82819336 142.84669922 -64.82948242 141.79740234 -64.83081055 140.71630859 C-64.82694336 139.61544922 -64.82307617 138.51458984 -64.8190918 137.38037109 C-64.82295898 136.29498047 -64.82682617 135.20958984 -64.83081055 134.09130859 C-64.82887695 132.50962891 -64.82887695 132.50962891 -64.8269043 130.89599609 C-64.82577637 129.93467773 -64.82464844 128.97335938 -64.82348633 127.98291016 C-64.6940918 125.13037109 -64.6940918 125.13037109 -64.17602539 122.03955078 C-63.75076629 119.47248524 -63.64908389 117.39300244 -63.8503418 114.81787109 C-63.90319336 114.05216797 -63.95604492 113.28646484 -64.01049805 112.49755859 C-64.07108398 111.71638672 -64.13166992 110.93521484 -64.1940918 110.13037109 C-64.60251049 104.86437682 -64.57345482 100.35845909 -63.6940918 95.13037109 C-63.74117999 91.53627449 -64.07745668 87.9588069 -64.37768555 84.37841797 C-64.69450386 79.92364339 -64.61917172 75.67686495 -64.20776367 71.22705078 C-63.62358909 64.00182206 -63.58391126 56.83244199 -63.6315918 49.58740234 C-63.63601142 48.24314046 -63.63982419 46.89887645 -63.64306641 45.55461121 C-63.65433905 41.35066627 -63.67365296 37.14678009 -63.6940918 32.94287109 C-63.71775104 28.02759422 -63.73805269 23.11234751 -63.75003052 18.19702721 C-63.75650284 16.23930992 -63.76907806 14.28161589 -63.78173828 12.32392883 C-63.7850415 11.14477402 -63.78834473 9.9656192 -63.79174805 8.75073242 C-63.79698486 7.71072586 -63.80222168 6.6707193 -63.80761719 5.59919739 C-63.6940918 3.13037109 -63.6940918 3.13037109 -62.6940918 1.13037109 C-41.78934503 0.21368886 -20.92199622 -0.02919937 0 0 Z " fill="#E9131F" transform="translate(192.694091796875,6.86962890625)"/>
<path d="M0 0 C1.17113799 0.00138269 1.17113799 0.00138269 2.36593533 0.00279331 C3.70584782 0.00073132 3.70584782 0.00073132 5.07282925 -0.00137234 C6.55420376 0.00402058 6.55420376 0.00402058 8.06550503 0.00952244 C9.09952953 0.00937641 10.13355404 0.00923038 11.19891262 0.00907993 C14.63485175 0.00977956 18.07073742 0.01757425 21.50666714 0.02539158 C23.88178382 0.02725558 26.25690089 0.02867957 28.63201809 0.0296793 C34.89727233 0.03350586 41.16250356 0.04333732 47.42774868 0.05438328 C53.81537979 0.06459443 60.2030146 0.06917628 66.59065151 0.0742197 C79.13428115 0.08495947 91.6778948 0.10184656 104.22151089 0.12304783 C105.00813877 4.57743377 105.3501677 8.75078739 105.35432339 13.27929783 C105.35528011 13.94465549 105.35623684 14.61001316 105.35722256 15.29553318 C105.35789916 16.69393096 105.35608136 18.09233197 105.35188198 19.49072361 C105.34652628 21.61693549 105.35184464 23.74293617 105.35822964 25.86914158 C105.35756876 27.23502746 105.35628741 28.6009132 105.35432339 29.96679783 C105.35319546 31.19591892 105.35206753 32.42504002 105.35090542 33.6914072 C105.2289901 36.92469347 104.83277628 39.94956671 104.22151089 43.12304783 C83.54090236 44.05787697 62.91860004 44.24575038 42.22151089 44.12304783 C42.38449673 45.24195408 42.54748257 46.36086033 42.71540737 47.51367283 C43.3124613 52.31169327 43.34830144 57.04374586 43.31916714 61.87304783 C43.31775219 62.77176609 43.31633724 63.67048435 43.31487942 64.5964365 C43.30932672 67.43867558 43.29678326 70.28083296 43.28401089 73.12304783 C43.27898977 75.06184877 43.27442793 77.00065095 43.27033901 78.93945408 C43.25937283 83.66734966 43.24214133 88.39518494 43.22151089 93.12304783 C43.80810986 93.13335529 44.39470882 93.14366276 44.99908352 93.15428257 C51.08188959 93.26211977 57.16454063 93.37673539 63.24714565 93.49536228 C65.51989925 93.53878448 67.79268701 93.58045399 70.06550503 93.62036228 C73.32464321 93.67788902 76.5836082 93.74163335 79.84260464 93.80664158 C80.86551098 93.82335407 81.88841732 93.84006657 82.94232082 93.8572855 C84.35367054 93.88720333 84.35367054 93.88720333 85.79353237 93.91772556 C86.62626171 93.93326984 87.45899105 93.94881413 88.31695461 93.96482944 C90.22151089 94.12304783 90.22151089 94.12304783 91.22151089 95.12304783 C91.41903799 97.97041243 91.55454957 100.7950587 91.64338589 103.64648533 C91.68523006 104.932159 91.68523006 104.932159 91.72791958 106.24380589 C91.78441722 108.0612155 91.83802238 109.87871695 91.88899136 111.69629002 C91.97097506 114.47985521 92.07450701 117.26210651 92.17854214 120.04492283 C92.2306626 121.80790458 92.28148656 123.57092523 92.33088589 125.33398533 C92.36510647 126.16844181 92.39932705 127.00289829 92.43458462 127.86264133 C92.48615932 130.21826267 92.48615932 130.21826267 92.22151089 134.12304783 C91.23151089 135.11304783 90.24151089 136.10304783 89.22151089 137.12304783 C74.04151089 137.12304783 58.86151089 137.12304783 43.22151089 137.12304783 C43.22151089 170.45304783 43.22151089 203.78304783 43.22151089 238.12304783 C43.88151089 238.45304783 44.54151089 238.78304783 45.22151089 239.12304783 C44.56151089 239.12304783 43.90151089 239.12304783 43.22151089 239.12304783 C42.89151089 240.11304783 42.56151089 241.10304783 42.22151089 242.12304783 C37.71199444 243.21626394 32.50150443 244.2630446 28.22151089 242.12304783 C27.89151089 242.78304783 27.56151089 243.44304783 27.22151089 244.12304783 C27.22151089 243.46304783 27.22151089 242.80304783 27.22151089 242.12304783 C26.68526089 242.19523533 26.14901089 242.26742283 25.59651089 242.34179783 C20.01112755 243.0032248 14.46561259 243.25937204 8.84651089 243.31054783 C8.15686245 243.32343845 7.46721401 243.33632908 6.75666714 243.34961033 C2.9739794 243.35701285 0.5059739 242.94289098 -2.77848911 241.12304783 C-2.80127903 210.56548949 -2.81898705 180.00793309 -2.82955444 149.45036829 C-2.83080522 145.84655117 -2.83209953 142.24273406 -2.83342075 138.63891697 C-2.83368306 137.92143173 -2.83394537 137.2039465 -2.83421563 136.46471929 C-2.83857242 124.83211115 -2.84646002 113.19950792 -2.85564191 101.5669027 C-2.8649782 89.6396173 -2.87054467 77.71233448 -2.87257761 65.78504556 C-2.87382917 59.08195885 -2.87685091 52.3788824 -2.88421917 45.67579937 C-2.89097518 39.37469604 -2.89310693 33.07360855 -2.89159679 26.77250195 C-2.89187331 24.45245115 -2.89388091 22.13239986 -2.89769459 19.81235218 C-2.90262529 16.6597584 -2.90148972 13.50722548 -2.89874363 10.35463047 C-2.90165647 9.42371572 -2.90456931 8.49280097 -2.90757042 7.53367668 C-2.89014598 0.19995972 -2.89014598 0.19995972 0 0 Z " fill="#E9131F" transform="translate(2.778489112854004,0.8769521713256836)"/>
<path d="M0 0 C0 57.75 0 115.5 0 175 C19.47 174.67 38.94 174.34 59 174 C62 176 62 176 62.41891479 177.85276794 C62.43906647 178.60316849 62.45921814 179.35356903 62.47998047 180.12670898 C62.5094577 180.97776718 62.53893494 181.82882538 62.56930542 182.70567322 C62.58510651 183.62651199 62.60090759 184.54735077 62.6171875 185.49609375 C62.64225372 186.44057877 62.66731995 187.38506378 62.69314575 188.35816956 C62.74217161 190.35783632 62.7837029 192.35769861 62.81835938 194.35766602 C62.87472179 197.42237236 62.96306074 200.48499674 63.0546875 203.54882812 C63.09828642 205.48954089 63.14001548 207.43029674 63.1796875 209.37109375 C63.20763397 210.28990829 63.23558044 211.20872284 63.26437378 212.15538025 C63.28022018 213.43669579 63.28022018 213.43669579 63.29638672 214.74389648 C63.31176483 215.49509262 63.32714294 216.24628876 63.34298706 217.02024841 C62.90306059 219.55954283 62.01942622 220.448804 60 222 C59.34 222 58.68 222 58 222 C58 221.34 58 220.68 58 220 C33.25 220 8.5 220 -17 220 C-17.33 220.66 -17.66 221.32 -18 222 C-18 221.34 -18 220.68 -18 220 C-27.24 220 -36.48 220 -46 220 C-47.1250632 210.99949439 -47.1250632 210.99949439 -47.16494751 206.78269958 C-47.17618149 205.82677917 -47.18741547 204.87085876 -47.19898987 203.88597107 C-47.20631638 202.86326614 -47.21364288 201.84056122 -47.22119141 200.78686523 C-47.2326973 199.68766754 -47.24420319 198.58846985 -47.25605774 197.45596313 C-47.29269336 193.82353458 -47.32242804 190.19108969 -47.3515625 186.55859375 C-47.37473666 183.99544586 -47.39812725 181.43229993 -47.42172241 178.86915588 C-47.47018294 173.47830292 -47.51513301 168.08743614 -47.55761719 162.6965332 C-47.60064637 157.24595178 -47.64911752 151.79545432 -47.703125 146.3449707 C-47.97256123 119.06234605 -48.17150112 91.81655397 -47.30555534 64.54384422 C-47.28254923 63.8174103 -47.25954311 63.09097637 -47.23583984 62.3425293 C-47.21335238 61.63445948 -47.19086491 60.92638966 -47.167696 60.19686317 C-46.81500645 48.53018704 -46.92826147 36.85782124 -47 25.1875 C-47.02029286 21.68963959 -47.03878072 18.1918223 -47.05102539 14.69392395 C-47.05848266 12.56490421 -47.0704381 10.43589379 -47.08764648 8.30693054 C-47.09094971 7.37186172 -47.09425293 6.43679291 -47.09765625 5.47338867 C-47.10551147 4.24418953 -47.10551147 4.24418953 -47.11352539 2.99015808 C-47 1 -47 1 -46 -1 C-40.25287037 -1.19270079 -34.50553835 -1.37135351 -28.75756836 -1.53710938 C-26.80302276 -1.59543951 -24.84858694 -1.65757934 -22.89428711 -1.72363281 C-20.08207183 -1.81801685 -17.26974403 -1.89860718 -14.45703125 -1.9765625 C-13.58601273 -2.00875885 -12.7149942 -2.0409552 -11.81758118 -2.0741272 C-10.58687141 -2.10438492 -10.58687141 -2.10438492 -9.33129883 -2.13525391 C-8.61404129 -2.15746002 -7.89678375 -2.17966614 -7.15779114 -2.20254517 C-5 -2 -5 -2 0 0 Z " fill="#EA131F" transform="translate(462,7)"/>
<path d="M0 0 C14.19 0 28.38 0 43 0 C43 73.92 43 147.84 43 224 C28.48 224 13.96 224 -1 224 C-1.33 218.39 -1.66 212.78 -2 207 C-2.33 206.01 -2.66 205.02 -3 204 C-2.84375 201.984375 -2.84375 201.984375 -2.5 199.75 C-1.96478426 195.62883878 -2.36693725 192.11490789 -3 188 C-2.69595322 186.32774271 -2.36871088 184.65919896 -2 183 C-2.33 182.01 -2.66 181.02 -3 180 C-2.835 179.360625 -2.67 178.72125 -2.5 178.0625 C-1.83304476 176.01837811 -1.83304476 176.01837811 -2.5 174.0625 C-3.13195701 171.45567731 -2.52191857 169.60959283 -2 167 C-2.36856864 164.76832815 -2.36856864 164.76832815 -3 163 C-2.34 163 -1.68 163 -1 163 C-1.350625 161.9275 -1.70125 160.855 -2.0625 159.75 C-2.98325832 156.06696671 -3.01896794 155.3625942 -2 152 C-1.80171795 148.5937976 -1.66087076 145.24347388 -2.5625 141.9375 C-3.09760575 139.56774596 -2.66207632 137.63979057 -2.25390625 135.2734375 C-1.79083258 131.12714714 -1.98580165 126.95864781 -2.0625 122.79296875 C-2 120 -2 120 -1 118 C-1.66 118 -2.32 118 -3 118 C-3.0269501 115.06243881 -3.04681474 112.12512445 -3.0625 109.1875 C-3.07087891 108.35412109 -3.07925781 107.52074219 -3.08789062 106.66210938 C-3.09111328 105.85966797 -3.09433594 105.05722656 -3.09765625 104.23046875 C-3.10289307 103.49207764 -3.10812988 102.75368652 -3.11352539 101.99291992 C-3 100 -3 100 -2 97 C-2.13457391 94.97557037 -2.13457391 94.97557037 -2.5 92.8125 C-2.91573394 89.62174198 -2.97674765 86.86979057 -2.5 83.6875 C-2.05120803 80.37765919 -2.15897953 79.0486992 -3 76 C-2.67449498 74.33178677 -2.34153937 72.66500443 -2 71 C-2.33 70.01 -2.66 69.02 -3 68 C-3.09267588 66.29367352 -3.12998202 64.58383413 -3.125 62.875 C-3.12757813 61.98554687 -3.13015625 61.09609375 -3.1328125 60.1796875 C-3 58 -3 58 -2 57 C-1.99550193 55.49389756 -2.06083436 53.98745872 -2.15625 52.484375 C-2.20910156 51.56269531 -2.26195312 50.64101563 -2.31640625 49.69140625 C-2.43783062 47.74603287 -2.56021081 45.80071889 -2.68359375 43.85546875 C-2.73644531 42.92863281 -2.78929687 42.00179687 -2.84375 41.046875 C-2.89724609 40.19963867 -2.95074219 39.35240234 -3.00585938 38.47949219 C-3 36 -3 36 -2.51147461 33.59130859 C-1.90080964 30.49746708 -1.922432 27.64482873 -1.97265625 24.4921875 C-1.99102539 22.64173828 -1.99102539 22.64173828 -2.00976562 20.75390625 C-2.04502883 18.16010181 -2.0841144 15.56634663 -2.12695312 12.97265625 C-2.13791016 11.74160156 -2.14886719 10.51054687 -2.16015625 9.2421875 C-2.17699463 8.1166748 -2.19383301 6.99116211 -2.21118164 5.83154297 C-2 3 -2 3 0 0 Z " fill="#EB1320" transform="translate(558,6)"/>
<path d="M0 0 C14.19 0 28.38 0 43 0 C43 73.92 43 147.84 43 224 C28.48 224 13.96 224 -1 224 C-1.33 218.39 -1.66 212.78 -2 207 C-2.33 206.01 -2.66 205.02 -3 204 C-2.75316617 201.24510752 -2.4470867 198.54760419 -2.0625 195.8125 C-1.96259766 195.06291016 -1.86269531 194.31332031 -1.75976562 193.54101562 C-1.51260359 191.69318518 -1.25710389 189.8464734 -1 188 C-0.67 188 -0.34 188 0 188 C0 199.22 0 210.44 0 222 C13.53 222 27.06 222 41 222 C40.505 113.595 40.505 113.595 40 3 C26.8 3 13.6 3 0 3 C0.33 6.3 0.66 9.6 1 13 C1.08134954 15.35519718 1.12619762 17.712063 1.12698364 20.06866455 C1.13121338 22.04046944 1.13121338 22.04046944 1.13552856 24.05210876 C1.13358495 25.47647109 1.13153682 26.90083327 1.12939453 28.32519531 C1.1307521 29.85073386 1.13253402 31.37627208 1.13470459 32.90180969 C1.1392382 37.01980306 1.13750579 41.13777119 1.1343255 45.25576496 C1.13177893 49.58536658 1.13414598 53.91496616 1.13571167 58.24456787 C1.13752746 65.51737858 1.13514337 72.79017912 1.13037109 80.06298828 C1.12493781 88.43920372 1.12668672 96.81539478 1.1321975 105.19160962 C1.13675528 112.41150534 1.13736594 119.63139377 1.13475883 126.85129046 C1.13320961 131.15075501 1.1329646 135.45020815 1.13629532 139.74967194 C1.13921264 143.79792593 1.13712841 147.84614895 1.13140106 151.89439964 C1.13009361 153.36885464 1.13043267 154.8433123 1.13266373 156.31776619 C1.14538931 165.59268992 0.79018107 174.75718297 0 184 C-1.5234375 182.125 -1.5234375 182.125 -3 180 C-2.625 178 -2.625 178 -2 176 C-2.2475 175.0409375 -2.2475 175.0409375 -2.5 174.0625 C-3.13195701 171.45567731 -2.52191857 169.60959283 -2 167 C-2.36856864 164.76832815 -2.36856864 164.76832815 -3 163 C-2.34 163 -1.68 163 -1 163 C-1.350625 161.9275 -1.70125 160.855 -2.0625 159.75 C-2.98325832 156.06696671 -3.01896794 155.3625942 -2 152 C-1.80171795 148.5937976 -1.66087076 145.24347388 -2.5625 141.9375 C-3.09760575 139.56774596 -2.66207632 137.63979057 -2.25390625 135.2734375 C-1.79083258 131.12714714 -1.98580165 126.95864781 -2.0625 122.79296875 C-2 120 -2 120 -1 118 C-1.66 118 -2.32 118 -3 118 C-3.0269501 115.06243881 -3.04681474 112.12512445 -3.0625 109.1875 C-3.07087891 108.35412109 -3.07925781 107.52074219 -3.08789062 106.66210938 C-3.09111328 105.85966797 -3.09433594 105.05722656 -3.09765625 104.23046875 C-3.10289307 103.49207764 -3.10812988 102.75368652 -3.11352539 101.99291992 C-3 100 -3 100 -2 97 C-2.13457391 94.97557037 -2.13457391 94.97557037 -2.5 92.8125 C-2.91573394 89.62174198 -2.97674765 86.86979057 -2.5 83.6875 C-2.05120803 80.37765919 -2.15897953 79.0486992 -3 76 C-2.67449498 74.33178677 -2.34153937 72.66500443 -2 71 C-2.33 70.01 -2.66 69.02 -3 68 C-3.09267588 66.29367352 -3.12998202 64.58383413 -3.125 62.875 C-3.12757813 61.98554687 -3.13015625 61.09609375 -3.1328125 60.1796875 C-3 58 -3 58 -2 57 C-1.99550193 55.49389756 -2.06083436 53.98745872 -2.15625 52.484375 C-2.20910156 51.56269531 -2.26195312 50.64101563 -2.31640625 49.69140625 C-2.43783062 47.74603287 -2.56021081 45.80071889 -2.68359375 43.85546875 C-2.73644531 42.92863281 -2.78929687 42.00179687 -2.84375 41.046875 C-2.89724609 40.19963867 -2.95074219 39.35240234 -3.00585938 38.47949219 C-3 36 -3 36 -2.51147461 33.59130859 C-1.90080964 30.49746708 -1.922432 27.64482873 -1.97265625 24.4921875 C-1.99102539 22.64173828 -1.99102539 22.64173828 -2.00976562 20.75390625 C-2.04502883 18.16010181 -2.0841144 15.56634663 -2.12695312 12.97265625 C-2.13791016 11.74160156 -2.14886719 10.51054687 -2.16015625 9.2421875 C-2.17699463 8.1166748 -2.19383301 6.99116211 -2.21118164 5.83154297 C-2 3 -2 3 0 0 Z " fill="#C60A15" transform="translate(558,6)"/>
<path d="M0 0 C0.66 0.33 1.32 0.66 2 1 C2.02334186 27.26844436 2.04098552 53.53688718 2.05181217 79.80533981 C2.05697238 92.00174048 2.06400988 104.19813471 2.07543945 116.39453125 C2.08539465 127.0226839 2.09185543 137.65083189 2.09408849 148.27898908 C2.09539417 153.9084997 2.09847107 159.537997 2.10573006 165.16750336 C2.11250343 170.46316645 2.11461426 175.75881068 2.11310768 181.05447769 C2.11338341 183.0007678 2.11538074 184.94705851 2.11920547 186.89334488 C2.12416323 189.54568022 2.12299052 192.19794384 2.12025452 194.85028076 C2.12316736 195.62460095 2.1260802 196.39892114 2.12908131 197.19670558 C2.11924821 200.71110005 1.85990645 203.5603742 1 207 C35.98 207 70.96 207 107 207 C107 193.47 107 179.94 107 166 C86.54 166 66.08 166 45 166 C45 165.67 45 165.34 45 165 C65.79 165 86.58 165 108 165 C108.226875 172.033125 108.45375 179.06625 108.6875 186.3125 C108.76701904 188.53009033 108.84653809 190.74768066 108.9284668 193.0324707 C108.97827037 194.78854005 109.02693259 196.54464231 109.07421875 198.30078125 C109.11115845 199.21388062 109.14809814 200.12697998 109.18615723 201.06774902 C109.20682251 201.94040405 109.22748779 202.81305908 109.2487793 203.7121582 C109.27320602 204.46938675 109.29763275 205.2266153 109.32279968 206.00679016 C108.90827796 208.5663614 108.03354413 209.44335365 106 211 C105.34 211 104.68 211 104 211 C104 210.34 104 209.68 104 209 C79.25 209 54.5 209 29 209 C28.67 209.66 28.34 210.32 28 211 C28 210.34 28 209.68 28 209 C18.76 209 9.52 209 0 209 C-1.1250632 199.99949439 -1.1250632 199.99949439 -1.16494751 195.78269958 C-1.17618149 194.82677917 -1.18741547 193.87085876 -1.19898987 192.88597107 C-1.20631638 191.86326614 -1.21364288 190.84056122 -1.22119141 189.78686523 C-1.2326973 188.68766754 -1.24420319 187.58846985 -1.25605774 186.45596313 C-1.29269336 182.82353458 -1.32242804 179.19108969 -1.3515625 175.55859375 C-1.37473666 172.99544586 -1.39812725 170.43229993 -1.42172241 167.86915588 C-1.47018294 162.47830292 -1.51513301 157.08743614 -1.55761719 151.6965332 C-1.60064637 146.24595178 -1.64911734 140.79545431 -1.703125 135.3449707 C-1.98823709 106.47591527 -2.10727288 77.66023742 -1.167696 48.8033638 C-0.87881586 39.63976345 -0.9183561 30.47897166 -1 21.3125 C-1.02041054 18.83383418 -1.03884288 16.35523131 -1.05102539 13.87651062 C-1.05838921 12.38397602 -1.07020515 10.89145293 -1.08764648 9.39900208 C-1.10422654 6.11319376 -1.01981663 3.14125604 0 0 Z " fill="#D40E1C" transform="translate(416,18)"/>
<path d="M0 0 C0.33 0 0.66 0 1 0 C1 70.95 1 141.9 1 215 C13.87 215 26.74 215 40 215 C60.23995536 215.58035714 60.23995536 215.58035714 70 216 C70 216.33 70 216.66 70 217 C56.742294 217.84743998 43.52718235 218.18637361 30.24291992 218.18530273 C27.14553871 218.18753018 24.04849244 218.20589371 20.95117188 218.22460938 C18.9609387 218.22753732 16.97070386 218.22952611 14.98046875 218.23046875 C13.6070356 218.24124702 13.6070356 218.24124702 12.20585632 218.25224304 C7.39763267 218.23502522 3.51623257 217.87321801 -1 216 C-0.99476318 215.3201001 -0.98952637 214.6402002 -0.98413086 213.93969727 C-0.96314929 210.81397451 -0.95027313 207.68826665 -0.9375 204.5625 C-0.92912109 203.49322266 -0.92074219 202.42394531 -0.91210938 201.32226562 C-0.89744379 196.52662078 -0.94440861 191.849174 -1.56640625 187.08984375 C-2.03054452 183.48577969 -1.6514507 180.59202679 -1 177 C-0.89464825 173.45754735 -0.95105944 169.91829635 -1 166.375 C-1.0255771 164.50787146 -1.04658606 162.64067341 -1.0625 160.7734375 C-1.07990234 159.54246338 -1.07990234 159.54246338 -1.09765625 158.28662109 C-1.00221328 156.05182399 -0.62439721 154.14175616 0 152 C-0.66 151.67 -1.32 151.34 -2 151 C-1.814375 150.05125 -1.62875 149.1025 -1.4375 148.125 C-0.71313368 145.10131207 -0.71313368 145.10131207 -2 143 C-2.09657257 141.25732057 -2.130755 139.51097701 -2.1328125 137.765625 C-2.13410156 136.71632812 -2.13539062 135.66703125 -2.13671875 134.5859375 C-2.13285156 133.48507813 -2.12898438 132.38421875 -2.125 131.25 C-2.12886719 130.16460937 -2.13273437 129.07921875 -2.13671875 127.9609375 C-2.13478516 126.37925781 -2.13478516 126.37925781 -2.1328125 124.765625 C-2.13168457 123.80430664 -2.13055664 122.84298828 -2.12939453 121.85253906 C-2 119 -2 119 -1.48193359 115.90917969 C-1.0566745 113.34211414 -0.95499209 111.26263135 -1.15625 108.6875 C-1.20910156 107.92179687 -1.26195312 107.15609375 -1.31640625 106.3671875 C-1.37699219 105.58601563 -1.43757812 104.80484375 -1.5 104 C-1.9084187 98.73400573 -1.87936303 94.228088 -1 89 C-1.04708819 85.40590339 -1.38336488 81.8284358 -1.68359375 78.24804688 C-1.997812 73.82983166 -1.93481665 69.62423718 -1.53125 65.2109375 C-0.64169187 54.97430249 -0.94396354 44.70238938 -1.02050781 34.43725586 C-1.09870637 22.90605481 -0.9130642 11.49992128 0 0 Z " fill="#C20810" transform="translate(130,13)"/>
<path d="M0 0 C0.21700021 5.49873202 0.41386992 10.99767537 0.59204102 16.49780273 C0.65550484 18.36909282 0.72448516 20.24020424 0.79907227 22.11108398 C0.90527889 24.79903823 0.9916863 27.48700897 1.07421875 30.17578125 C1.11157639 31.01337479 1.14893402 31.85096832 1.18742371 32.71394348 C1.2487793 35.0793457 1.2487793 35.0793457 1 39 C0.01 39.99 -0.98 40.98 -2 42 C-17.18 42 -32.36 42 -48 42 C-48 75.33 -48 108.66 -48 143 C-47.34 143.33 -46.68 143.66 -46 144 C-46.66 144 -47.32 144 -48 144 C-48.33 144.99 -48.66 145.98 -49 147 C-53.50951645 148.09321611 -58.72000646 149.13999677 -63 147 C-63.33 147.66 -63.66 148.32 -64 149 C-64 148.34 -64 147.68 -64 147 C-64.58265625 147.08378906 -65.1653125 147.16757813 -65.765625 147.25390625 C-72.64981275 148.10901762 -79.1183299 147.7685714 -86 147 C-86 146.67 -86 146.34 -86 146 C-74.12 146 -62.24 146 -50 146 C-50.00523682 142.8244751 -50.01047363 139.6489502 -50.01586914 136.37719727 C-50.03240281 125.91177229 -50.04347033 115.44634676 -50.05181217 104.98091221 C-50.05704164 98.63269424 -50.06414044 92.2844896 -50.07543945 85.9362793 C-50.08626606 79.81551418 -50.09227635 73.69476191 -50.09487724 67.57398796 C-50.0967319 65.23309057 -50.10035329 62.89219391 -50.10573006 60.55130196 C-50.11293748 57.28491798 -50.11399107 54.01858785 -50.11352539 50.75219727 C-50.11712067 49.773965 -50.12071594 48.79573273 -50.12442017 47.78785706 C-50.1230455 46.90299622 -50.12167084 46.01813538 -50.12025452 45.10646057 C-50.12117631 44.33307626 -50.1220981 43.55969194 -50.12304783 42.76287174 C-50 41 -50 41 -49 40 C-47.52645652 39.90695982 -46.04849409 39.88253735 -44.57202148 39.88647461 C-43.63112167 39.88655014 -42.69022186 39.88662567 -41.72080994 39.88670349 C-40.69790359 39.89186478 -39.67499725 39.89702606 -38.62109375 39.90234375 C-37.57929459 39.9037587 -36.53749542 39.90517365 -35.46412659 39.90663147 C-32.12188906 39.9122492 -28.77971743 39.9248047 -25.4375 39.9375 C-23.17773534 39.94251272 -20.91796963 39.94707602 -18.65820312 39.95117188 C-13.10542266 39.96137544 -7.55278548 39.98094736 -2 40 C-2 27.13 -2 14.26 -2 1 C-17.51 1 -33.02 1 -49 1 C-49 0.67 -49 0.34 -49 0 C-42.34326276 -0.16800441 -35.68636714 -0.32793562 -29.02929688 -0.48217773 C-26.76330137 -0.53564249 -24.49734915 -0.59097521 -22.23144531 -0.64819336 C-18.97991269 -0.7299795 -15.72828503 -0.80511006 -12.4765625 -0.87890625 C-11.45881744 -0.90594131 -10.44107239 -0.93297638 -9.39248657 -0.96083069 C-8.45166229 -0.98092697 -7.51083801 -1.00102325 -6.54150391 -1.02172852 C-5.29574081 -1.05170677 -5.29574081 -1.05170677 -4.02481079 -1.08229065 C-2 -1 -2 -1 0 0 Z " fill="#A5050A" transform="translate(94,96)"/>
<path d="M0 0 C34.65 0 69.3 0 105 0 C105.77253741 4.63522444 106.1285542 8.51591645 106.1328125 13.15625 C106.13376923 13.82160767 106.13472595 14.48696533 106.13571167 15.17248535 C106.13638827 16.57088313 106.13457047 17.96928414 106.13037109 19.36767578 C106.1250154 21.49388766 106.13033375 23.61988834 106.13671875 25.74609375 C106.13605788 27.11197963 106.13477652 28.47786537 106.1328125 29.84375 C106.13168457 31.07287109 106.13055664 32.30199219 106.12939453 33.56835938 C106.00747921 36.80164564 105.6112654 39.82651888 105 43 C90.87897392 43.60075875 76.75969368 44.10630113 62.625 44.1875 C61.54557129 44.20039062 60.46614258 44.21328125 59.35400391 44.2265625 C54.17056444 44.23316876 49.8424133 44.10503534 45 42 C45 41.67 45 41.34 45 41 C64.47 41 83.94 41 104 41 C103.67 28.13 103.34 15.26 103 2 C94.61207031 2.01740234 94.61207031 2.01740234 86.0546875 2.03515625 C82.46354047 2.04027947 78.87239809 2.04509438 75.28125 2.04882812 C69.60969073 2.05475334 63.93814795 2.06167988 58.26660156 2.07543945 C18.05552093 2.17053406 18.05552093 2.17053406 0 1 C0 0.67 0 0.34 0 0 Z " fill="#BE0C13" transform="translate(2,1)"/>
<path d="M0 0 C6.76605198 5.6356462 8.61993899 12.90034079 9.61328125 21.34375 C10.37437881 33.24681673 10.13112722 45.19228482 2.36328125 54.96875 C-1.50196568 59.35063885 -6.57992448 61.09957746 -12.26611328 61.59423828 C-15.45778894 61.67374266 -18.63223478 61.65509744 -21.82421875 61.59375 C-23.47454102 61.58601563 -23.47454102 61.58601563 -25.15820312 61.578125 C-33.23213555 61.4983332 -33.23213555 61.4983332 -34.38671875 60.34375 C-34.48081354 58.31880769 -34.50414997 56.2905513 -34.50024414 54.26342773 C-34.50016861 52.96215439 -34.50009308 51.66088104 -34.50001526 50.32017517 C-34.49490784 48.88923098 -34.48969183 47.45828718 -34.484375 46.02734375 C-34.48251078 44.5714574 -34.4810869 43.11557043 -34.48008728 41.65968323 C-34.4762624 37.82095621 -34.46643239 33.98226681 -34.4553833 30.14355469 C-34.44516853 26.22917184 -34.44058952 22.31478294 -34.43554688 18.40039062 C-34.42481009 10.71482657 -34.40773404 3.02929355 -34.38671875 -4.65625 C-22.8545753 -6.33601372 -9.95024487 -7.08671685 0 0 Z M-32.38671875 -3.65625 C-32.38671875 17.13375 -32.38671875 37.92375 -32.38671875 59.34375 C-27.30486547 60.36012066 -23.12881688 60.35514975 -18.01171875 60.09375 C-16.77421875 60.05314453 -16.77421875 60.05314453 -15.51171875 60.01171875 C-8.7173766 59.67739398 -3.65739235 58.56281739 1.36328125 53.65625 C8.93403933 43.64491859 8.34164378 30.25078043 7.61328125 18.34375 C6.62909118 11.95038933 4.33846982 5.91102738 -0.38671875 1.34375 C-10.42198639 -5.33285809 -19.99699486 -3.65625 -32.38671875 -3.65625 Z " fill="#BA0F15" transform="translate(339.38671875,48.65625)"/>
<path d="M0 0 C20.79 0 41.58 0 63 0 C63.226875 7.033125 63.45375 14.06625 63.6875 21.3125 C63.76701904 23.53009033 63.84653809 25.74768066 63.9284668 28.0324707 C63.97827037 29.78854005 64.02693259 31.54464231 64.07421875 33.30078125 C64.1296283 34.6704303 64.1296283 34.6704303 64.18615723 36.06774902 C64.20682251 36.94040405 64.22748779 37.81305908 64.2487793 38.7121582 C64.27320602 39.46938675 64.29763275 40.2266153 64.32279968 41.00679016 C63.90827796 43.5663614 63.03354413 44.44335365 61 46 C60.34 46 59.68 46 59 46 C59 45.34 59 44.68 59 44 C34.25 44 9.5 44 -16 44 C-16.33 44.66 -16.66 45.32 -17 46 C-17 45.34 -17 44.68 -17 44 C-26.24 44 -35.48 44 -45 44 C-45 42.02 -45 40.04 -45 38 C-44.67 39.32 -44.34 40.64 -44 42 C-9.02 42 25.96 42 62 42 C62 28.47 62 14.94 62 1 C41.54 1 21.08 1 0 1 C0 0.67 0 0.34 0 0 Z " fill="#B50C11" transform="translate(461,183)"/>
<path d="M0 0 C1.07156762 4.28627048 1.0365854 4.66075382 -0.9375 8.25 C-1.31777344 8.95640625 -1.69804688 9.6628125 -2.08984375 10.390625 C-2.39019531 10.92171875 -2.69054687 11.4528125 -3 12 C-3.495 11.01 -3.495 11.01 -4 10 C-3.34 8.02 -2.68 6.04 -2 4 C-17.51 3.67 -33.02 3.34 -49 3 C-49.99 6.3 -50.98 9.6 -52 13 C-52.80147096 15.26270173 -53.62847408 17.51662834 -54.48828125 19.7578125 C-54.94468994 20.95365967 -55.40109863 22.14950684 -55.87133789 23.3815918 C-56.35157193 24.62945355 -56.83196182 25.87725533 -57.3125 27.125 C-58.05354573 29.05860838 -58.79361661 30.99258777 -59.53355408 32.92662048 C-60.25290805 34.80660877 -60.97312597 36.68626642 -61.69335938 38.56591797 C-62.80873823 41.49733033 -63.9055503 44.43389805 -64.984375 47.37890625 C-65.39562622 48.49918213 -65.39562622 48.49918213 -65.81518555 49.64208984 C-66.5067142 51.53481349 -67.19303967 53.42943599 -67.87890625 55.32421875 C-69 58 -69 58 -71 60 C-70.35132906 54.11281984 -68.2374354 48.92162927 -66.125 43.4375 C-65.54020874 41.89932617 -65.54020874 41.89932617 -64.94360352 40.33007812 C-64.09406032 38.09663122 -63.24214898 35.86408403 -62.38818359 33.63232422 C-60.43621269 28.5247929 -58.50143782 23.41081046 -56.56567383 18.29711914 C-54.3805591 12.53010695 -52.18969558 6.76527443 -50 1 C-33.5 0.67 -17 0.34 0 0 Z " fill="#B50C12" transform="translate(781,0)"/>
<path d="M0 0 C0.99 1.485 0.99 1.485 2 3 C1.49275492 5.47851486 0.89742379 7.63231886 0.0625 10 C-0.16695313 10.66700928 -0.39640625 11.33401855 -0.6328125 12.02124023 C-2.89742312 18.27063693 -6.07931383 23.63533151 -10 29 C-11.1446875 30.60875 -11.1446875 30.60875 -12.3125 32.25 C-28.34534534 48.65570221 -49.36872007 50.47079437 -71 51 C-72.95099609 51.061875 -72.95099609 51.061875 -74.94140625 51.125 C-80.84406653 51.2386493 -80.84406653 51.2386493 -83 51 C-83.66 50.34 -84.32 49.68 -85 49 C-83.99324219 48.96036133 -82.98648437 48.92072266 -81.94921875 48.87988281 C-78.13132248 48.72507528 -74.31469231 48.54812155 -70.49804688 48.36523438 C-68.86158658 48.28974481 -67.22485523 48.21987292 -65.58789062 48.15625 C-46.99497326 47.4253245 -29.35414229 44.80060487 -15.32421875 31.51953125 C-7.06968621 22.57134051 -2.6089334 11.74020031 0 0 Z " fill="#B70C13" transform="translate(391,98)"/>
<path d="M0 0 C0.72453369 0.00410889 1.44906738 0.00821777 2.19555664 0.01245117 C2.98768555 0.01438477 3.77981445 0.01631836 4.59594727 0.01831055 C5.42416992 0.03055664 6.25239258 0.04280273 7.10571289 0.05541992 C7.93006836 0.05606445 8.75442383 0.05670898 9.60375977 0.05737305 C13.11309733 0.08303027 15.8077659 0.12277093 19.16821289 1.24291992 C20.75932497 4.42514409 20.31005393 7.86240318 20.30102539 11.35620117 C20.30246048 12.56604927 20.30246048 12.56604927 20.30392456 13.80033875 C20.30460575 15.50930865 20.30275571 17.21828114 20.29858398 18.92724609 C20.29325568 21.53448364 20.29852021 24.14154728 20.30493164 26.7487793 C20.30427044 28.40958697 20.30298841 30.07039453 20.30102539 31.73120117 C20.30304962 32.50845047 20.30507385 33.28569977 20.30715942 34.08650208 C20.29065478 37.92936776 20.10149349 41.50748055 19.16821289 45.24291992 C16.3840953 46.0294556 13.90597972 46.37108434 11.01586914 46.37573242 C9.85087891 46.37766602 9.85087891 46.37766602 8.66235352 46.37963867 C7.45869141 46.37383789 7.45869141 46.37383789 6.23071289 46.36791992 C5.43213867 46.37178711 4.63356445 46.3756543 3.81079102 46.37963867 C-0.20174277 46.3729899 -3.91621379 46.23961131 -7.83178711 45.24291992 C-7.83178711 44.91291992 -7.83178711 44.58291992 -7.83178711 44.24291992 C0.74821289 44.24291992 9.32821289 44.24291992 18.16821289 44.24291992 C17.83821289 41.60291992 17.50821289 38.96291992 17.16821289 36.24291992 C17.08104836 33.67370436 17.0376551 31.10267516 17.03540039 28.53198242 C17.0339653 27.49066666 17.0339653 27.49066666 17.03250122 26.42831421 C17.03182686 24.97800606 17.03362863 23.52769476 17.0378418 22.07739258 C17.04325025 19.85255273 17.03784662 17.62791026 17.03149414 15.40307617 C17.0321541 13.98771114 17.03343354 12.57234624 17.03540039 11.15698242 C17.03652832 9.87774902 17.03765625 8.59851563 17.03881836 7.28051758 C17.16821289 4.24291992 17.16821289 4.24291992 18.16821289 2.24291992 C10.90821289 2.24291992 3.64821289 2.24291992 -3.83178711 2.24291992 C-1.83178711 0.24291992 -1.83178711 0.24291992 0 0 Z " fill="#BE080F" transform="translate(212.831787109375,184.757080078125)"/>
<path d="M0 0 C0.66 0 1.32 0 2 0 C2.0493521 5.51756476 2.08569662 11.03500171 2.10986328 16.55273438 C2.11993534 18.43068682 2.13359362 20.30862353 2.15087891 22.18652344 C2.17507453 24.8822009 2.18647083 27.57767146 2.1953125 30.2734375 C2.20563507 31.11619232 2.21595764 31.95894714 2.22659302 32.82723999 C2.22699144 34.88621247 2.12257588 36.94467935 2 39 C0 41 0 41 -2.91967773 41.24291992 C-4.16177002 41.23881104 -5.4038623 41.23470215 -6.68359375 41.23046875 C-7.70292244 41.23032524 -7.70292244 41.23032524 -8.74284363 41.23017883 C-10.97457043 41.22643562 -13.2058637 41.20745555 -15.4375 41.1875 C-16.97118988 41.18063986 -18.50488138 41.1741319 -20.03857422 41.16796875 C-33.70412869 41.09002424 -47.34955302 40.64625637 -61 40 C-61 39.67 -61 39.34 -61 39 C-41.2 38.67 -21.4 38.34 -1 38 C-0.67 25.46 -0.34 12.92 0 0 Z " fill="#A80B10" transform="translate(233,8)"/>
<path d="M0 0 C0.33 0 0.66 0 1 0 C1 11.22 1 22.44 1 34 C14.86 34 28.72 34 43 34 C43.33 34.66 43.66 35.32 44 36 C29.48 36 14.96 36 0 36 C-0.33 30.39 -0.66 24.78 -1 19 C-1.33 18.01 -1.66 17.02 -2 16 C-1.75316617 13.24510752 -1.4470867 10.54760419 -1.0625 7.8125 C-0.96259766 7.06291016 -0.86269531 6.31332031 -0.75976562 5.54101562 C-0.51260359 3.69318518 -0.25710389 1.8464734 0 0 Z " fill="#C61017" transform="translate(557,194)"/>
<path d="M0 0 C17.49 0 34.98 0 53 0 C56 8 56 8 55 12 C52 5.375 52 5.375 52 2 C35.83 2 19.66 2 3 2 C3.33 3.65 3.66 5.3 4 7 C1.23609263 4.59660228 0.95934081 3.83736322 0 0 Z " fill="#B10C11" transform="translate(626,1)"/>
<path d="M0 0 C14.19 0 28.38 0 43 0 C43 2.31 43 4.62 43 7 C42.67 7 42.34 7 42 7 C42 5.35 42 3.7 42 2 C41.34 2.33 40.68 2.66 40 3 C37.08300726 3.08698228 34.19017452 3.11551923 31.2734375 3.09765625 C29.97921371 3.09553383 29.97921371 3.09553383 28.65884399 3.09336853 C25.8975277 3.08776188 23.13629188 3.07520827 20.375 3.0625 C18.5052095 3.05748586 16.63541774 3.0529228 14.765625 3.04882812 C10.17705223 3.03779029 5.58853977 3.0205212 1 3 C0.67 2.01 0.34 1.02 0 0 Z " fill="#D2161D" transform="translate(558,6)"/>
<path d="M0 0 C2.80567494 1.40283747 2.91602505 2.93702221 3.98828125 5.85546875 C4.55011108 7.36947266 4.55011108 7.36947266 5.12329102 8.9140625 C5.51572998 9.99429688 5.90816895 11.07453125 6.3125 12.1875 C6.71331787 13.27417969 7.11413574 14.36085938 7.52709961 15.48046875 C8.69346925 18.65054113 9.84929916 21.8242103 11 25 C11.29970703 25.82709473 11.59941406 26.65418945 11.90820312 27.50634766 C13.28987324 31.33140123 14.65526855 35.16177153 16 39 C17.65 36.03 19.3 33.06 21 30 C22.305239 33.91571701 21.32239848 35.03892997 19.5625 38.6875 C19.08941406 39.68136719 18.61632812 40.67523438 18.12890625 41.69921875 C17.75636719 42.45847656 17.38382813 43.21773437 17 44 C14.13827564 41.55860735 13.13834856 39.22089716 11.9140625 35.6953125 C11.54273193 34.64230957 11.17140137 33.58930664 10.78881836 32.50439453 C10.4047583 31.38919434 10.02069824 30.27399414 9.625 29.125 C8.82800529 26.85375142 8.02983879 24.58291367 7.23046875 22.3125 C6.6569165 20.67667969 6.6569165 20.67667969 6.07177734 19.0078125 C4.42174154 14.37718811 2.62119112 9.81466089 0.77734375 5.2578125 C0 3 0 3 0 0 Z " fill="#B40B13" transform="translate(688,31)"/>
<path d="M0 0 C10.33653307 1.54027333 17.6101508 8.98119102 23.8359375 16.8671875 C26.92826052 21.34379952 29.10387457 25.91606544 31 31 C31.433125 32.0725 31.86625 33.145 32.3125 34.25 C33.14191876 37.56767506 33.13622708 40.59432309 33 44 C31.30647508 40.85914541 30.23406384 37.7193993 29.1875 34.3125 C24.32255521 19.6643998 15.83311648 10.07108693 2.52734375 2.49609375 C1.69332031 2.00238281 0.85929687 1.50867188 0 1 C0 0.67 0 0.34 0 0 Z " fill="#B50C13" transform="translate(359,13)"/>
<path d="M0 0 C-1 1 -1 1 -2.75270081 1.12025452 C-3.51437057 1.11803391 -4.27604034 1.11581329 -5.06079102 1.11352539 C-5.92160782 1.11344986 -6.78242462 1.11337433 -7.66932678 1.11329651 C-8.60473801 1.10813522 -9.54014923 1.10297394 -10.50390625 1.09765625 C-11.45692123 1.0962413 -12.40993622 1.09482635 -13.39183044 1.09336853 C-16.44875165 1.08775152 -19.50560077 1.07519616 -22.5625 1.0625 C-24.62955624 1.05748719 -26.69661362 1.05292391 -28.76367188 1.04882812 C-33.84247588 1.03777656 -38.9212257 1.02050055 -44 1 C-44.33 2.32 -44.66 3.64 -45 5 C-45 3.02 -45 1.04 -45 -1 C-39.23455425 -1.19248585 -33.4689078 -1.37117352 -27.70263672 -1.53710938 C-25.7412572 -1.59549342 -23.77998594 -1.65764082 -21.81884766 -1.72363281 C-18.99922393 -1.81785821 -16.17948743 -1.89852438 -13.359375 -1.9765625 C-12.48319519 -2.00875885 -11.60701538 -2.0409552 -10.70428467 -2.0741272 C-9.88373596 -2.09429901 -9.06318726 -2.11447083 -8.21777344 -2.13525391 C-7.49829529 -2.15746002 -6.77881714 -2.17966614 -6.03753662 -2.20254517 C-3.65780548 -1.96598351 -2.06282245 -1.1779529 0 0 Z " fill="#BF1218" transform="translate(461,7)"/>
<path d="M0 0 C4.10748575 3.60759039 5.36725172 8.4381309 7.25 13.4375 C7.62640625 14.39205078 8.0028125 15.34660156 8.390625 16.33007812 C8.74125 17.25111328 9.091875 18.17214844 9.453125 19.12109375 C9.77442383 19.9608374 10.09572266 20.80058105 10.42675781 21.66577148 C11.05058751 24.20599115 10.85857957 25.56091737 10 28 C0.9280648 28.09471858 -7.98185679 28.14516104 -17 27 C-17 26.67 -17 26.34 -17 26 C-8.42 26 0.16 26 9 26 C6.04168514 18.19028364 6.04168514 18.19028364 3.07617188 10.38330078 C2.71072266 9.41376465 2.34527344 8.44422852 1.96875 7.4453125 C1.59169922 6.45031738 1.21464844 5.45532227 0.82617188 4.43017578 C0 2 0 2 0 0 Z " fill="#B40B11" transform="translate(767,216)"/>
<path d="M0 0 C1.93395001 3.86790003 2.23289353 5.1500459 2.125 9.25 C2.10695312 10.14203125 2.08890625 11.0340625 2.0703125 11.953125 C2.04710937 12.62859375 2.02390625 13.3040625 2 14 C2.66 14.33 3.32 14.66 4 15 C3.34 15 2.68 15 2 15 C1.67 15.99 1.34 16.98 1 18 C-3.50951645 19.09321611 -8.72000646 20.13999677 -13 18 C-13.33 18.66 -13.66 19.32 -14 20 C-14 19.34 -14 18.68 -14 18 C-14.87398437 18.12568359 -14.87398437 18.12568359 -15.765625 18.25390625 C-22.64981275 19.10901762 -29.1183299 18.7685714 -36 18 C-36 17.67 -36 17.34 -36 17 C-24.12 17 -12.24 17 0 17 C0 11.39 0 5.78 0 0 Z " fill="#B90D10" transform="translate(44,225)"/>
<path d="M0 0 C0.33 0 0.66 0 1 0 C1 13.2 1 26.4 1 40 C0.67 39.34 0.34 38.68 0 38 C-0.66 38 -1.32 38 -2 38 C-2.0269501 35.06243881 -2.04681474 32.12512445 -2.0625 29.1875 C-2.07087891 28.35412109 -2.07925781 27.52074219 -2.08789062 26.66210938 C-2.09111328 25.85966797 -2.09433594 25.05722656 -2.09765625 24.23046875 C-2.10289307 23.49207764 -2.10812988 22.75368652 -2.11352539 21.99291992 C-2 20 -2 20 -1 17 C-1.13548341 15.5981615 -1.32897246 14.2013743 -1.5625 12.8125 C-2.18727954 8.04855604 -1.41152906 4.56671167 0 0 Z " fill="#CE0712" transform="translate(557,86)"/>
<path d="M0 0 C6.27 0 12.54 0 19 0 C19 0.33 19 0.66 19 1 C10.585 1.495 10.585 1.495 2 2 C2 11.9 2 21.8 2 32 C1.01 31.67 0.02 31.34 -1 31 C-1.02469575 26.90658501 -1.04285793 22.81319879 -1.05493164 18.71972656 C-1.0599643 17.32681523 -1.06679098 15.9339092 -1.07543945 14.54101562 C-1.08755152 12.54038754 -1.09270412 10.53972112 -1.09765625 8.5390625 C-1.10289307 7.33459473 -1.10812988 6.13012695 -1.11352539 4.88916016 C-1 2 -1 2 0 0 Z " fill="#B8070E" transform="translate(557,7)"/>
<path d="M0 0 C20.13 0 40.26 0 61 0 C61 0.33 61 0.66 61 1 C53.74 1.33 46.48 1.66 39 2 C39 2.33 39 2.66 39 3 C32.25 3.125 32.25 3.125 30 2 C27.75025839 1.84504237 25.49628464 1.74989072 23.2421875 1.68359375 C22.57913605 1.66281265 21.91608459 1.64203156 21.23294067 1.62062073 C19.11373306 1.55520769 16.994401 1.49627895 14.875 1.4375 C13.43878919 1.39430691 12.00259098 1.35069236 10.56640625 1.30664062 C7.04440406 1.19953501 3.52226175 1.09824425 0 1 C0 0.67 0 0.34 0 0 Z " fill="#D90D17" transform="translate(170,228)"/>
<path d="M0 0 C4.42281759 4.42281759 3.10403994 13.47791187 3.125 19.5 C3.06780725 35.93219275 3.06780725 35.93219275 0 39 C0 26.13 0 13.26 0 0 Z " fill="#B70F16" transform="translate(392,58)"/>
<path d="M0 0 C16.83 0.33 33.66 0.66 51 1 C51 1.33 51 1.66 51 2 C35.16 2 19.32 2 3 2 C3.33 3.65 3.66 5.3 4 7 C1.23609263 4.59660228 0.95934081 3.83736322 0 0 Z " fill="#C70C15" transform="translate(626,1)"/>
<path d="M0 0 C0.33 0 0.66 0 1 0 C1.7903481 10.15293327 2.14727634 19.85101699 1 30 C0.67 30 0.34 30 0 30 C-1.39371948 23.63035643 -2.17871269 18.48291981 -1 12 C-0.96022733 9.37500371 -0.99819699 6.76108533 -1.0625 4.13671875 C-1 2 -1 2 0 0 Z " fill="#BB060D" transform="translate(557,127)"/>
<path d="M0 0 C0.33 0 0.66 0 1 0 C1 11.55 1 23.1 1 35 C0.67 35 0.34 35 0 35 C-0.06058594 33.87980469 -0.12117187 32.75960937 -0.18359375 31.60546875 C-0.26801424 30.13280016 -0.35266149 28.66014456 -0.4375 27.1875 C-0.47681641 26.44951172 -0.51613281 25.71152344 -0.55664062 24.95117188 C-0.74381035 21.76928658 -0.98720793 19.03837622 -2 16 C-1.75316617 13.24510752 -1.4470867 10.54760419 -1.0625 7.8125 C-0.96259766 7.06291016 -0.86269531 6.31332031 -0.75976562 5.54101562 C-0.51260359 3.69318518 -0.25710389 1.8464734 0 0 Z " fill="#B6060C" transform="translate(557,194)"/>
<path d="M0 0 C2.63746863 2.57516622 3.21887499 4.54331396 3.29296875 8.109375 C3.27313353 9.65652231 3.2375101 11.20353396 3.1875 12.75 C3.17396484 13.54277344 3.16042969 14.33554688 3.14648438 15.15234375 C3.11125223 17.10185564 3.05744821 19.05101626 3 21 C2.34 21 1.68 21 1 21 C-0.10087193 13.98194143 -0.09733092 7.09434233 0 0 Z " fill="#D50B15" transform="translate(304,205)"/>
<path d="M0 0 C0.9583374 0.04713135 1.9166748 0.0942627 2.90405273 0.14282227 C3.93852539 0.19116211 4.97299805 0.23950195 6.03881836 0.28930664 C7.12743164 0.34538086 8.21604492 0.40145508 9.33764648 0.45922852 C10.43012695 0.51143555 11.52260742 0.56364258 12.64819336 0.61743164 C15.35743724 0.74756999 18.06635442 0.88254906 20.77514648 1.02172852 C20.77514648 1.35172852 20.77514648 1.68172852 20.77514648 2.02172852 C13.51514648 2.02172852 6.25514648 2.02172852 -1.22485352 2.02172852 C-1.55485352 6.64172852 -1.88485352 11.26172852 -2.22485352 16.02172852 C-2.55485352 16.02172852 -2.88485352 16.02172852 -3.22485352 16.02172852 C-3.25170447 13.54249051 -3.27161899 11.06354012 -3.28735352 8.58422852 C-3.29992187 7.52365234 -3.29992187 7.52365234 -3.31274414 6.44165039 C-3.32138939 4.63479292 -3.27705363 2.82785249 -3.22485352 1.02172852 C-2.22485352 0.02172852 -2.22485352 0.02172852 0 0 Z " fill="#DA101C" transform="translate(3.224853515625,0.978271484375)"/>
<path d="M0 0 C1 3 1 3 0 6 C-4.39436211 6.85743651 -8.52572076 7.08948558 -13 7 C-13 6.67 -13 6.34 -13 6 C-15.64 5.67 -18.28 5.34 -21 5 C-21 4.67 -21 4.34 -21 4 C-18.41659616 3.97296438 -15.83347692 3.95314389 -13.25 3.9375 C-12.52039063 3.92912109 -11.79078125 3.92074219 -11.0390625 3.91210938 C-7.51329442 3.89608316 -4.38965084 4.04707287 -1 5 C-0.67 3.35 -0.34 1.7 0 0 Z " fill="#CE121A" transform="translate(677,229)"/>
<path d="M0 0 C-7.59 0.33 -15.18 0.66 -23 1 C-23.33 0.34 -23.66 -0.32 -24 -1 C-5.25 -3.5 -5.25 -3.5 0 0 Z " fill="#B0060D" transform="translate(198,9)"/>
<path d="M0 0 C3.42931954 3.7559214 4.56429083 8.23466745 6 13 C6.66 13 7.32 13 8 13 C8 14.65 8 16.3 8 18 C4.9752109 15.44533941 3.79379389 12.62983727 2.3125 9 C1.87550781 7.948125 1.43851563 6.89625 0.98828125 5.8125 C0 3 0 3 0 0 Z " fill="#B10B11" transform="translate(640,32)"/>
<path d="M0 0 C0.33 0 0.66 0 1 0 C1 5.61 1 11.22 1 17 C0.01 15.68 -0.98 14.36 -2 13 C-1.625 11 -1.625 11 -1 9 C-1.185625 8.360625 -1.37125 7.72125 -1.5625 7.0625 C-2.16452755 4.22437012 -1.21266333 2.56799293 0 0 Z " fill="#C0030A" transform="translate(557,173)"/>
<path d="M0 0 C1.24592785 3.73778355 0.54425229 4.9910133 -0.8125 8.625 C-1.16957031 9.60726562 -1.52664063 10.58953125 -1.89453125 11.6015625 C-3 14 -3 14 -5 15 C-4.5188509 9.22621075 -2.81532819 5.04140164 0 0 Z " fill="#AF0B12" transform="translate(683,213)"/>
<path d="M0 0 C0.33 0 0.66 0 1 0 C1.33 5.61 1.66 11.22 2 17 C1.67 17 1.34 17 1 17 C1 15.02 1 13.04 1 11 C0.34 11 -0.32 11 -1 11 C-1.0270043 9.54176788 -1.04639787 8.08339325 -1.0625 6.625 C-1.07410156 5.81289062 -1.08570313 5.00078125 -1.09765625 4.1640625 C-1 2 -1 2 0 0 Z " fill="#C50715" transform="translate(557,127)"/>
<path d="M0 0 C1.98 0.495 1.98 0.495 4 1 C4 1.66 4 2.32 4 3 C2.68 3 1.36 3 0 3 C0 6.3 0 9.6 0 13 C-0.33 13 -0.66 13 -1 13 C-1.02696365 11.20841511 -1.04637917 9.41671527 -1.0625 7.625 C-1.07410156 6.62726562 -1.08570313 5.62953125 -1.09765625 4.6015625 C-1 2 -1 2 0 0 Z " fill="#DA131B" transform="translate(44,42)"/>
<path d="M0 0 C1.67542976 0.28604898 3.34385343 0.61781233 5 1 C4.01 1.495 4.01 1.495 3 2 C2.34786708 4.02463255 2.34786708 4.02463255 2 6 C1.01 6 0.02 6 -1 6 C-1.042721 4.33388095 -1.04063832 2.66617115 -1 1 C-0.67 0.67 -0.34 0.34 0 0 Z " fill="#DD121B" transform="translate(171,47)"/>
<path d="M0 0 C1.98 0 3.96 0 6 0 C6 0.33 6 0.66 6 1 C4.02 1 2.04 1 0 1 C0 0.67 0 0.34 0 0 Z " fill="#FF0000" transform="translate(460,228)"/>
<path d="M0 0 C0.66 0.33 1.32 0.66 2 1 C2 1.66 2 2.32 2 3 C1.01 2.67 0.02 2.34 -1 2 C-0.67 1.34 -0.34 0.68 0 0 Z " fill="#FF0000" transform="translate(649,61)"/>
<path d="M0 0 C0 3 0 3 0 3 Z " fill="#FF0F0F" transform="translate(658,80)"/>
<path d="M0 0 C3 1 3 1 3 1 Z " fill="#FF0000" transform="translate(516,228)"/>
<path d="M0 0 C3 1 3 1 3 1 Z " fill="#FF0000" transform="translate(501,228)"/>
<path d="" fill="#FF0000" transform="translate(0,0)"/>
<path d="" fill="#FF1515" transform="translate(0,0)"/>
<path d="" fill="#FF0000" transform="translate(0,0)"/>
<path d="" fill="#FF1F1F" transform="translate(0,0)"/>
<path d="M0 0 C2 1 2 1 2 1 Z " fill="#FF0000" transform="translate(512,228)"/>
<path d="M0 0 C2 1 2 1 2 1 Z " fill="#FF0000" transform="translate(508,228)"/>
<path d="M0 0 C2 1 2 1 2 1 Z " fill="#FF0000" transform="translate(493,228)"/>
<path d="M0 0 C2 1 2 1 2 1 Z " fill="#FF0000" transform="translate(484,228)"/>
<path d="M0 0 C2 1 2 1 2 1 Z " fill="#FF0000" transform="translate(476,228)"/>
<path d="M0 0 C2 1 2 1 2 1 Z " fill="#FF0000" transform="translate(472,228)"/>
<path d="M0 0 C2 1 2 1 2 1 Z " fill="#FF0000" transform="translate(452,228)"/>
<path d="M0 0 C2 1 2 1 2 1 Z " fill="#FF002A" transform="translate(447,228)"/>
<path d="" fill="#FF0000" transform="translate(0,0)"/>
<path d="" fill="#FF0000" transform="translate(0,0)"/>
<path d="" fill="#FF002A" transform="translate(0,0)"/>
<path d="" fill="#FF0000" transform="translate(0,0)"/>
<path d="" fill="#FF0000" transform="translate(0,0)"/>
<path d="" fill="#FF0000" transform="translate(0,0)"/>
<path d="" fill="#FF0000" transform="translate(0,0)"/>
<path d="" fill="#FF0000" transform="translate(0,0)"/>
<path d="" fill="#FF0000" transform="translate(0,0)"/>
<path d="M0 0 C2 1 2 1 2 1 Z " fill="#FF0000" transform="translate(336,103)"/>
<path d="" fill="#FF0000" transform="translate(0,0)"/>
<path d="" fill="#FF0000" transform="translate(0,0)"/>
<path d="" fill="#FF0000" transform="translate(0,0)"/>
<path d="M0 0 C2 1 2 1 2 1 Z " fill="#FF0000" transform="translate(351,8)"/>
<path d="" fill="#FF5555" transform="translate(0,0)"/>
<path d="" fill="#FF0000" transform="translate(0,0)"/>
<path d="" fill="#FF0000" transform="translate(0,0)"/>
<path d="" fill="#FF0000" transform="translate(0,0)"/>
<path d="" fill="#FF0000" transform="translate(0,0)"/>
<path d="" fill="#FF0000" transform="translate(0,0)"/>
<path d="" fill="#FF0000" transform="translate(0,0)"/>
<path d="" fill="#FF0000" transform="translate(0,0)"/>
<path d="" fill="#FF0000" transform="translate(0,0)"/>
<path d="" fill="#FF0000" transform="translate(0,0)"/>
<path d="" fill="#FF0000" transform="translate(0,0)"/>
<path d="" fill="#FF0000" transform="translate(0,0)"/>
<path d="" fill="#FF0000" transform="translate(0,0)"/>
<path d="" fill="#FF0000" transform="translate(0,0)"/>
<path d="" fill="#FF0000" transform="translate(0,0)"/>
<path d="" fill="#FF0000" transform="translate(0,0)"/>
<path d="" fill="#FF0000" transform="translate(0,0)"/>
<path d="" fill="#FF0000" transform="translate(0,0)"/>
<path d="" fill="#FF0000" transform="translate(0,0)"/>
<path d="" fill="#FF0000" transform="translate(0,0)"/>
<path d="" fill="#FF0000" transform="translate(0,0)"/>
<path d="" fill="#FF3333" transform="translate(0,0)"/>
<path d="" fill="#FF0000" transform="translate(0,0)"/>
<path d="" fill="#FF0000" transform="translate(0,0)"/>
<path d="" fill="#FF0000" transform="translate(0,0)"/>
<path d="" fill="#FF0000" transform="translate(0,0)"/>
<path d="" fill="#FF0000" transform="translate(0,0)"/>
<path d="" fill="#FF0000" transform="translate(0,0)"/>
<path d="" fill="#FF0000" transform="translate(0,0)"/>
<path d="" fill="#FF0000" transform="translate(0,0)"/>
<path d="" fill="#FF0000" transform="translate(0,0)"/>
<path d="" fill="#FF0000" transform="translate(0,0)"/>
<path d="" fill="#FF3F3F" transform="translate(0,0)"/>
<path d="" fill="#FF0000" transform="translate(0,0)"/>
<path d="" fill="#FF0000" transform="translate(0,0)"/>
<path d="" fill="#FF0000" transform="translate(0,0)"/>
<path d="" fill="#FF0000" transform="translate(0,0)"/>
<path d="" fill="#FF0000" transform="translate(0,0)"/>
<path d="" fill="#FF0000" transform="translate(0,0)"/>
<path d="" fill="#FF0000" transform="translate(0,0)"/>
<path d="" fill="#FF0000" transform="translate(0,0)"/>
<path d="" fill="#FF0000" transform="translate(0,0)"/>
<path d="" fill="#FF0000" transform="translate(0,0)"/>
<path d="" fill="#FF0000" transform="translate(0,0)"/>
<path d="" fill="#FF0000" transform="translate(0,0)"/>
<path d="" fill="#FF0000" transform="translate(0,0)"/>
<path d="" fill="#FF0000" transform="translate(0,0)"/>
<path d="" fill="#FF0000" transform="translate(0,0)"/>
<path d="" fill="#FF0000" transform="translate(0,0)"/>
<path d="" fill="#FF0000" transform="translate(0,0)"/>
<path d="" fill="#FF0000" transform="translate(0,0)"/>
<path d="" fill="#FF0000" transform="translate(0,0)"/>
<path d="" fill="#FF0000" transform="translate(0,0)"/>
<path d="" fill="#FF0000" transform="translate(0,0)"/>
<path d="" fill="#FF0000" transform="translate(0,0)"/>
<path d="" fill="#FF0000" transform="translate(0,0)"/>
<path d="" fill="#FF0000" transform="translate(0,0)"/>
<path d="" fill="#FF0000" transform="translate(0,0)"/>
<path d="" fill="#FF0000" transform="translate(0,0)"/>
<path d="" fill="#FF0055" transform="translate(0,0)"/>
<path d="" fill="#FF0000" transform="translate(0,0)"/>
<path d="" fill="#FF0000" transform="translate(0,0)"/>
<path d="" fill="#FF0000" transform="translate(0,0)"/>
<path d="" fill="#FF0000" transform="translate(0,0)"/>
<path d="" fill="#FF0000" transform="translate(0,0)"/>
<path d="" fill="#FF0000" transform="translate(0,0)"/>
<path d="" fill="#FF0000" transform="translate(0,0)"/>
<path d="" fill="#FF0000" transform="translate(0,0)"/>
<path d="" fill="#FF0000" transform="translate(0,0)"/>
<path d="" fill="#FF0000" transform="translate(0,0)"/>
<path d="" fill="#FF0000" transform="translate(0,0)"/>
<path d="" fill="#FF0000" transform="translate(0,0)"/>
<path d="" fill="#FF0000" transform="translate(0,0)"/>
<path d="" fill="#FF0000" transform="translate(0,0)"/>
<path d="" fill="#FF0000" transform="translate(0,0)"/>
<path d="" fill="#FF0000" transform="translate(0,0)"/>
<path d="" fill="#FF0000" transform="translate(0,0)"/>
<path d="" fill="#FF0000" transform="translate(0,0)"/>
<path d="" fill="#FF0000" transform="translate(0,0)"/>
<path d="" fill="#FF0000" transform="translate(0,0)"/>
<path d="" fill="#FF0000" transform="translate(0,0)"/>
<path d="" fill="#FF0000" transform="translate(0,0)"/>
<path d="" fill="#FF0000" transform="translate(0,0)"/>
<path d="" fill="#FF0000" transform="translate(0,0)"/>
<path d="" fill="#FF0000" transform="translate(0,0)"/>
<path d="" fill="#FF0000" transform="translate(0,0)"/>
<path d="" fill="#FF0000" transform="translate(0,0)"/>
<path d="" fill="#FF0000" transform="translate(0,0)"/>
<path d="" fill="#FF0000" transform="translate(0,0)"/>
<path d="" fill="#FF0000" transform="translate(0,0)"/>
<path d="" fill="#FF0000" transform="translate(0,0)"/>
<path d="" fill="#FF0000" transform="translate(0,0)"/>
<path d="" fill="#FF0000" transform="translate(0,0)"/>
<path d="" fill="#FF0000" transform="translate(0,0)"/>
<path d="" fill="#FF0000" transform="translate(0,0)"/>
<path d="" fill="#FF0000" transform="translate(0,0)"/>
<path d="" fill="#FF0000" transform="translate(0,0)"/>
<path d="" fill="#FF0000" transform="translate(0,0)"/>
<path d="" fill="#FF0000" transform="translate(0,0)"/>
<path d="" fill="#FF0000" transform="translate(0,0)"/>
<path d="" fill="#FF0000" transform="translate(0,0)"/>
<path d="" fill="#FF0000" transform="translate(0,0)"/>
<path d="" fill="#FF0000" transform="translate(0,0)"/>
<path d="" fill="#FF0000" transform="translate(0,0)"/>
<path d="" fill="#FF0000" transform="translate(0,0)"/>
<path d="" fill="#FF2A2A" transform="translate(0,0)"/>
<path d="" fill="#FF0000" transform="translate(0,0)"/>
<path d="" fill="#FF0000" transform="translate(0,0)"/>
<path d="" fill="#FF0000" transform="translate(0,0)"/>
<path d="" fill="#FF0000" transform="translate(0,0)"/>
<path d="" fill="#FF0000" transform="translate(0,0)"/>
<path d="" fill="#FF0000" transform="translate(0,0)"/>
<path d="" fill="#FF0000" transform="translate(0,0)"/>
<path d="" fill="#FF0000" transform="translate(0,0)"/>
<path d="" fill="#FF3F3F" transform="translate(0,0)"/>
<path d="" fill="#FF0000" transform="translate(0,0)"/>
<path d="" fill="#FF0000" transform="translate(0,0)"/>
<path d="" fill="#FF0000" transform="translate(0,0)"/>
<path d="" fill="#FF0000" transform="translate(0,0)"/>
<path d="" fill="#FF0000" transform="translate(0,0)"/>
<path d="" fill="#FF0000" transform="translate(0,0)"/>
<path d="" fill="#FF0000" transform="translate(0,0)"/>
<path d="" fill="#FF0000" transform="translate(0,0)"/>
<path d="" fill="#FF0000" transform="translate(0,0)"/>
<path d="" fill="#FF0000" transform="translate(0,0)"/>
<path d="" fill="#FF0000" transform="translate(0,0)"/>
<path d="" fill="#FF0000" transform="translate(0,0)"/>
<path d="" fill="#FF0000" transform="translate(0,0)"/>
</svg>
