<?xml version="1.0" encoding="UTF-8"?>
<svg version="1.1" xmlns="http://www.w3.org/2000/svg" width="512" height="256">
<path d="M0 0 C0.87205078 -0.03738281 1.74410156 -0.07476562 2.64257812 -0.11328125 C5.0378683 -0.14642131 7.21132584 -0.08365269 9.5625 0.375 C11.43359375 2.2265625 11.43359375 2.2265625 12.5625 5.375 C12.98341919 6.54506592 12.98341919 6.54506592 13.4128418 7.73876953 C14.38603542 10.52040747 15.29320264 13.31705788 16.1875 16.125 C16.80207693 18.03729929 17.41912941 19.94880536 18.0390625 21.859375 C18.30799316 22.70209961 18.57692383 23.54482422 18.85400391 24.41308594 C19.39672933 26.35086135 19.39672933 26.35086135 20.5625 27.375 C20.85495605 26.62814941 21.14741211 25.88129883 21.44873047 25.11181641 C22.7729327 21.73906649 24.10510724 18.36952219 25.4375 15 C25.89769531 13.824375 26.35789062 12.64875 26.83203125 11.4375 C27.49912109 9.75527344 27.49912109 9.75527344 28.1796875 8.0390625 C28.79239502 6.48372803 28.79239502 6.48372803 29.41748047 4.89697266 C30.5625 2.375 30.5625 2.375 32.5625 0.375 C34.71728516 0.14794922 34.71728516 0.14794922 37.3515625 0.1796875 C38.29257812 0.18613281 39.23359375 0.19257812 40.203125 0.19921875 C41.18796875 0.21597656 42.1728125 0.23273438 43.1875 0.25 C44.18007813 0.25902344 45.17265625 0.26804687 46.1953125 0.27734375 C48.65128134 0.30095884 51.10677168 0.33389201 53.5625 0.375 C52.40014615 10.43188769 48.10440921 19.37434445 43.88671875 28.48828125 C40.59463833 35.66482234 37.38575052 42.91268011 34.625 50.3125 C34.38910156 50.94027344 34.15320313 51.56804687 33.91015625 52.21484375 C32.93862344 58.2514465 35.31644607 63.93934083 37.51171875 69.44140625 C37.95436821 70.57533058 37.95436821 70.57533058 38.40596008 71.73216248 C39.03040223 73.3277811 39.65841416 74.9220068 40.28979492 76.51489258 C41.2365355 78.90352892 42.17299141 81.29597799 43.10742188 83.68945312 C46.61407547 92.64714902 46.61407547 92.64714902 50.35791016 101.50732422 C50.63842728 102.14669418 50.9189444 102.78606415 51.20796204 103.44480896 C51.96617543 105.15686555 52.73618898 106.86368264 53.50708008 108.57006836 C54.5625 111.375 54.5625 111.375 54.5625 115.375 C52.01999979 115.26025534 49.47902662 115.1335303 46.9375 115 C46.22464844 114.9690625 45.51179688 114.938125 44.77734375 114.90625 C44.07480469 114.86757812 43.37226563 114.82890625 42.6484375 114.7890625 C41.6901001 114.74193115 41.6901001 114.74193115 40.71240234 114.69384766 C37.74725698 114.25409296 35.31371668 113.59160231 32.5625 112.375 C30.87158203 110.06835938 30.87158203 110.06835938 29.5703125 107.21875 C29.09335937 106.19652344 28.61640625 105.17429687 28.125 104.12109375 C27.650625 103.04988281 27.17625 101.97867188 26.6875 100.875 C26.18992187 99.80378906 25.69234375 98.73257813 25.1796875 97.62890625 C21.5625 89.74860491 21.5625 89.74860491 21.5625 87.375 C19.13229858 89.56386203 17.85935201 91.53162042 16.58984375 94.53515625 C16.24759766 95.32857422 15.90535156 96.12199219 15.55273438 96.93945312 C15.20533203 97.76380859 14.85792969 98.58816406 14.5 99.4375 C13.80505576 101.07603826 13.10601653 102.71284747 12.40234375 104.34765625 C11.94396118 105.43445679 11.94396118 105.43445679 11.47631836 106.54321289 C10.5625 108.375 10.5625 108.375 8.5625 110.375 C5.8046875 110.38671875 5.8046875 110.38671875 2.4375 110.0625 C1.27605469 109.95421875 0.11460937 109.8459375 -1.08203125 109.734375 C-4.87576548 109.32806121 -8.65750893 108.8938223 -12.4375 108.375 C-11.8551128 103.00250456 -10.00424667 98.76350062 -7.7265625 93.94140625 C-7.3577597 93.14524399 -6.98895691 92.34908173 -6.60897827 91.52879333 C-5.43364693 88.99512032 -4.24841006 86.46623627 -3.0625 83.9375 C-1.8859333 81.41135628 -0.71141287 78.88427073 0.46255493 76.35691833 C1.19182922 74.78882309 1.92298263 73.22159989 2.65634155 71.65541077 C3.3228416 70.22927839 3.98346998 68.80038296 4.63739014 67.36843872 C5.23642794 66.07762431 5.85986382 64.79774241 6.51153564 63.53268433 C9.06408582 58.33405252 8.67967462 54.6909045 6.86090088 49.29257202 C5.9791474 46.93708412 5.03512829 44.61563857 4.0703125 42.29296875 C3.55040237 41.01163811 3.55040237 41.01163811 3.01998901 39.704422 C1.91656274 36.98735993 0.80287349 34.27467713 -0.3125 31.5625 C-1.41957277 28.86059436 -2.52421889 26.1577719 -3.62356567 23.45271301 C-4.30555401 21.77554826 -4.99198875 20.10018153 -5.68380737 18.42704773 C-7.96293276 12.83505986 -9.79514822 7.1850047 -11.4375 1.375 C-7.90372526 -0.39188737 -3.89345402 0.06302869 0 0 Z " fill="#E30905" transform="translate(370.4375,71.625)"/>
<path d="M0 0 C2.86105488 0.00542427 5.72195731 -0.00000495 8.58300781 -0.00634766 C10.39811233 -0.00568797 12.21321675 -0.0044091 14.02832031 -0.00244141 C14.88547638 -0.00446564 15.74263245 -0.00648987 16.62576294 -0.00857544 C22.59301447 0.01537775 22.59301447 0.01537775 23.70800781 1.13037109 C23.83489838 3.93376744 23.89321711 6.70154953 23.89550781 9.50537109 C23.90775391 10.28654297 23.92 11.06771484 23.93261719 11.87255859 C23.94272207 15.80672633 23.93739148 17.78629559 21.70800781 21.13037109 C18.72705078 21.56274414 18.72705078 21.56274414 14.95019531 21.64208984 C13.95561813 21.66901665 13.95561813 21.66901665 12.94094849 21.69648743 C10.82169978 21.75070033 8.70267757 21.78451881 6.58300781 21.81787109 C5.14677829 21.85103476 3.71057871 21.88552354 2.27441406 21.92138672 C-1.24775582 22.00893198 -4.76888407 22.06889688 -8.29199219 22.13037109 C-8.29199219 29.72037109 -8.29199219 37.31037109 -8.29199219 45.13037109 C-1.14150437 45.0117272 -1.14150437 45.0117272 6.00830078 44.86010742 C6.89662598 44.85261475 7.78495117 44.84512207 8.70019531 44.83740234 C9.61140137 44.82169189 10.52260742 44.80598145 11.46142578 44.78979492 C12.57348389 44.95838013 12.57348389 44.95838013 13.70800781 45.13037109 C15.81133941 48.28536849 15.94221744 48.78531205 15.71972656 52.32568359 C15.67267578 53.12361328 15.625625 53.92154297 15.57714844 54.74365234 C15.51720703 55.57251953 15.45726562 56.40138672 15.39550781 57.25537109 C15.34716797 58.09197266 15.29882812 58.92857422 15.24902344 59.79052734 C14.85239364 65.98598527 14.85239364 65.98598527 13.70800781 67.13037109 C8.57045972 68.03699723 3.62437691 68.17900933 -1.59277344 68.15771484 C-2.84872314 68.15376709 -4.10467285 68.14981934 -5.39868164 68.14575195 C-6.35347412 68.14067627 -7.3082666 68.13560059 -8.29199219 68.13037109 C-8.28977158 68.70444199 -8.28755096 69.27851288 -8.28526306 69.86997986 C-8.26320962 75.82290019 -8.24808535 81.775809 -8.23706055 87.72875977 C-8.23201902 89.95304841 -8.22518596 92.17733372 -8.21655273 94.40161133 C-8.2044792 97.59115418 -8.19876223 100.78065338 -8.19433594 103.97021484 C-8.18917465 104.97124741 -8.18401337 105.97227997 -8.17869568 107.00364685 C-8.17858238 108.38496544 -8.17858238 108.38496544 -8.1784668 109.79418945 C-8.17624619 110.6091539 -8.17402557 111.42411835 -8.17173767 112.26377869 C-8.29199219 114.13037109 -8.29199219 114.13037109 -9.29199219 115.13037109 C-15.92716397 116.09354119 -22.58806225 116.53739541 -29.29199219 116.13037109 C-30.87816459 114.5441987 -30.41797761 112.92731988 -30.41897583 110.72692871 C-30.42179565 109.7761998 -30.42461548 108.82547089 -30.42752075 107.84593201 C-30.42549652 106.79446487 -30.42347229 105.74299774 -30.42138672 104.65966797 C-30.42313904 103.55897476 -30.42489136 102.45828156 -30.42669678 101.32423401 C-30.43111787 97.66584726 -30.42817639 94.00750838 -30.42480469 90.34912109 C-30.42547765 87.81945791 -30.42644761 85.28979479 -30.42770386 82.76013184 C-30.42918118 77.4504326 -30.42711977 72.14075072 -30.42236328 66.83105469 C-30.41692069 60.68431151 -30.41868337 54.5376015 -30.42418969 48.39085913 C-30.42926659 42.48819546 -30.42873924 36.58554213 -30.42580795 30.68287659 C-30.42513843 28.16614273 -30.42596799 25.64940804 -30.42828751 23.13267517 C-30.43081252 19.62211835 -30.42697557 16.1116262 -30.42138672 12.60107422 C-30.42341095 11.54960709 -30.42543518 10.49813995 -30.42752075 9.41481018 C-30.42470093 8.46408127 -30.4218811 7.51335236 -30.41897583 6.53381348 C-30.4185988 5.70273323 -30.41822178 4.87165298 -30.41783333 4.01538849 C-30.29199219 2.13037109 -30.29199219 2.13037109 -29.29199219 1.13037109 C-19.72706487 -0.56410868 -9.67722517 -0.02193999 0 0 Z " fill="#E90A06" transform="translate(114.2919921875,69.86962890625)"/>
<path d="M0 0 C2.19937657 -0.00959065 4.39777155 -0.04054112 6.59692383 -0.07226562 C16.96197793 -0.15056757 26.42961255 0.46258581 34.80200195 7.24023438 C42.30685363 15.16202226 42.05263422 25.56287621 41.9543457 35.86132812 C41.57766111 44.2159992 39.11200056 50.005463 33.05200195 55.92773438 C24.27454318 62.17323389 16.11927435 61.57830034 5.80200195 61.24023438 C5.81247559 62.10825684 5.82294922 62.9762793 5.83374023 63.87060547 C5.86779912 67.08722966 5.89288962 70.30376204 5.91186523 73.52050781 C5.92193073 74.91344219 5.93558429 76.3063554 5.95288086 77.69921875 C5.97710415 79.69977797 5.98741009 81.70049052 5.99731445 83.70117188 C6.00778809 84.90563965 6.01826172 86.11010742 6.02905273 87.35107422 C5.80200195 90.24023438 5.80200195 90.24023438 3.80200195 92.24023438 C1.93847656 92.4831543 1.93847656 92.4831543 -0.2956543 92.47070312 C-1.09680664 92.46876953 -1.89795898 92.46683594 -2.72338867 92.46484375 C-3.56063477 92.45259766 -4.39788086 92.44035156 -5.26049805 92.42773438 C-6.10161133 92.42708984 -6.94272461 92.42644531 -7.80932617 92.42578125 C-14.05776621 92.38046621 -14.05776621 92.38046621 -15.19799805 91.24023438 C-15.29720525 89.41967126 -15.32599177 87.59523626 -15.32739258 85.77197266 C-15.33054474 84.59788849 -15.3336969 83.42380432 -15.33694458 82.21414185 C-15.33492035 80.92595551 -15.33289612 79.63776917 -15.33081055 78.31054688 C-15.33148548 76.96418236 -15.33245709 75.61781796 -15.33370972 74.27145386 C-15.33519085 71.42477274 -15.33302761 68.57812281 -15.32836914 65.73144531 C-15.32281121 62.16950486 -15.32595682 58.60764136 -15.33180618 55.04570389 C-15.35149032 40.93346755 -15.24691849 26.83741585 -14.75268555 12.73242188 C-14.71394318 11.5808963 -14.67520081 10.42937073 -14.63528442 9.24295044 C-14.59394379 8.19904144 -14.55260315 7.15513245 -14.51000977 6.07958984 C-14.47414764 5.16450653 -14.43828552 4.24942322 -14.40133667 3.30661011 C-13.85525258 -2.2428271 -4.43358256 0.01168398 0 0 Z M5.80200195 19.24023438 C4.65699911 27.04386916 5.00426653 34.41015441 5.80200195 42.24023438 C13.14982727 42.84058143 13.14982727 42.84058143 19.98950195 40.55273438 C22.82866455 35.36391997 22.50455902 30.03078368 21.80200195 24.24023438 C20.58753021 21.03488202 20.58753021 21.03488202 17.80200195 19.24023438 C15.7614519 19.16957821 13.71865938 19.15601462 11.67700195 19.17773438 C10.58129883 19.18675781 9.4855957 19.19578125 8.35668945 19.20507812 C7.09211914 19.22248047 7.09211914 19.22248047 5.80200195 19.24023438 Z " fill="#E00804" transform="translate(219.197998046875,83.759765625)"/>
<path d="M0 0 C0.78737549 -0.00451172 1.57475098 -0.00902344 2.38598633 -0.01367188 C7.75154541 0.0007727 7.75154541 0.0007727 10 1.125 C10.02684679 3.77090014 10.04676357 6.41653096 10.0625 9.0625 C10.07087891 9.81724609 10.07925781 10.57199219 10.08789062 11.34960938 C10.09652441 13.27494313 10.05224333 15.20035581 10 17.125 C8.22808941 18.89691059 5.62367341 18.48560338 3.21484375 18.66015625 C2.04501953 18.74716797 0.87519531 18.83417969 -0.33007812 18.92382812 C-1.56177734 19.01083984 -2.79347656 19.09785156 -4.0625 19.1875 C-5.29806641 19.27837891 -6.53363281 19.36925781 -7.80664062 19.46289062 C-10.87079714 19.68767431 -13.9353638 19.90685382 -17 20.125 C-16.505 28.045 -16.505 28.045 -16 36.125 C-9.4 36.455 -2.8 36.785 4 37.125 C5.91211242 41.90528105 6.18740303 43.46404287 5.6875 48.3125 C5.58824219 49.35792969 5.48898438 50.40335938 5.38671875 51.48046875 C5 54.125 5 54.125 4 56.125 C-6.395 56.62 -6.395 56.62 -17 57.125 C-17 60.095 -17 63.065 -17 66.125 C-17.13246841 67.98192324 -17.29155651 69.83756402 -17.5 71.6875 C-17.63921875 72.95787109 -17.63921875 72.95787109 -17.78125 74.25390625 C-17.8534375 74.87136719 -17.925625 75.48882812 -18 76.125 C-17.15703369 76.11976318 -16.31406738 76.11452637 -15.44555664 76.10913086 C-12.32772064 76.09212174 -9.20990823 76.07956594 -6.09204102 76.07006836 C-4.74079614 76.06502943 -3.38955674 76.05819823 -2.03833008 76.04956055 C-0.09979566 76.03747581 1.838778 76.03230172 3.77734375 76.02734375 C5.52905884 76.01948853 5.52905884 76.01948853 7.31616211 76.01147461 C10 76.125 10 76.125 11 77.125 C11.09975032 79.63636104 11.13882183 82.11403415 11.125 84.625 C11.13080078 85.67880859 11.13080078 85.67880859 11.13671875 86.75390625 C11.12661378 91.99838622 11.12661378 91.99838622 10 93.125 C8.22687919 93.34271852 6.44590918 93.49701101 4.6640625 93.625 C3.54507568 93.70717773 2.42608887 93.78935547 1.27319336 93.87402344 C0.06928955 93.9568457 -1.13461426 94.03966797 -2.375 94.125 C-4.19922485 94.25310059 -4.19922485 94.25310059 -6.06030273 94.38378906 C-8.5317066 94.55491503 -11.00330793 94.72321277 -13.47509766 94.88867188 C-15.6859893 95.03690176 -17.89664807 95.188694 -20.10693359 95.34570312 C-22.7582015 95.53335514 -25.40991958 95.70708195 -28.0625 95.875 C-28.84608887 95.93171875 -29.62967773 95.9884375 -30.43701172 96.046875 C-32.28842826 96.1539852 -34.1456637 96.15054769 -36 96.125 C-38.47368992 93.65131008 -38.23871959 92.24468148 -38.25994873 88.86909485 C-38.25432922 88.13772812 -38.24870972 87.40636139 -38.24291992 86.65283203 C-38.24481827 85.88177628 -38.24671661 85.11072052 -38.24867249 84.31629944 C-38.25239029 81.7550351 -38.24165247 79.19405189 -38.23046875 76.6328125 C-38.22927619 74.84837884 -38.22882395 73.06394454 -38.2290802 71.2795105 C-38.22751301 67.52842304 -38.21921271 63.77743069 -38.20581055 60.02636719 C-38.18894309 55.24762428 -38.18499272 50.46898715 -38.18575573 45.69021797 C-38.18548178 41.99759941 -38.17996284 38.30500341 -38.17275429 34.61239243 C-38.16959699 32.85276332 -38.16760718 31.09313169 -38.16686058 29.33349991 C-38.15846973 19.88087836 -38.02021333 10.53577137 -37 1.125 C-11.91099736 0.02821118 -11.91099736 0.02821118 0 0 Z " fill="#E10905" transform="translate(183,83.875)"/>
<path d="M0 0 C0.74362793 0.01047363 1.48725586 0.02094727 2.25341797 0.03173828 C3.46191406 0.04140625 3.46191406 0.04140625 4.69482422 0.05126953 C5.95746094 0.07640625 5.95746094 0.07640625 7.24560547 0.10205078 C8.51984375 0.11558594 8.51984375 0.11558594 9.81982422 0.12939453 C11.9202043 0.15299431 14.02043991 0.18886595 16.12060547 0.22705078 C16.95872374 4.59238522 17.24238786 8.70812648 17.23413086 13.15039062 C17.23427689 13.81450958 17.23442291 14.47862854 17.23457336 15.16287231 C17.23388181 17.33794527 17.2261252 19.51293046 17.21826172 21.68798828 C17.21639485 23.20398919 17.21497221 24.7199907 17.213974 26.23599243 C17.21017003 30.21109709 17.200358 34.18616476 17.18927002 38.16125488 C17.17901017 42.22354634 17.1744666 46.28584383 17.16943359 50.34814453 C17.15873369 58.30779685 17.14168293 66.26741921 17.12060547 74.22705078 C17.8016333 74.21657715 18.48266113 74.20610352 19.18432617 74.1953125 C22.26721513 74.153762 25.35004518 74.12772767 28.43310547 74.10205078 C29.50496094 74.08529297 30.57681641 74.06853516 31.68115234 74.05126953 C32.70917969 74.04482422 33.73720703 74.03837891 34.79638672 74.03173828 C35.74425049 74.02126465 36.69211426 74.01079102 37.66870117 74 C40.12060547 74.22705078 40.12060547 74.22705078 43.12060547 76.22705078 C43.36910123 78.9989618 43.44743956 81.52592466 43.37060547 84.28955078 C43.36544922 85.03527344 43.36029297 85.78099609 43.35498047 86.54931641 C43.27470973 92.07294652 43.27470973 92.07294652 42.12060547 93.22705078 C39.50561012 93.33128272 36.92333473 93.36760787 34.30810547 93.35205078 C33.51291504 93.34939209 32.71772461 93.3467334 31.8984375 93.34399414 C25.75733097 93.29677325 19.62932295 93.08802571 13.49560547 92.78955078 C12.67987061 92.75039551 11.86413574 92.71124023 11.02368164 92.67089844 C6.01370739 92.40258957 1.09773054 91.85743976 -3.87939453 91.22705078 C-3.92566244 79.65745041 -3.96123545 68.08787193 -3.98301888 56.51819801 C-3.99347194 51.1463762 -4.00765882 45.77461751 -4.03027344 40.40283203 C-4.05194764 35.2222163 -4.06395168 30.04166143 -4.06914902 24.86100388 C-4.07285455 22.88097551 -4.08009015 20.9009506 -4.09085464 18.92094803 C-4.10529755 16.15523232 -4.10737551 13.38977057 -4.10644531 10.62402344 C-4.11363586 9.79899826 -4.12082642 8.97397308 -4.12823486 8.12394714 C-4.10033008 0.49536334 -4.10033008 0.49536334 0 0 Z " fill="#E00804" transform="translate(273.87939453125,83.77294921875)"/>
<path d="M0 0 C1.18613892 0.00785522 1.18613892 0.00785522 2.39624023 0.01586914 C3.67724609 0.02070312 3.67724609 0.02070312 4.98413086 0.02563477 C5.88196289 0.03401367 6.77979492 0.04239258 7.70483398 0.05102539 C8.6065332 0.05553711 9.50823242 0.06004883 10.43725586 0.06469727 C12.67234712 0.07652315 14.90730835 0.09300319 17.14233398 0.11352539 C18.2537756 4.57608174 18.28358602 8.94370596 18.27172852 13.51220703 C18.27348083 14.34531906 18.27523315 15.17843109 18.27703857 16.03678894 C18.28142919 18.78244121 18.27852918 21.52802875 18.27514648 24.27368164 C18.27582026 26.18509432 18.2767909 28.09650692 18.27804565 30.00791931 C18.27951879 34.01000791 18.27738015 38.01207416 18.27270508 42.01416016 C18.26700417 47.14447079 18.27029153 52.27472915 18.27627754 57.40503788 C18.2798902 61.35038141 18.27874138 65.29571254 18.27614975 69.24105644 C18.27548264 71.13289839 18.27630139 73.02474147 18.2786293 74.91658211 C18.28116778 77.55916455 18.27729847 80.20166216 18.27172852 82.84423828 C18.27375275 83.62616547 18.27577698 84.40809265 18.27786255 85.2137146 C18.26429647 88.68670397 18.07226654 91.77227921 17.14233398 95.11352539 C13.99611716 94.97530341 10.85047833 94.82667455 7.70483398 94.67602539 C6.80700195 94.63670898 5.90916992 94.59739258 4.98413086 94.55688477 C4.13012695 94.51499023 3.27612305 94.4730957 2.39624023 94.42993164 C1.60548096 94.39327393 0.81472168 94.35661621 0 94.31884766 C-1.85766602 94.11352539 -1.85766602 94.11352539 -2.85766602 93.11352539 C-2.97995983 91.70048866 -3.03540812 90.28157614 -3.06298828 88.86352539 C-3.0829335 87.95747559 -3.10287872 87.05142578 -3.12342834 86.11791992 C-3.14014084 85.12646973 -3.15685333 84.13501953 -3.17407227 83.11352539 C-3.19485336 82.08984863 -3.21563446 81.06617188 -3.23704529 80.01147461 C-3.28043232 77.82906441 -3.32145847 75.64660624 -3.36035156 73.46411133 C-3.41892452 70.18306922 -3.48426609 66.90222252 -3.55102539 63.62133789 C-3.88010372 46.93616858 -4.05158592 30.29431996 -3.42016602 13.61352539 C-3.38084961 12.41083008 -3.3415332 11.20813477 -3.30102539 9.96899414 C-3.25913086 8.83075195 -3.21723633 7.69250977 -3.17407227 6.51977539 C-3.13741455 5.50206055 -3.10075684 4.4843457 -3.06298828 3.43579102 C-2.7742036 0.16953669 -2.7742036 0.16953669 0 0 Z " fill="#DD0905" transform="translate(330.857666015625,83.886474609375)"/>
<path d="M0 0 C2.86105488 0.00542427 5.72195731 -0.00000495 8.58300781 -0.00634766 C10.39811233 -0.00568797 12.21321675 -0.0044091 14.02832031 -0.00244141 C14.88547638 -0.00446564 15.74263245 -0.00648987 16.62576294 -0.00857544 C22.59301447 0.01537775 22.59301447 0.01537775 23.70800781 1.13037109 C23.83489838 3.93376744 23.89321711 6.70154953 23.89550781 9.50537109 C23.90775391 10.28654297 23.92 11.06771484 23.93261719 11.87255859 C23.94272207 15.80672633 23.93739148 17.78629559 21.70800781 21.13037109 C19.27783203 21.47094727 19.27783203 21.47094727 16.26269531 21.42333984 C15.18632812 21.41367188 14.10996094 21.40400391 13.00097656 21.39404297 C11.87304688 21.36890625 10.74511719 21.34376953 9.58300781 21.31787109 C8.44734375 21.30433594 7.31167969 21.29080078 6.14160156 21.27685547 C3.32993394 21.24141428 0.51920364 21.19200626 -2.29199219 21.13037109 C0.04776492 18.79061399 0.56161787 18.86122034 3.73535156 18.75146484 C4.52748047 18.71730469 5.31960937 18.68314453 6.13574219 18.64794922 C6.96396484 18.62152344 7.7921875 18.59509766 8.64550781 18.56787109 C10.2797644 18.50781632 11.91389359 18.44415928 13.54785156 18.37646484 C14.63634399 18.34057251 14.63634399 18.34057251 15.74682617 18.30395508 C17.9216994 18.18767137 17.9216994 18.18767137 20.70800781 17.13037109 C20.70800781 12.51037109 20.70800781 7.89037109 20.70800781 3.13037109 C18.77699219 3.20255859 16.84597656 3.27474609 14.85644531 3.34912109 C12.93327479 3.41880119 11.01010351 3.4884614 9.08691406 3.55761719 C7.14023508 3.6282934 5.19365063 3.70155869 3.24707031 3.77490234 C-19.17480469 4.57568359 -19.17480469 4.57568359 -29.29199219 3.13037109 C-29.29199219 40.09037109 -29.29199219 77.05037109 -29.29199219 115.13037109 C-29.62199219 115.13037109 -29.95199219 115.13037109 -30.29199219 115.13037109 C-30.31532213 100.41427545 -30.33297183 85.69818224 -30.34380436 70.98207188 C-30.34896711 64.14958135 -30.35600942 57.3171023 -30.36743164 50.48461914 C-30.37843926 43.89701805 -30.38426842 37.30942578 -30.38686943 30.72181511 C-30.38872419 28.2022883 -30.39234576 25.68276219 -30.39772224 23.16324043 C-30.40492894 19.64779344 -30.40598329 16.13239649 -30.40551758 12.61694336 C-30.40911285 11.56390518 -30.41270813 10.510867 -30.41641235 9.42591858 C-30.41435036 7.99765747 -30.41435036 7.99765747 -30.4122467 6.5405426 C-30.4131685 5.70816354 -30.41409029 4.87578447 -30.41504002 4.0181818 C-30.29199219 2.13037109 -30.29199219 2.13037109 -29.29199219 1.13037109 C-19.72706487 -0.56410868 -9.67722517 -0.02193999 0 0 Z " fill="#BE1511" transform="translate(114.2919921875,69.86962890625)"/>
<path d="M0 0 C0.66 0 1.32 0 2 0 C2.02684679 2.64590014 2.04676357 5.29153096 2.0625 7.9375 C2.07087891 8.69224609 2.07925781 9.44699219 2.08789062 10.22460938 C2.09652441 12.14994313 2.05224333 14.07535581 2 16 C0.22808941 17.77191059 -2.37632659 17.36060338 -4.78515625 17.53515625 C-5.95498047 17.62216797 -7.12480469 17.70917969 -8.33007812 17.79882812 C-9.56177734 17.88583984 -10.79347656 17.97285156 -12.0625 18.0625 C-13.29806641 18.15337891 -14.53363281 18.24425781 -15.80664062 18.33789062 C-18.87079714 18.56267431 -21.9353638 18.78185382 -25 19 C-24.67 24.28 -24.34 29.56 -24 35 C-17.4 35.33 -10.8 35.66 -4 36 C-2.08788758 40.78028105 -1.81259697 42.33904287 -2.3125 47.1875 C-2.41175781 48.23292969 -2.51101562 49.27835938 -2.61328125 50.35546875 C-3 53 -3 53 -4 55 C-14.395 55.495 -14.395 55.495 -25 56 C-25 58.97 -25 61.94 -25 65 C-25.13246841 66.85692324 -25.29155651 68.71256402 -25.5 70.5625 C-25.5928125 71.40941406 -25.685625 72.25632812 -25.78125 73.12890625 C-25.88953125 74.05509766 -25.88953125 74.05509766 -26 75 C-26.33 75 -26.66 75 -27 75 C-27.06058594 74.26394531 -27.12117187 73.52789062 -27.18359375 72.76953125 C-27.26738281 71.79371094 -27.35117188 70.81789063 -27.4375 69.8125 C-27.51871094 68.84957031 -27.59992188 67.88664062 -27.68359375 66.89453125 C-27.9483364 64.01301658 -27.9483364 64.01301658 -28.5859375 61.27734375 C-29.09845888 58.45847614 -28.58797578 57.34017484 -27 55 C-24.65147472 53.82573736 -23.26225935 53.88491827 -20.6484375 53.90234375 C-19.79765625 53.90556641 -18.946875 53.90878906 -18.0703125 53.91210938 C-17.18085938 53.92048828 -16.29140625 53.92886719 -15.375 53.9375 C-14.4778125 53.94201172 -13.580625 53.94652344 -12.65625 53.95117188 C-10.43743352 53.96297409 -8.21874982 53.97943845 -6 54 C-5.90235126 49.21521178 -6.22887459 44.72314313 -7 40 C-9.95839355 39.97310551 -12.91654427 39.95321259 -15.875 39.9375 C-17.13763672 39.92493164 -17.13763672 39.92493164 -18.42578125 39.91210938 C-19.23144531 39.90888672 -20.03710938 39.90566406 -20.8671875 39.90234375 C-21.61081543 39.89710693 -22.35444336 39.89187012 -23.12060547 39.88647461 C-25.09132568 39.88213364 -25.09132568 39.88213364 -27 41 C-28.02820502 37.91538494 -28.04582849 36.10314761 -27.87890625 32.89453125 C-27.83580322 32.00870361 -27.7927002 31.12287598 -27.74829102 30.21020508 C-27.68697998 29.0889624 -27.62566895 27.96771973 -27.5625 26.8125 C-27.376875 23.244375 -27.19125 19.67625 -27 16 C-18.09 16 -9.18 16 0 16 C0 10.72 0 5.44 0 0 Z " fill="#C11612" transform="translate(191,85)"/>
<path d="M0 0 C0.74362793 0.01047363 1.48725586 0.02094727 2.25341797 0.03173828 C3.46191406 0.04140625 3.46191406 0.04140625 4.69482422 0.05126953 C5.95746094 0.07640625 5.95746094 0.07640625 7.24560547 0.10205078 C8.51984375 0.11558594 8.51984375 0.11558594 9.81982422 0.12939453 C11.9202043 0.15299431 14.02043991 0.18886595 16.12060547 0.22705078 C16.45060547 1.87705078 16.78060547 3.52705078 17.12060547 5.22705078 C16.13060547 4.89705078 15.14060547 4.56705078 14.12060547 4.22705078 C11.54794729 4.15675957 9.00419116 4.13334246 6.43310547 4.16455078 C5.73121094 4.1690625 5.02931641 4.17357422 4.30615234 4.17822266 C2.57760009 4.18998152 0.84909181 4.20791625 -0.87939453 4.22705078 C-1.74777019 9.4390209 -2.01715827 14.48803968 -1.97314453 19.77392578 C-1.96955933 20.62388123 -1.96597412 21.47383667 -1.96228027 22.34954834 C-1.8846821 35.39322569 -1.61893808 48.43559268 -1.37939453 61.47705078 C-1.3308545 64.18016935 -1.28285282 66.88329739 -1.23486328 69.58642578 C-1.11823054 76.13333521 -0.99961942 82.68020638 -0.87939453 89.22705078 C2.92124822 89.79301825 6.6849971 90.33519606 10.52294922 90.54345703 C11.26738281 90.58535156 12.01181641 90.62724609 12.77880859 90.67041016 C13.53097656 90.70972656 14.28314453 90.74904297 15.05810547 90.78955078 C16.22696289 90.85432617 16.22696289 90.85432617 17.41943359 90.92041016 C19.31967664 91.02533155 21.22012216 91.12657529 23.12060547 91.22705078 C23.12060547 91.55705078 23.12060547 91.88705078 23.12060547 92.22705078 C20.12054307 92.25426909 17.12073291 92.27399456 14.12060547 92.28955078 C13.28142578 92.29792969 12.44224609 92.30630859 11.57763672 92.31494141 C10.74619141 92.31816406 9.91474609 92.32138672 9.05810547 92.32470703 C7.92695313 92.33256226 7.92695313 92.33256226 6.77294922 92.34057617 C4.46360124 92.24173166 2.24495944 92.01435978 -0.04516602 91.71995544 C-1.94310913 91.47596764 -1.94310913 91.47596764 -3.87939453 91.22705078 C-3.92566244 79.65745041 -3.96123545 68.08787193 -3.98301888 56.51819801 C-3.99347194 51.1463762 -4.00765882 45.77461751 -4.03027344 40.40283203 C-4.05194764 35.2222163 -4.06395168 30.04166143 -4.06914902 24.86100388 C-4.07285455 22.88097551 -4.08009015 20.9009506 -4.09085464 18.92094803 C-4.10529755 16.15523232 -4.10737551 13.38977057 -4.10644531 10.62402344 C-4.11363586 9.79899826 -4.12082642 8.97397308 -4.12823486 8.12394714 C-4.10033008 0.49536334 -4.10033008 0.49536334 0 0 Z " fill="#C51A16" transform="translate(273.87939453125,83.77294921875)"/>
<path d="M0 0 C0.33 0 0.66 0 1 0 C1 7.59 1 15.18 1 23 C8.15048781 22.88135611 8.15048781 22.88135611 15.30029297 22.72973633 C16.18861816 22.72224365 17.07694336 22.71475098 17.9921875 22.70703125 C18.90339355 22.6913208 19.81459961 22.67561035 20.75341797 22.65942383 C21.49479004 22.77181396 22.23616211 22.8842041 23 23 C25.1033316 26.15499739 25.23420963 26.65494095 25.01171875 30.1953125 C24.96466797 30.99324219 24.91761719 31.79117188 24.86914062 32.61328125 C24.80919922 33.44214844 24.74925781 34.27101562 24.6875 35.125 C24.63916016 35.96160156 24.59082031 36.79820312 24.54101562 37.66015625 C24.14438582 43.85561418 24.14438582 43.85561418 23 45 C20.66702567 45.04092937 18.33294775 45.04241723 16 45 C16 44.67 16 44.34 16 44 C17.98 44 19.96 44 22 44 C21.67 38.06 21.34 32.12 21 26 C15.95937044 26.0786779 15.95937044 26.0786779 10.91918945 26.18017578 C6.50518492 26.21477792 4.23812836 25.69525134 0 24 C0 16.08 0 8.16 0 0 Z " fill="#BC1F1B" transform="translate(105,92)"/>
<path d="M0 0 C2.04219706 1.69179328 2.91793306 2.63727666 3.51171875 5.26171875 C3.56972656 6.06222656 3.62773437 6.86273438 3.6875 7.6875 C3.78611328 8.89986328 3.78611328 8.89986328 3.88671875 10.13671875 C3.94279297 11.05904297 3.94279297 11.05904297 4 12 C1 8.25 1 8.25 1 6 C-1.43020142 8.18886203 -2.70314799 10.15662042 -3.97265625 13.16015625 C-4.31490234 13.95357422 -4.65714844 14.74699219 -5.00976562 15.56445312 C-5.35716797 16.38880859 -5.70457031 17.21316406 -6.0625 18.0625 C-6.75744424 19.70103826 -7.45648347 21.33784747 -8.16015625 22.97265625 C-8.61853882 24.05945679 -8.61853882 24.05945679 -9.08618164 25.16821289 C-10 27 -10 27 -12 29 C-14.7578125 29.01171875 -14.7578125 29.01171875 -18.125 28.6875 C-19.86716797 28.52507812 -19.86716797 28.52507812 -21.64453125 28.359375 C-25.43826548 27.95306121 -29.22000893 27.5188223 -33 27 C-32.25 21.25 -32.25 21.25 -30 19 C-30.33 21.31 -30.66 23.62 -31 26 C-25.06 26 -19.12 26 -13 26 C-12.34 24.02 -11.68 22.04 -11 20 C-10.34 20 -9.68 20 -9 20 C-8.74476563 19.16210938 -8.48953125 18.32421875 -8.2265625 17.4609375 C-6.88231082 13.66792162 -5.20985807 10.19775209 -3.375 6.625 C-3.05015625 5.98433594 -2.7253125 5.34367188 -2.390625 4.68359375 C-1.59742593 3.12052499 -0.79922969 1.55999378 0 0 Z " fill="#CE201D" transform="translate(391,153)"/>
<path d="M0 0 C0.87454834 0.00523682 1.74909668 0.01047363 2.65014648 0.01586914 C3.59438477 0.0190918 4.53862305 0.02231445 5.51147461 0.02563477 C6.50469727 0.03401367 7.49791992 0.04239258 8.52124023 0.05102539 C9.51833008 0.05553711 10.51541992 0.06004883 11.54272461 0.06469727 C14.01478872 0.07652532 16.48673541 0.0930069 18.95874023 0.11352539 C18.42095878 5.01537246 17.37355918 9.03868215 15.39624023 13.55102539 C14.94120117 14.60161133 14.48616211 15.65219727 14.01733398 16.73461914 C13.66799805 17.5196582 13.31866211 18.30469727 12.95874023 19.11352539 C12.06867375 16.63485922 11.85312088 15.42927166 12.70092773 12.89477539 C13.26166992 11.76555664 13.26166992 11.76555664 13.83374023 10.61352539 C15.21923369 7.78440589 16.2993862 5.19986342 16.95874023 2.11352539 C15.02038057 2.17362957 13.08289533 2.26244256 11.14624023 2.36352539 C9.52782227 2.43313477 9.52782227 2.43313477 7.87670898 2.50415039 C4.33489545 3.24380623 3.89119597 4.19237138 1.95874023 7.11352539 C-1.72875977 8.36352539 -1.72875977 8.36352539 -5.04125977 9.11352539 C-5.37125977 8.45352539 -5.70125977 7.79352539 -6.04125977 7.11352539 C-2.92035374 0.16241652 -2.92035374 0.16241652 0 0 Z " fill="#C5130E" transform="translate(405.041259765625,71.886474609375)"/>
<path d="M0 0 C2.17846388 2.17846388 2.75047989 3.61176274 3.8046875 6.47265625 C4.14113281 7.37306641 4.47757812 8.27347656 4.82421875 9.20117188 C5.17097656 10.14541016 5.51773437 11.08964844 5.875 12.0625 C8.1315515 18.16720111 10.43293888 24.16280449 13.27001953 30.02514648 C14 32 14 32 14 36 C7.07 35.505 7.07 35.505 0 35 C0 34.67 0 34.34 0 34 C3.96 34 7.92 34 12 34 C11.34 32.35 10.68 30.7 10 29 C10 28.01 10 27.02 10 26 C9.34 26 8.68 26 8 26 C8 25.34 8 24.68 8 24 C7.34 23.67 6.68 23.34 6 23 C5.27306096 21.02111039 4.60183749 19.02045442 4 17 C3.34 17 2.68 17 2 17 C-0.25998595 13.40537669 -0.20868087 10.43404325 -0.125 6.25 C-0.09792969 4.49429688 -0.09792969 4.49429688 -0.0703125 2.703125 C-0.04710937 1.81109375 -0.02390625 0.9190625 0 0 Z " fill="#DB110C" transform="translate(411,151)"/>
<path d="M0 0 C0.33 0 0.66 0 1 0 C1.04939115 4.09338652 1.08571501 8.18665798 1.10986328 12.28027344 C1.11992877 13.67320781 1.13358234 15.06612102 1.15087891 16.45898438 C1.1751022 18.4595436 1.18540814 20.46025615 1.1953125 22.4609375 C1.20578613 23.66540527 1.21625977 24.86987305 1.22705078 26.11083984 C1 29 1 29 -1 31 C-2.86352539 31.24291992 -2.86352539 31.24291992 -5.09765625 31.23046875 C-5.89880859 31.22853516 -6.69996094 31.22660156 -7.52539062 31.22460938 C-8.78125977 31.20624023 -8.78125977 31.20624023 -10.0625 31.1875 C-10.90361328 31.18685547 -11.74472656 31.18621094 -12.61132812 31.18554688 C-18.85976816 31.14023184 -18.85976816 31.14023184 -20 30 C-20.04063832 28.33382885 -20.042721 26.66611905 -20 25 C-19.34 24.67 -18.68 24.34 -18 24 C-17.67 25.32 -17.34 26.64 -17 28 C-12.38 28 -7.76 28 -3 28 C-1.68819687 25.37639374 -1.80500843 23.3054863 -1.71875 20.37109375 C-1.68136719 19.25412109 -1.64398438 18.13714844 -1.60546875 16.98632812 C-1.53504026 14.6165399 -1.46472814 12.24674822 -1.39453125 9.87695312 C-1.35714844 8.76126953 -1.31976563 7.64558594 -1.28125 6.49609375 C-1.25095703 5.46669678 -1.22066406 4.4372998 -1.18945312 3.37670898 C-1 1 -1 1 0 0 Z " fill="#B90E08" transform="translate(224,145)"/>
<path d="M0 0 C2.19937657 -0.00959065 4.39777155 -0.04054112 6.59692383 -0.07226562 C14.26181227 -0.13026936 21.71134538 -0.07867363 28.80200195 3.24023438 C29.46200195 3.90023437 30.12200195 4.56023437 30.80200195 5.24023438 C29.15200195 5.24023438 27.50200195 5.24023438 25.80200195 5.24023438 C25.80200195 4.58023438 25.80200195 3.92023438 25.80200195 3.24023438 C24.85325195 3.26085937 23.90450195 3.28148438 22.92700195 3.30273438 C19.80200195 3.24023438 19.80200195 3.24023438 17.80200195 2.24023438 C15.62375234 2.15464319 13.44284941 2.13310026 11.26293945 2.14257812 C9.31000977 2.14741211 9.31000977 2.14741211 7.31762695 2.15234375 C5.93741796 2.16069972 4.55720963 2.16916467 3.17700195 2.17773438 C1.7889827 2.18274936 0.40096173 2.18731227 -0.98706055 2.19140625 C-4.39072478 2.20322453 -7.79436674 2.22116048 -11.19799805 2.24023438 C-11.52799805 10.49023438 -11.85799805 18.74023438 -12.19799805 27.24023438 C-12.85799805 27.57023437 -13.51799805 27.90023437 -14.19799805 28.24023438 C-14.22686143 23.76108109 -14.24474992 19.28195146 -14.26049805 14.80273438 C-14.26887695 13.52333984 -14.27725586 12.24394531 -14.28588867 10.92578125 C-14.28911133 9.71083984 -14.29233398 8.49589844 -14.2956543 7.24414062 C-14.30089111 6.1182251 -14.30612793 4.99230957 -14.31152344 3.83227539 C-14.03769805 -2.41977643 -4.89126921 0.01289014 0 0 Z " fill="#B31814" transform="translate(219.197998046875,83.759765625)"/>
<path d="M0 0 C3.60409919 -0.05800828 7.20807851 -0.09359869 10.8125 -0.125 C12.34874023 -0.15013672 12.34874023 -0.15013672 13.91601562 -0.17578125 C14.89892578 -0.18222656 15.88183594 -0.18867188 16.89453125 -0.1953125 C17.80050049 -0.20578613 18.70646973 -0.21625977 19.63989258 -0.22705078 C22 0 22 0 25 2 C25.24849576 4.77191102 25.32683409 7.29887388 25.25 10.0625 C25.24484375 10.80822266 25.2396875 11.55394531 25.234375 12.32226562 C25.15410426 17.84589574 25.15410426 17.84589574 24 19 C21.13732433 19.07325168 18.299281 19.09238205 15.4375 19.0625 C14.63119141 19.05798828 13.82488281 19.05347656 12.99414062 19.04882812 C10.99606244 19.03700518 8.99802217 19.01906914 7 19 C7 18.34 7 17.68 7 17 C12.28 17 17.56 17 23 17 C23 12.38 23 7.76 23 3 C22.34 3 21.68 3 21 3 C21 2.34 21 1.68 21 1 C14.07 1 7.14 1 0 1 C0 0.67 0 0.34 0 0 Z " fill="#B01B17" transform="translate(292,158)"/>
<path d="M0 0 C0.33 0 0.66 0 1 0 C1.02527002 6.53278786 1.04283292 13.06556321 1.05493164 19.59838867 C1.05997317 21.82267732 1.06680623 24.04696263 1.07543945 26.27124023 C1.08751298 29.46078309 1.09322996 32.65028229 1.09765625 35.83984375 C1.10281754 36.84087631 1.10797882 37.84190887 1.11329651 38.87327576 C1.11340981 40.25459435 1.11340981 40.25459435 1.11352539 41.66381836 C1.115746 42.47878281 1.11796661 43.29374725 1.12025452 44.13340759 C1 46 1 46 0 47 C-6.69577806 47.97196778 -13.24211575 48.11368403 -20 48 C-20 47.67 -20 47.34 -20 47 C-16.7 47 -13.4 47 -10 47 C-10 46.34 -10 45.68 -10 45 C-5.05 44.505 -5.05 44.505 0 44 C0 29.48 0 14.96 0 0 Z " fill="#B51714" transform="translate(105,138)"/>
<path d="M0 0 C5.42938082 8.14407123 4.9565274 20.13234825 3.65234375 29.49609375 C2.76537921 33.43898654 1.28324261 36.67891983 -1 40 C-1.93065133 37.39417629 -2.14917407 36.35801776 -1.0625 33.75 C-0.711875 33.1725 -0.36125 32.595 0 32 C0.66 32 1.32 32 2 32 C1.86149295 28.54133208 1.71295273 25.08316725 1.5625 21.625 C1.52318359 20.64015625 1.48386719 19.6553125 1.44335938 18.640625 C1.40146484 17.69960937 1.35957031 16.75859375 1.31640625 15.7890625 C1.27974854 14.91975098 1.24309082 14.05043945 1.20532227 13.15478516 C1.12598456 10.9516738 1.12598456 10.9516738 0 9 C-0.06950541 7.45976004 -0.08452357 5.91665012 -0.0625 4.375 C-0.05347656 3.55773437 -0.04445313 2.74046875 -0.03515625 1.8984375 C-0.02355469 1.27195312 -0.01195312 0.64546875 0 0 Z " fill="#C0140D" transform="translate(257,96)"/>
<path d="M0 0 C4.47915328 -0.02886338 8.95828291 -0.04675187 13.4375 -0.0625 C14.71689453 -0.07087891 15.99628906 -0.07925781 17.31445312 -0.08789062 C19.13686523 -0.09272461 19.13686523 -0.09272461 20.99609375 -0.09765625 C22.12200928 -0.10289307 23.2479248 -0.10812988 24.40795898 -0.11352539 C27 0 27 0 28 1 C28.09975032 3.51136104 28.13882183 5.98903415 28.125 8.5 C28.13080078 9.55380859 28.13080078 9.55380859 28.13671875 10.62890625 C28.12661378 15.87338622 28.12661378 15.87338622 27 17 C25.48071962 17.07179964 23.95832518 17.08392007 22.4375 17.0625 C21.61121094 17.05347656 20.78492188 17.04445312 19.93359375 17.03515625 C18.97646484 17.01775391 18.97646484 17.01775391 18 17 C18 16.34 18 15.68 18 15 C20.64 15 23.28 15 26 15 C26 10.38 26 5.76 26 1 C17.42 1 8.84 1 0 1 C0 0.67 0 0.34 0 0 Z " fill="#B21811" transform="translate(166,160)"/>
<path d="M0 0 C0.33 0 0.66 0 1 0 C1.01030746 0.58659897 1.02061493 1.17319794 1.03123474 1.77757263 C1.13907194 7.8603787 1.25368756 13.94302974 1.37231445 20.02563477 C1.41573665 22.29838836 1.45740616 24.57117613 1.49731445 26.84399414 C1.55484119 30.10313232 1.61858552 33.36209731 1.68359375 36.62109375 C1.70030624 37.64400009 1.71701874 38.66690643 1.73423767 39.72080994 C1.75418289 40.66170975 1.77412811 41.60260956 1.79467773 42.57202148 C1.81022202 43.40475082 1.8257663 44.23748016 1.84178162 45.09544373 C1.79428614 47.00966585 1.79428614 47.00966585 3 48 C5.85528607 48.400383 8.69736487 48.7518227 11.5625 49.0625 C12.36880859 49.15337891 13.17511719 49.24425781 14.00585938 49.33789062 C16.00347377 49.56247449 18.0016856 49.78173236 20 50 C20 50.33 20 50.66 20 51 C16.85378318 50.86177801 13.70814434 50.71314916 10.5625 50.5625 C9.66466797 50.52318359 8.76683594 50.48386719 7.84179688 50.44335938 C6.98779297 50.40146484 6.13378906 50.35957031 5.25390625 50.31640625 C4.46314697 50.27974854 3.6723877 50.24309082 2.85766602 50.20532227 C1 50 1 50 0 49 C-0.09319449 47.4651703 -0.117458 45.92607918 -0.11352539 44.38842773 C-0.11344986 43.40748642 -0.11337433 42.4265451 -0.11329651 41.4158783 C-0.10813522 40.3492244 -0.10297394 39.2825705 -0.09765625 38.18359375 C-0.0962413 37.0974025 -0.09482635 36.01121124 -0.09336853 34.8921051 C-0.08775048 31.40720925 -0.07519492 27.92237658 -0.0625 24.4375 C-0.05748733 22.08138113 -0.05292402 19.72526126 -0.04882812 17.36914062 C-0.03777519 11.57940536 -0.02101951 5.78970719 0 0 Z " fill="#AE1613" transform="translate(328,128)"/>
<path d="M0 0 C0.87205078 -0.03738281 1.74410156 -0.07476562 2.64257812 -0.11328125 C5.04579376 -0.14653097 7.20779349 -0.10956333 9.5625 0.375 C12.22861378 3.3036076 13.005129 6.34854947 13.75 10.1875 C13.90855469 10.97769531 14.06710937 11.76789063 14.23046875 12.58203125 C14.34003906 13.17371094 14.44960938 13.76539062 14.5625 14.375 C13.9025 14.045 13.2425 13.715 12.5625 13.375 C12.5625 12.055 12.5625 10.735 12.5625 9.375 C11.9025 9.375 11.2425 9.375 10.5625 9.375 C10.5625 7.395 10.5625 5.415 10.5625 3.375 C8.2525 3.045 5.9425 2.715 3.5625 2.375 C3.2325 3.365 2.9025 4.355 2.5625 5.375 C2.2325 4.385 1.9025 3.395 1.5625 2.375 C-0.0631807 2.68393932 -1.68802748 2.9972695 -3.3125 3.3125 C-4.21742188 3.48652344 -5.12234375 3.66054687 -6.0546875 3.83984375 C-8.43706317 4.27463701 -8.43706317 4.27463701 -10.4375 5.375 C-10.7675 4.055 -11.0975 2.735 -11.4375 1.375 C-7.90372526 -0.39188737 -3.89345402 0.06302869 0 0 Z " fill="#C01613" transform="translate(370.4375,71.625)"/>
<path d="M0 0 C5.94 0 11.88 0 18 0 C18.33 1.65 18.66 3.3 19 5 C18.01 4.67 17.02 4.34 16 4 C13.42734182 3.92970879 10.88358569 3.90629168 8.3125 3.9375 C7.61060547 3.94201172 6.90871094 3.94652344 6.18554688 3.95117188 C4.45699462 3.96293073 2.72848635 3.98086546 1 4 C0.67 6.31 0.34 8.62 0 11 C-0.33 11 -0.66 11 -1 11 C-1.125 3.375 -1.125 3.375 0 0 Z " fill="#BD0D0B" transform="translate(272,84)"/>
<path d="M0 0 C3 3.75 3 3.75 3 6 C3.66 6.66 4.32 7.32 5 8 C4.67 8.33 4.34 8.66 4 9 C3.76924918 10.34747084 3.58846937 11.70377565 3.4375 13.0625 C3.293125 14.361875 3.14875 15.66125 3 17 C4.32 17.66 5.64 18.32 7 19 C4.125 19.125 4.125 19.125 1 19 C0.34 18.34 -0.32 17.68 -1 17 C-0.98251781 14.08047432 -0.86055367 11.27702115 -0.625 8.375 C-0.56828125 7.57320312 -0.5115625 6.77140625 -0.453125 5.9453125 C-0.31152018 3.96284502 -0.15697741 1.98130949 0 0 Z M3 0 C3.33 0.66 3.66 1.32 4 2 C3.34 1.67 2.68 1.34 2 1 C2.33 0.67 2.66 0.34 3 0 Z " fill="#D00B09" transform="translate(146,161)"/>
<path d="M0 0 C0.99 0.33 1.98 0.66 3 1 C3 2.65 3 4.3 3 6 C3.66 6 4.32 6 5 6 C5.66 9.3 6.32 12.6 7 16 C7.66 16 8.32 16 9 16 C11.36486077 20.58191774 11.40579751 24.96056114 11 30 C10.67 30.99 10.34 31.98 10 33 C9.34 32.67 8.68 32.34 8 32 C8.25652344 31.08863281 8.51304687 30.17726562 8.77734375 29.23828125 C9.60224248 23.46108041 6.77517294 18.39168069 4.5625 13.1875 C3.7070981 11.11953731 2.85410505 9.05057602 2.00390625 6.98046875 C1.62049072 6.07192139 1.2370752 5.16337402 0.84204102 4.22729492 C0 2 0 2 0 0 Z " fill="#C31D16" transform="translate(370,101)"/>
<path d="M0 0 C8.58 0 17.16 0 26 0 C26 0.66 26 1.32 26 2 C18.08 2.33 10.16 2.66 2 3 C1.67 5.31 1.34 7.62 1 10 C0.67 10 0.34 10 0 10 C0 6.7 0 3.4 0 0 Z " fill="#B81B14" transform="translate(146,85)"/>
<path d="M0 0 C0.66 0 1.32 0 2 0 C1.88140625 0.60585937 1.7628125 1.21171875 1.640625 1.8359375 C0.67128675 8.13663613 1.39743558 12.20060775 4.08984375 17.96875 C5 20 5 20 5 22 C4.34 22 3.68 22 3 22 C2.67 20.02 2.34 18.04 2 16 C1.01 16 0.02 16 -1 16 C-2.80362003 12.16730743 -3.44078194 9.23150665 -3 5 C-1.625 2.125 -1.625 2.125 0 0 Z " fill="#C61F1D" transform="translate(403,121)"/>
<path d="M0 0 C4.8 3.32307692 4.8 3.32307692 5.8125 6.75 C5.874375 7.4925 5.93625 8.235 6 9 C5.46890625 8.51917969 4.9378125 8.03835937 4.390625 7.54296875 C1.40534598 5.61619553 -0.72350016 5.5041576 -4.25 5.3125 C-5.32765625 5.24675781 -6.4053125 5.18101563 -7.515625 5.11328125 C-8.33546875 5.07589844 -9.1553125 5.03851563 -10 5 C-10 7.31 -10 9.62 -10 12 C-10.66 11.67 -11.32 11.34 -12 11 C-12 8.69 -12 6.38 -12 4 C-8.78548731 2.39274365 -5.56387464 2.94251815 -2 3 C-2 2.34 -2 1.68 -2 1 C-1.34 0.67 -0.68 0.34 0 0 Z " fill="#B4100C" transform="translate(235,98)"/>
<path d="M0 0 C2.56489714 3.12902408 4.13534179 6.27109139 5.6875 10 C6.34298828 11.546875 6.34298828 11.546875 7.01171875 13.125 C8 16 8 16 8 20 C1.07 19.505 1.07 19.505 -6 19 C-6 18.67 -6 18.34 -6 18 C-2.04 18 1.92 18 6 18 C5.34 16.35 4.68 14.7 4 13 C4 12.01 4 11.02 4 10 C3.34 10 2.68 10 2 10 C2 9.34 2 8.68 2 8 C1.34 7.67 0.68 7.34 0 7 C0 4.69 0 2.38 0 0 Z " fill="#B01913" transform="translate(417,167)"/>
<path d="M0 0 C-4.4 5.97142857 -4.4 5.97142857 -8 7 C-11.75 6.625 -11.75 6.625 -15 6 C-14 3 -14 3 -12.109375 2.05078125 C-4.24325381 -0.41063747 -4.24325381 -0.41063747 0 0 Z " fill="#E40A09" transform="translate(255,136)"/>
<path d="M0 0 C0.93423645 3.01031744 1.04449911 3.86650268 0 7 C6.27 7 12.54 7 19 7 C19 7.99 19 8.98 19 10 C11.97326485 9.49656013 4.98059091 8.95812032 -2 8 C-1.125 2.25 -1.125 2.25 0 0 Z " fill="#AD1614" transform="translate(360,172)"/>
<path d="M0 0 C0.99 0.495 0.99 0.495 2 1 C4.3400417 0.71758117 6.67504723 0.38749213 9 0 C9 0.66 9 1.32 9 2 C8.195625 2.12375 7.39125 2.2475 6.5625 2.375 C5.2940625 2.684375 5.2940625 2.684375 4 3 C3.67 3.66 3.34 4.32 3 5 C3.66 5 4.32 5 5 5 C5 6.65 5 8.3 5 10 C4.01 10.33 3.02 10.66 2 11 C0.19769832 7.17010894 -0.19622241 4.21878192 0 0 Z " fill="#D70F0D" transform="translate(361,74)"/>
<path d="M0 0 C0.66 0.66 1.32 1.32 2 2 C1.34 2.66 0.68 3.32 0 4 C-0.32333563 7.23703052 -0.46441866 10.4291297 -0.56640625 13.67773438 C-0.64574385 15.45593149 -0.81605856 17.22956362 -1 19 C-1.66 19.33 -2.32 19.66 -3 20 C-3.08112454 17.41603321 -3.14054748 14.83462432 -3.1875 12.25 C-3.21263672 11.52039063 -3.23777344 10.79078125 -3.26367188 10.0390625 C-3.30981636 6.65513396 -3.25324128 4.42141443 -1.48828125 1.484375 C-0.75158203 0.74960938 -0.75158203 0.74960938 0 0 Z " fill="#C40907" transform="translate(148,93)"/>
<path d="M0 0 C0.33 0 0.66 0 1 0 C1 2.64 1 5.28 1 8 C0.34 8 -0.32 8 -1 8 C-1.66 10.31 -2.32 12.62 -3 15 C-3.66 15 -4.32 15 -5 15 C-5 15.99 -5 16.98 -5 18 C-5.66 17.67 -6.32 17.34 -7 17 C-4.69 11.39 -2.38 5.78 0 0 Z " fill="#BE1614" transform="translate(398,82)"/>
<path d="M0 0 C3 1 3 1 5 4 C5 5.32 5 6.64 5 8 C5.969375 8.28875 6.93875 8.5775 7.9375 8.875 C11 10 11 10 12 12 C10.02 12 8.04 12 6 12 C4.02 8.04 2.04 4.08 0 0 Z " fill="#BB1917" transform="translate(398,173)"/>
<path d="M0 0 C0.66 0.33 1.32 0.66 2 1 C2.0810206 3.10353495 2.13919907 5.20795952 2.1875 7.3125 C2.22230469 8.48425781 2.25710937 9.65601562 2.29296875 10.86328125 C2 14 2 14 0.48828125 15.91796875 C-0.24841797 16.45357422 -0.24841797 16.45357422 -1 17 C-1.66 16.67 -2.32 16.34 -3 16 C-2.34 15.01 -1.68 14.02 -1 13 C-0.5396236 9.80193335 -0.5396236 9.80193335 -0.375 6.3125 C-0.30023438 5.13300781 -0.22546875 3.95351562 -0.1484375 2.73828125 C-0.09945312 1.83464844 -0.05046875 0.93101563 0 0 Z " fill="#BA1918" transform="translate(241,108)"/>
<path d="M0 0 C5.94 0 11.88 0 18 0 C18 0.33 18 0.66 18 1 C15.93827387 1.33808686 13.8755797 1.67027361 11.8125 2 C10.08966797 2.2784375 10.08966797 2.2784375 8.33203125 2.5625 C5.49584607 2.93489477 2.85280436 3.08596021 0 3 C0 2.01 0 1.02 0 0 Z " fill="#D41007" transform="translate(329,85)"/>
<path d="M0 0 C2.04219706 1.69179328 2.91793306 2.63727666 3.51171875 5.26171875 C3.56972656 6.06222656 3.62773437 6.86273438 3.6875 7.6875 C3.75324219 8.49574219 3.81898438 9.30398437 3.88671875 10.13671875 C3.92410156 10.75160156 3.96148437 11.36648437 4 12 C1 8.25 1 8.25 1 6 C0.01 6.33 -0.98 6.66 -2 7 C-1.125 1.125 -1.125 1.125 0 0 Z " fill="#C0110B" transform="translate(391,153)"/>
<path d="M0 0 C2 3.875 2 3.875 2 5 C6.95 5.33 11.9 5.66 17 6 C17 6.33 17 6.66 17 7 C14.18743719 7.02684312 11.37512759 7.04676188 8.5625 7.0625 C7.76005859 7.07087891 6.95761719 7.07925781 6.13085938 7.08789062 C4.08704779 7.0965143 2.04316098 7.0522815 0 7 C-1 6 -1 6 -1.125 3.5 C-1 1 -1 1 0 0 Z " fill="#B91C19" transform="translate(205,169)"/>
<path d="M0 0 C0.66 0 1.32 0 2 0 C1.27623543 3.49403583 -0.06285206 6.51998905 -1.5625 9.75 C-2.01753906 10.73484375 -2.47257812 11.7196875 -2.94140625 12.734375 C-3.29074219 13.48203125 -3.64007813 14.2296875 -4 15 C-4.66 15 -5.32 15 -6 15 C-4.36041242 9.76727367 -2.61047965 4.84803364 0 0 Z " fill="#BD1D19" transform="translate(377,135)"/>
<path d="M0 0 C0.99 0.33 1.98 0.66 3 1 C4.16796875 3.43359375 4.16796875 3.43359375 5.1875 6.4375 C5.70376953 7.92056641 5.70376953 7.92056641 6.23046875 9.43359375 C7 12 7 12 7 14 C6.34 14 5.68 14 5 14 C4.16235732 12.04350603 3.33000941 10.08474444 2.5 8.125 C2.0359375 7.03445312 1.571875 5.94390625 1.09375 4.8203125 C0 2 0 2 0 0 Z " fill="#C41E16" transform="translate(364,86)"/>
<path d="M0 0 C4.8 3.32307692 4.8 3.32307692 5.8125 6.75 C5.874375 7.4925 5.93625 8.235 6 9 C5.278125 8.360625 4.55625 7.72125 3.8125 7.0625 C1.01808816 5.01326465 -0.61663274 4.38667054 -4 4 C-3.34 3.67 -2.68 3.34 -2 3 C-2 2.34 -2 1.68 -2 1 C-1.34 0.67 -0.68 0.34 0 0 Z " fill="#D1100C" transform="translate(235,98)"/>
<path d="M0 0 C2.05123248 2.05123248 2.64147118 3.27005063 3.625 5.9375 C3.88539063 6.62714844 4.14578125 7.31679687 4.4140625 8.02734375 C5 10 5 10 5 13 C4.34 13 3.68 13 3 13 C2.67 11.02 2.34 9.04 2 7 C1.34 7 0.68 7 0 7 C0 4.69 0 2.38 0 0 Z " fill="#C5221D" transform="translate(411,151)"/>
<path d="M0 0 C0.99 0.33 1.98 0.66 3 1 C-3.14285714 6.57142857 -3.14285714 6.57142857 -8 7 C-8 6.34 -8 5.68 -8 5 C-2.25 2 -2.25 2 0 2 C0 1.34 0 0.68 0 0 Z " fill="#C61D1E" transform="translate(252,136)"/>
<path d="M0 0 C0.66 0 1.32 0 2 0 C1.27991594 4.60853797 -0.31295939 8.67237409 -2 13 C-2.33 13 -2.66 13 -3 13 C-2.88490339 11.58249437 -2.75746342 10.16598831 -2.625 8.75 C-2.55539062 7.96109375 -2.48578125 7.1721875 -2.4140625 6.359375 C-1.98492887 3.914123 -1.21399362 2.15163097 0 0 Z " fill="#C8231F" transform="translate(408,108)"/>
<path d="M0 0 C0.66 0.33 1.32 0.66 2 1 C-0.475 6.94 -0.475 6.94 -3 13 C-4.08644535 8.6542186 -3.90680911 8.05039452 -2.0625 4.25 C-1.68222656 3.45078125 -1.30195313 2.6515625 -0.91015625 1.828125 C-0.60980469 1.22484375 -0.30945313 0.6215625 0 0 Z " fill="#BD2018" transform="translate(421,78)"/>
<path d="M0 0 C2.83374881 3.20336822 3.5205537 5.78087253 4 10 C3.34 10 2.68 10 2 10 C2 9.34 2 8.68 2 8 C1.34 7.67 0.68 7.34 0 7 C0 4.69 0 2.38 0 0 Z " fill="#CA1A16" transform="translate(417,167)"/>
<path d="M0 0 C0.33 0 0.66 0 1 0 C0.5317879 4.77576339 -0.24331998 8.04476345 -3 12 C-3.93065133 9.39417629 -4.14917407 8.35801776 -3.0625 5.75 C-2.5365625 4.88375 -2.5365625 4.88375 -2 4 C-1.34 4 -0.68 4 0 4 C0 2.68 0 1.36 0 0 Z " fill="#C11D1A" transform="translate(259,124)"/>
<path d="M0 0 C1.32 0 2.64 0 4 0 C4 1.98 4 3.96 4 6 C3.01 6 2.02 6 1 6 C0.67 4.02 0.34 2.04 0 0 Z " fill="#DC110E" transform="translate(126,118)"/>
<path d="M0 0 C-0.33 2.97 -0.66 5.94 -1 9 C-1.66 9 -2.32 9 -3 9 C-2.95875 8.236875 -2.9175 7.47375 -2.875 6.6875 C-2.77919176 3.77281584 -2.77919176 3.77281584 -5 1 C-2 0 -2 0 0 0 Z " fill="#E00E0E" transform="translate(406,112)"/>
<path d="M0 0 C0.33 0 0.66 0 1 0 C0.67 2.64 0.34 5.28 0 8 C-0.99 8.33 -1.98 8.66 -3 9 C-2.44271087 5.65626525 -1.64826111 2.96687001 0 0 Z " fill="#C21715" transform="translate(370,150)"/>
<path d="M0 0 C2.31 0 4.62 0 7 0 C7 0.99 7 1.98 7 3 C5.02 3 3.04 3 1 3 C0.67 2.01 0.34 1.02 0 0 Z " fill="#C0190C" transform="translate(372,179)"/>
<path d="M0 0 C1.5625 1.8125 1.5625 1.8125 3 4 C2.67 4.99 2.34 5.98 2 7 C1.34 7 0.68 7 0 7 C0 4.69 0 2.38 0 0 Z M3 0 C3.33 0.66 3.66 1.32 4 2 C3.34 1.67 2.68 1.34 2 1 C2.33 0.67 2.66 0.34 3 0 Z " fill="#D00F09" transform="translate(146,161)"/>
</svg>
